<svg xmlns="http://www.w3.org/2000/svg" width="293.329" height="266.376" viewBox="0 0 293.329 266.376">
  <path id="Tracé_18617" data-name="Tracé 18617" d="M1511.652,48.4c-15.3,26.231-64.662,34.208-81.854,47.661-15.732,12.317-24.109,40.8-23.26,63.5s18.091,45.283,40.728,47.177c9.851.821,19.7-2.088,29.567-1.416,31.566,2.154,49.148,37.558,76.9,52.74,31.988,17.5,72.754,5.123,102.349-16.169,18.823-13.54,35.761-31.5,41.757-53.9s-1.781-49.522-22.189-60.524c-18.39-9.913-46.4-8.458-53.558-28.081-5.013-13.72,4.759-28.064,6.955-42.505,3.436-22.626-13.776-45.147-35.591-52.065S1551.651-3.3,1535.577,13c-7.5,7.6-18.544,26.171-23.925,35.4" transform="translate(-1406.479)" fill="#125d0c" opacity="0.07"/>
</svg>
