<svg xmlns="http://www.w3.org/2000/svg" xmlns:xlink="http://www.w3.org/1999/xlink" width="538.989" height="420.679" viewBox="0 0 538.989 420.679">
  <defs>
    <clipPath id="clip-path">
      <rect id="Rectangle_2247" data-name="Rectangle 2247" width="538.989" height="420.679" fill="none"/>
    </clipPath>
  </defs>
  <g id="Groupe_4357" data-name="Groupe 4357" transform="translate(0 0)">
    <g id="Groupe_4356" data-name="Groupe 4356" transform="translate(0)" clip-path="url(#clip-path)">
      <path id="Tracé_3395" data-name="Tracé 3395" d="M0,244.613c7.869,2.2,328.266,24.4,476.263-244.613" transform="translate(1.063 33.28)" fill="none" stroke="#486b4f" stroke-miterlimit="10" stroke-width="0.824"/>
      <path id="Tracé_3396" data-name="Tracé 3396" d="M58.772,0S12.637,63.8,0,125.71" transform="translate(329.903 67.477)" fill="none" stroke="#486b4f" stroke-miterlimit="10" stroke-width="0.824"/>
      <path id="Tracé_3397" data-name="Tracé 3397" d="M69.858,0S47.609,38.964,0,37.27" transform="translate(442.784 49.766)" fill="none" stroke="#486b4f" stroke-miterlimit="10" stroke-width="0.824"/>
      <path id="Tracé_3398" data-name="Tracé 3398" d="M60.888,20.248S29.783,23.886,0,0" transform="translate(250.299 235.243)" fill="none" stroke="#486b4f" stroke-miterlimit="10" stroke-width="0.824"/>
      <path id="Tracé_3399" data-name="Tracé 3399" d="M127.883,75.975S24.077,51.917,0,0" transform="translate(103.873 274.14)" fill="none" stroke="#486b4f" stroke-miterlimit="10" stroke-width="0.824"/>
      <path id="Tracé_3400" data-name="Tracé 3400" d="M86.19,0S23.436,27.313,0,20.315" transform="translate(175.454 310.683)" fill="none" stroke="#486b4f" stroke-miterlimit="10" stroke-width="0.824"/>
      <path id="Tracé_3401" data-name="Tracé 3401" d="M27.911,2.032c-10.138-4.71-21.875-.957-26.26,8.425-4.385,9.363.268,20.794,10.387,25.513,10.1,4.758,21.866.967,26.251-8.406s-.278-20.8-10.378-25.533" transform="translate(248.716 293.429)" fill="#c7463e"/>
      <path id="Tracé_3402" data-name="Tracé 3402" d="M27.892,2.035C17.772-2.685,6.045,1.087,1.66,10.45c-4.4,9.392.258,20.813,10.378,25.542s21.866.957,26.251-8.425c4.385-9.363-.278-20.813-10.4-25.533" transform="translate(219.9 338.24)" fill="#ea6036"/>
      <path id="Tracé_3403" data-name="Tracé 3403" d="M27.892,2.035C17.772-2.685,6.045,1.087,1.66,10.45c-4.4,9.392.258,20.813,10.378,25.542s21.866.957,26.251-8.425c4.385-9.363-.278-20.813-10.4-25.533" transform="translate(248.716 382.642)" fill="#ea6036"/>
      <path id="Tracé_3404" data-name="Tracé 3404" d="M27.889,2.041c-10.1-4.729-21.875-.957-26.241,8.415S1.906,31.249,12.026,36c10.11,4.72,21.875.957,26.26-8.425,4.385-9.363-.258-20.794-10.4-25.533" transform="translate(304.178 238.784)" fill="#ea6036"/>
      <path id="Tracé_3405" data-name="Tracé 3405" d="M27.889,2.041c-10.1-4.729-21.875-.957-26.241,8.415S1.906,31.249,12.026,36c10.11,4.72,21.875.957,26.26-8.425,4.385-9.363-.258-20.794-10.4-25.533" transform="translate(400.861 258.64)" fill="#c7463e"/>
      <path id="Tracé_3406" data-name="Tracé 3406" d="M27.911,2.04C17.791-2.689,6.026,1.083,1.651,10.465s.268,20.813,10.387,25.542c10.1,4.729,21.866.957,26.241-8.425C42.673,18.22,38.03,6.76,27.911,2.04" transform="translate(374.981 39.54)" fill="#c7463e"/>
      <path id="Tracé_3407" data-name="Tracé 3407" d="M27.9,2.051C17.759-2.7,6.031,1.084,1.646,10.466-2.729,19.819,1.915,31.26,12.034,36c10.119,4.72,21.866.948,26.26-8.415C42.669,18.2,38.026,6.77,27.9,2.051" transform="translate(315.591 62.985)" fill="#ea6036"/>
      <path id="Tracé_3408" data-name="Tracé 3408" d="M27.912,2.032c-10.129-4.71-21.875-.957-26.26,8.425C-2.733,19.819,1.91,31.25,12.039,35.97c10.1,4.758,21.847.977,26.251-8.386C42.665,18.2,38.041,6.752,27.912,2.032" transform="translate(482.251 77.383)" fill="#c7463e"/>
      <path id="Tracé_3409" data-name="Tracé 3409" d="M27.9,2.038C17.779-2.682,6.032,1.071,1.648,10.453S1.906,31.276,12.045,36c10.1,4.72,21.847.977,26.241-8.415C42.67,18.217,38.027,6.787,27.9,2.038" transform="translate(250.155 205.882)" fill="#c7463e"/>
      <path id="Tracé_3410" data-name="Tracé 3410" d="M27.891,2.038C17.772-2.682,6.025,1.071,1.641,10.453c-4.366,9.382.278,20.813,10.4,25.542,10.129,4.71,21.866.957,26.251-8.425,4.385-9.363-.278-20.813-10.4-25.533" transform="translate(318.775 168.373)" fill="#ea6036"/>
      <path id="Tracé_3411" data-name="Tracé 3411" d="M27.915,2.02C17.8-2.671,6.049,1.082,1.654,10.445-2.74,19.827,1.922,31.258,12.051,36c10.11,4.72,21.856.957,26.251-8.425,4.375-9.372-.268-20.8-10.387-25.552" transform="translate(271.689 337.737)" fill="#c7463e"/>
      <path id="Tracé_3412" data-name="Tracé 3412" d="M27.915,2.02C17.8-2.671,6.049,1.082,1.654,10.445-2.74,19.827,1.922,31.258,12.051,36c10.11,4.72,21.856.957,26.251-8.425,4.375-9.372-.268-20.8-10.387-25.552" transform="translate(318.771 350.413)" fill="#c7463e"/>
      <path id="Tracé_3413" data-name="Tracé 3413" d="M27.919,2.02C17.79-2.671,6.053,1.082,1.659,10.445c-4.4,9.382.268,20.813,10.4,25.552,10.1,4.72,21.856.957,26.251-8.425,4.375-9.372-.268-20.8-10.387-25.552" transform="translate(311.252 302.401)" fill="#c7463e"/>
      <path id="Tracé_3414" data-name="Tracé 3414" d="M27.907,2.048c-10.1-4.729-21.866-1-26.251,8.386s.258,20.832,10.387,25.542c10.119,4.739,21.856.976,26.241-8.4S38.035,6.768,27.907,2.048" transform="translate(345.958 220.347)" fill="#c7463e"/>
      <path id="Tracé_3415" data-name="Tracé 3415" d="M27.92,2.043C17.8-2.687,6.035,1.076,1.65,10.439c-4.385,9.382.268,20.813,10.4,25.533,10.11,4.748,21.856.977,26.241-8.4S38.02,6.763,27.92,2.043" transform="translate(332.858 10.693)" fill="#c7463e"/>
      <path id="Tracé_3416" data-name="Tracé 3416" d="M27.908,2.031C17.779-2.689,6.032,1.1,1.638,10.456c-4.356,9.372.268,20.813,10.4,25.533,10.11,4.748,21.875.967,26.27-8.4C42.661,18.22,38,6.76,27.908,2.031" transform="translate(454.607 0.002)" fill="#ea6036"/>
      <path id="Tracé_3417" data-name="Tracé 3417" d="M27.9,2.04c-10.11-4.729-21.875-.957-26.26,8.425-4.366,9.353.278,20.784,10.387,25.513,10.11,4.748,21.885.977,26.27-8.406C42.663,18.22,38,6.77,27.9,2.04" transform="translate(499.054 20.776)" fill="#c7463e"/>
    </g>
  </g>
</svg>
