<svg xmlns="http://www.w3.org/2000/svg" xmlns:xlink="http://www.w3.org/1999/xlink" width="1067.861" height="1067.861" viewBox="0 0 1067.861 1067.861">
  <defs>
    <clipPath id="clip-path">
      <rect id="Rectangle_2245" data-name="Rectangle 2245" width="791.551" height="718.632" transform="translate(0 0)" fill="none"/>
    </clipPath>
  </defs>
  <g id="Groupe_4352" data-name="Groupe 4352" transform="translate(0 559.711) rotate(-45)" clip-path="url(#clip-path)">
    <path id="Tracé_3352" data-name="Tracé 3352" d="M590.281,451.348l-2.71,2.485q-13.817-18.428-27.216-36.62c-94.1-127.157-175.366-236.974-332.534-281.123-53.189-14.952-108.2-30.45-156.14-63.621C59.952,64.35-1.955,14.288.047,2.838A3.78,3.78,0,0,1,2.254,0l.932,3.342C2.018,10.314,52.5,54.614,73.748,69.33c47.545,32.9,102.33,48.337,155.326,63.225,158.057,44.417,239.6,154.609,334.023,282.183q13.415,18.122,27.184,36.609" transform="translate(201.27 264.79)" fill="#60831f"/>
    <path id="Tracé_3353" data-name="Tracé 3353" d="M176.78,121.363C107.246,102.1,44.974,60.012,0,2.549L2.688,0c44.6,56.981,104.622,97.2,173.588,116.318Z" transform="translate(24.538 146.277)" fill="#60831f"/>
    <path id="Tracé_3354" data-name="Tracé 3354" d="M166.883,217.159l-9.361-6.127c-13.592-20.243-24.988-44.6-37.2-67.274C88.588,84.818,55.77,23.885,0,3.47L1.435,0C58.2,20.779,91.287,82.215,123.28,141.627c12.189,22.6,28.93,54.646,43.6,75.532" transform="translate(46.656 63.815)" fill="#60831f"/>
    <path id="Tracé_3355" data-name="Tracé 3355" d="M9.993,212.746c-2.324,4.091-4.788,8.087-7.358,11.964L0,222.878C40.765,161.164,50.265,72.276,23.628,1.724L26.777,0C52.107,67.188,45.167,150.817,9.993,212.746" transform="translate(196.005 32.926)" fill="#60831f"/>
    <path id="Tracé_3356" data-name="Tracé 3356" d="M295.422,499.107l-2.517,2.742c-57.731-62.122-103.026-176.726-126.15-263.258C130.777,104.054,76.228,27.184,0,3.5L1.285,0c77.245,23.97,132.448,101.559,168.7,237.156,23.039,86.178,68.077,200.236,125.433,261.951" transform="translate(338.886 17.342)" fill="#60831f"/>
    <path id="Tracé_3357" data-name="Tracé 3357" d="M124.479,75.81l-2.41,2.86A338.334,338.334,0,0,0,0,3.47L1.414,0A341.123,341.123,0,0,1,124.479,75.81" transform="translate(365.255 120.807)" fill="#60831f"/>
    <path id="Tracé_3358" data-name="Tracé 3358" d="M25.941,176.608q-1.735,3.053-3.61,6.03l-2.688-1.767C57.281,121.588,47.952,38.6,0,3.085L2.142,0C49.8,35.3,60.194,116.318,25.941,176.608" transform="translate(466.825 21.626)" fill="#60831f"/>
    <path id="Tracé_3359" data-name="Tracé 3359" d="M431.554,131.87l-2.164,3.074C393.017,107.61,309.753,84.293,258.084,86.981c-12.521.664-25.32,1.671-37.7,2.646-37.091,2.935-75.446,5.987-111.616-.257C52.879,79.687,12.21,46.816,0,1.425L3.245,0C15.134,44.214,54.956,76.292,109.72,85.782c35.8,6.169,73.957,3.149,110.855.225,12.4-.975,25.224-2,37.787-2.646,52.214-2.71,136.379,20.854,173.191,48.509" transform="translate(322.091 532.407)" fill="#60831f"/>
    <path id="Tracé_3360" data-name="Tracé 3360" d="M51.572,110.416l-3.224,1.532c-2.881-9.533-2.87-20.008-2.86-31.115.043-28,.075-56.97-45.488-77.46L1.628,0C48.937,21.261,48.894,52.654,48.851,80.341c0,10.828-.032,21.057,2.721,30.076" transform="translate(388.24 507.291)" fill="#60831f"/>
    <path id="Tracé_3361" data-name="Tracé 3361" d="M121.234,4.349c-5.505,2.217-11.332,5.891-17.49,9.768C78.916,29.765,48.027,49.237,0,2.838L2.431,0C48.8,44.792,78.5,26.081,102.362,11.032c6.3-3.974,12.264-7.733,18.08-10.079Z" transform="translate(293.483 617.375)" fill="#60831f"/>
    <path id="Tracé_3362" data-name="Tracé 3362" d="M11.121,2.363C6.922,5.33,1.331,11.66.635,15.88-1.582,20.175,2.52,27.961,5.09,32.7c6.673,12.221,23.917,6.2,28.4-7.669C38.058,10.781,23.448-6.345,11.121,2.363" transform="translate(22.232 45.815)" fill="#c7463e"/>
    <path id="Tracé_3363" data-name="Tracé 3363" d="M18.382.032C10.9.557,3.848,7.251,1.17,15-4.935,32.871,14.152,45.917,28.183,34.617c7.4-6.009,9.8-17.533,4.606-24.324C30.721,3.888,24.98-.418,18.382.032" transform="translate(-0.003 123.891)" fill="#c7463e"/>
    <path id="Tracé_3364" data-name="Tracé 3364" d="M19.884.352C11.2-1.693.872,5.386.047,15.947-.66,25,6.656,32.334,14.86,29.325a21.549,21.549,0,0,0,7.112.814c3.245-.214,6.855-3.277,7.765-6.833,2.506-9.886-.482-20.747-9.854-22.953" transform="translate(204.858 17.311)" fill="#c7463e"/>
    <path id="Tracé_3365" data-name="Tracé 3365" d="M13.184,1.7C7.283,4.34,1.981,9.588.4,16.379c-1.585,6.7,1.724,13.549,7.551,15.134,2.86.771,15.059-.011,18.733-2.217,4.734-2.838,7.819-8.312,8.472-13.774C36.769,2.294,23.6-3.04,13.184,1.7" transform="translate(319.564 -0.001)" fill="#c7463e"/>
    <path id="Tracé_3366" data-name="Tracé 3366" d="M13.573.473C7.779,2.026,3.152,6.846,1.128,12.673l-.011.043a19.839,19.839,0,0,0-1.082,4.7A8.253,8.253,0,0,0,.549,21.2a10.817,10.817,0,0,0,.568,2.624c2.5,6.351,9.725,9.2,16.3,7.048C25.13,28.321,30.2,19.71,29.04,11.591,27.9,3.59,21.446-1.647,13.573.473" transform="translate(454.547 5.804)" fill="#c7463e"/>
    <path id="Tracé_3367" data-name="Tracé 3367" d="M17.815,0C7.083.022-1.635,11.385.26,22.5c2.056,12.082,14.888,17.64,25.159,9.168a18.7,18.7,0,0,0,6.855-15.338A14.269,14.269,0,0,0,17.815,0" transform="translate(340.992 97.211)" fill="#c7463e"/>
    <path id="Tracé_3368" data-name="Tracé 3368" d="M3.5,8.285c-6.619,9.822-3.609,24.228,7,25.941,9.447,1.51,19.922-8.258,19.333-18.69,2.014-3.1,2.742-7.144.139-10.314C23.561-2.586,10.237-1.7,3.5,8.285" transform="translate(367.754 494.882)" fill="#c7463e"/>
    <path id="Tracé_3369" data-name="Tracé 3369" d="M.247,15.01a9.267,9.267,0,0,0,.964,6.8,12.738,12.738,0,0,0,9.125,11.717c12.3,3.417,23.478-11.353,20.425-23.821C26.863-6.069,3.975-1.41.247,15.01" transform="translate(301.997 512.514)" fill="#c7463e"/>
    <path id="Tracé_3370" data-name="Tracé 3370" d="M14.292.6C7.491,4.043,1.985,9.934.636,18a19.119,19.119,0,0,0-.118,4.477,29.915,29.915,0,0,0-.214,9.8c.964,6.309,7.016,6.641,11.182,3.588,5.548,1.125,11.707-1.457,15.584-7.133,3.706-5.441,4.595-12.606,1.735-17.737a9.9,9.9,0,0,0-5.462-4.777c-.032-.161.032-.311,0-.471C22.614,1.858,18.266-1.387,14.292.6" transform="translate(273.9 592.714)" fill="#c7463e"/>
  </g>
</svg>
