<svg xmlns="http://www.w3.org/2000/svg" xmlns:xlink="http://www.w3.org/1999/xlink" width="652.627" height="616.289" viewBox="0 0 652.627 616.289">
  <defs>
    <clipPath id="clip-path">
      <rect id="Rectangle_2250" data-name="Rectangle 2250" width="652.627" height="616.289" fill="#125d0c"/>
    </clipPath>
  </defs>
  <g id="Groupe_4362" data-name="Groupe 4362" clip-path="url(#clip-path)">
    <path id="Tracé_3459" data-name="Tracé 3459" d="M32.085,3.834c0-.012-.466.812-1.206,2.294-.776,1.481-1.935,3.823-3.321,6.9A219.111,219.111,0,0,0,17.237,41.164,294.2,294.2,0,0,0,7.43,88.038c-.669,4.623-1.111,9.5-1.529,14.478s-.86,10.118-.98,15.445c-.167,5.316-.287,10.787-.311,16.389.108,5.6.287,11.372.585,17.249a383.74,383.74,0,0,0,11.73,75.6q1.254,4.963,2.616,9.986c.908,3.345,1.995,6.677,3.034,10.034q3.207,10.052,6.809,20.248c2.509,6.749,5.28,13.51,8.135,20.3q2.15,5.089,4.408,10.178c1.517,3.4,3.2,6.725,4.85,10.106q5.017,10.088,10.44,20.128c3.655,6.689,7.7,13.224,11.742,19.794q3.064,4.91,6.236,9.8,1.577,2.455,3.189,4.886c1.111,1.6,2.234,3.2,3.357,4.778q6.791,9.532,13.964,18.9c2.4,3.106,4.79,6.224,7.287,9.282q3.817,4.515,7.693,8.983,7.776,8.941,15.911,17.62c2.676,2.927,5.483,5.7,8.326,8.481q4.247,4.139,8.577,8.218c5.746,5.447,11.623,10.775,17.572,15.983q18.2,15.177,37.353,28.872,19.387,13.188,39.4,24.7Q258,519.489,278.4,528.753c3.393,1.577,6.821,3,10.237,4.372s6.833,2.759,10.249,4.061q10.249,3.924,20.439,7.454c3.4,1.171,6.8,2.293,10.166,3.392s6.785,2.031,10.142,2.986q10.142,2.831,20.116,5.268t19.77,4.492c6.534,1.374,13.021,2.317,19.4,3.333q19.172,2.885,37.258,4.42c12.029.86,23.628,1.159,34.749,1.218q8.314.036,16.282-.155c2.64-.06,5.268-.143,7.848-.239,2.58-.131,5.113-.3,7.621-.49,10.022-.741,19.495-1.684,28.335-2.771s17.094-2.329,24.667-3.584c7.538-1.433,14.406-2.9,20.594-4.312,24.715-5.722,38.381-10.273,38.4-10.19-.024-.072-13.654,4.551-38.321,10.4-6.176,1.445-13.056,2.939-20.582,4.432-7.561,1.3-15.792,2.592-24.643,3.739-8.84,1.123-18.3,2.126-28.323,2.927-2.509.215-5.053.382-7.633.549-2.58.1-5.208.2-7.86.275q-7.956.233-16.306.251c-11.121-.012-22.744-.239-34.8-1.015-12.053-.979-24.536-2.377-37.353-4.229-6.4-.956-12.9-1.887-19.459-3.225s-13.164-2.783-19.841-4.384q-10.016-2.365-20.2-5.172c-3.381-.944-6.8-1.852-10.189-2.915-3.4-1.1-6.809-2.21-10.213-3.369q-10.249-3.458-20.558-7.37-5.142-1.953-10.309-4c-3.44-1.35-6.893-2.759-10.3-4.324-13.666-6.14-27.331-12.853-40.877-20.152q-20.1-11.45-39.731-24.608Q177.9,472.2,159.46,457q-9.031-7.848-17.775-15.995-4.372-4.085-8.672-8.23c-2.879-2.8-5.71-5.555-8.433-8.505q-8.242-8.69-16.126-17.655-3.942-4.48-7.788-9.007c-2.532-3.07-4.957-6.224-7.406-9.329q-7.275-9.389-14.167-18.981c-1.135-1.589-2.282-3.2-3.4-4.8-1.1-1.637-2.186-3.261-3.261-4.91-2.138-3.261-4.253-6.558-6.331-9.855-4.109-6.606-8.23-13.176-11.945-19.913S46.91,316.3,43.505,309.53c-1.684-3.392-3.416-6.761-4.957-10.178s-3.046-6.869-4.515-10.285c-2.915-6.833-5.746-13.654-8.326-20.474-2.461-6.845-4.79-13.678-6.976-20.451-1.063-3.393-2.186-6.773-3.118-10.154s-1.828-6.725-2.7-10.082A389.487,389.487,0,0,1,.681,151.289C.358,145.316.143,139.451,0,133.765c.012-5.7.108-11.241.251-16.664.1-5.435.549-10.667.932-15.732.406-5.089.836-10.034,1.493-14.765a297.7,297.7,0,0,1,9.843-47.877,224.95,224.95,0,0,1,10.512-29c1.433-3.237,2.616-5.614,3.464-7.275C27.343.836,27.785,0,27.785,0q2.15,1.935,4.3,3.834" transform="translate(0 -0.006)" fill="#125d0c"/>
    <path id="Tracé_3460" data-name="Tracé 3460" d="M32.27,47.1c.036.824,62.26,16.21,91.454,36.266-.263,1.015-69.3-17.154-91.454-36.266" transform="translate(353.209 515.513)" fill="#125d0c"/>
    <path id="Tracé_3461" data-name="Tracé 3461" d="M23.494,52.319c-.131.358,43.469,10.07,68.483-8.266.024.49-46.4-3.691-68.483,8.266" transform="translate(257.152 478.626)" fill="#125d0c"/>
    <path id="Tracé_3462" data-name="Tracé 3462" d="M13.824,38.455c.048.37,29.911,29.852,34.893,70.108-.538.394-36.84-44.939-34.893-70.108" transform="translate(150.485 420.901)" fill="#125d0c"/>
    <path id="Tracé_3463" data-name="Tracé 3463" d="M42.5,77.2c.334-.012,33.83-26.65,69.009-32.277.143-.155-27.14,24.261-69.009,32.277" transform="translate(465.159 491.706)" fill="#125d0c"/>
    <path id="Tracé_3464" data-name="Tracé 3464" d="M31.205,77.769C31.671,77.84,83.072,49.207,129.9,44c.573.012-47.316,36.183-98.693,33.77" transform="translate(341.553 481.583)" fill="#125d0c"/>
    <path id="Tracé_3465" data-name="Tracé 3465" d="M27.523,46.041c.179.263,38.01,26.376,67.528,66.3-.669.753-58.055-38.2-67.528-66.3" transform="translate(301.251 503.933)" fill="#125d0c"/>
    <path id="Tracé_3466" data-name="Tracé 3466" d="M8.728,28.321C26.98,34.915,40.013,38.809,49.88,55.115,53.69,61.4,57.107,68.028,61,74.084c-11.838-3.966-24.763-8.493-32.563-18.575C20.888,45.773,14.127,34.8,4.487,27.055" transform="translate(49.112 296.123)" fill="#125d0c"/>
    <path id="Tracé_3467" data-name="Tracé 3467" d="M58.618,100.807c-15.911-11.133-27.475-18.288-32.742-36.6-2.031-7.072-3.608-14.358-5.782-21.227,10.381,6.928,21.693,14.669,26.591,26.435,4.742,11.372,8.41,23.736,15.684,33.722" transform="translate(219.938 470.418)" fill="#125d0c"/>
    <path id="Tracé_3468" data-name="Tracé 3468" d="M43.953,67.521C26.824,58.562,14.329,52.864,9.061,37.239c-2.043-6.02-3.572-12.256-5.77-18.109C14.5,24.685,26.68,30.908,31.733,40.871c4.9,9.64,8.577,20.176,16.294,28.5" transform="translate(36.021 209.38)" fill="#125d0c"/>
    <path id="Tracé_3469" data-name="Tracé 3469" d="M11.819,28.187c.239,13.14,7.872,25.408,5.519,38.56C15.666,76.076,9.49,85.824,6.671,95.094,5.416,77.546-2.014,66.783,2.7,48.423a238.259,238.259,0,0,1,8.1-26.555" transform="translate(12.621 239.349)" fill="#125d0c"/>
    <path id="Tracé_3470" data-name="Tracé 3470" d="M44.076,47.723c13.654.3,27.068-1.1,39.528,5.065,13.271,6.558,22.41,18.754,34.606,26.4C98.583,77.61,82.743,74.636,66.342,62.894c-7.6-5.423-14.382-12.375-23.4-15.195" transform="translate(470.008 522.081)" fill="#125d0c"/>
    <path id="Tracé_3471" data-name="Tracé 3471" d="M15.285,34.667c5.148,12.65,11.754,24.417,11.038,38.285C25.558,87.741,18,100.976,15.823,115.2,9.48,96.557,5.932,80.848,10.2,61.126c1.959-9.126,5.662-18.109,4.659-27.51" transform="translate(91.197 367.936)" fill="#125d0c"/>
    <path id="Tracé_3472" data-name="Tracé 3472" d="M116.431,48.678c-15.063-3.727-29.039-7.227-45.4,2.556-7.334,4.384-14.992,9.592-22.039,13.618,15.457,4.384,29.051,2.186,45.6-5.805" transform="translate(536.184 491.262)" fill="#125d0c"/>
  </g>
</svg>
