<svg xmlns="http://www.w3.org/2000/svg" xmlns:xlink="http://www.w3.org/1999/xlink" width="1486.496" height="1486.496" viewBox="0 0 1486.496 1486.496">
  <defs>
    <clipPath id="clip-path">
      <rect id="Rectangle_2251" data-name="Rectangle 2251" width="843.301" height="1258.922" fill="none"/>
    </clipPath>
  </defs>
  <g id="Groupe_4365" data-name="Groupe 4365" transform="translate(0 596.304) rotate(-45)">
    <g id="Groupe_4364" data-name="Groupe 4364" transform="translate(0 0)" clip-path="url(#clip-path)">
      <path id="Tracé_3473" data-name="Tracé 3473" d="M13.473,0C43.079,108.173,72.981,216.3,108.53,322.457c17.577,53.042,36.058,106.1,60.637,155.835a149.048,149.048,0,0,0,9.784,18.212c3.642,5.817,6.593,12.014,10.829,17.535l12.184,16.829L214.98,547.2c17.549,21.671,36.1,42.651,54.665,63.658,37.2,41.931,74.628,83.9,109.006,128.46,34.166,44.542,66.242,91.556,87.843,143.877,5.054,13.186,10.673,26.175,13.822,40.011,1.765,6.847,3.953,13.6,5.365,20.5l3.078,21.008c2.471,14.005,2.682,27.94,4.122,41.917l4.024,41.832c6.127,55.625,12.593,111.589,26.655,165.789l-1.073.339c-14.852-54.256-22.052-110.107-28.942-165.746l-4.6-41.846c-1.609-13.892-2.047-28.109-4.659-41.719L480.993,944.7c-1.482-6.777-3.727-13.384-5.548-20.09-3.261-13.553-9.007-26.288-14.146-39.22-21.784-51.361-54.03-97.655-88.436-141.562-34.6-43.935-72.3-85.372-109.937-126.95C244.078,596.093,225.2,575.3,207.173,553.6l-13.412-16.391-12.706-17.069c-4.362-5.591-7.61-12.085-11.478-18.085a157.314,157.314,0,0,1-10.349-18.692c-25.173-50.853-43.681-104.078-61.414-157.4Q47.2,165.139,12.372.254Z" transform="translate(162.297 0.004)" fill="#486b4f"/>
      <path id="Tracé_3474" data-name="Tracé 3474" d="M368.263,222.945c-6.057-34.053-26.627-64.7-54.383-84.426-13.807-10.207-29.9-16.532-46.039-21.855-16.532-4.546-33.3-6.763-50.543-8.344-34.448-3.233-68.939-7.892-102.638-17.041-16.829-4.532-33.5-10.038-49.47-17.7C49.561,65.6,33.142,56.888,22.963,39.254L33.1,34.3c6.791,13.045,21.911,22.843,36.5,30.453,14.951,7.68,31.046,13.525,47.38,18.4C149.7,93,183.768,98.593,217.877,102.729c17.111,2.033,34.547,4.786,51.206,9.9,16.391,5.887,32.641,12.833,46.448,23.62,27.8,20.909,47.606,52.477,52.731,86.7" transform="translate(301.23 449.941)" fill="#486b4f"/>
      <path id="Tracé_3475" data-name="Tracé 3475" d="M282.435,64.428C264.943,52,244.006,45.637,223.154,42.319c-20.98-3.162-42.368-2.3-63.235.861-20.98,2.8-41.225,9.431-61.1,16.391-9.784,4-19.483,8.245-29.14,12.466l-28.151,14.6L36.2,76.682,65.624,63.044C75.718,59.133,85.8,55.237,95.978,51.609c20.7-6.254,41.606-12.1,63.221-14.019,21.431-2.3,43.272-2.2,64.449,1.948,20.994,4.306,41.86,11.69,58.788,24.89" transform="translate(474.9 473.334)" fill="#486b4f"/>
      <path id="Tracé_3476" data-name="Tracé 3476" d="M141.638,573.766c-6.48-45.644-23.563-90.313-52.364-126.23C74.859,429,65.965,406.834,60.3,384.288c-5.45-22.688-7.934-45.968-8.5-69.221a402.712,402.712,0,0,1,4.264-69.687c1.609-11.661,4.617-22.984,5.266-33.926a197.783,197.783,0,0,0-1.087-33.912C55.066,132.21,42.232,87.484,27.479,44.254l10.645-3.727c14.146,44.43,26.118,89.48,30.537,136.211a206.219,206.219,0,0,1,.4,35.323C68.026,224.2,64.765,235.3,63.028,246.5a397.1,397.1,0,0,0-5.591,68.487C57.9,360.344,64.257,408.416,91.49,445.8c28.42,36.975,44.6,82.21,50.147,127.966" transform="translate(360.471 531.64)" fill="#486b4f"/>
      <path id="Tracé_3477" data-name="Tracé 3477" d="M158.673,163.015a142.54,142.54,0,0,0-31.455-27.587A153.248,153.248,0,0,0,89.833,117.4c-13.511-4.433-26.895-11.054-37.667-20.725C41.549,86.947,32.853,74.707,29.422,60.843c5.633,12.989,14.866,23.888,25.54,32.528a109.3,109.3,0,0,0,36.665,18.678c13.511,4.843,26.613,11.167,38.062,19.836,11.436,8.584,21.784,18.862,28.984,31.13" transform="translate(385.96 798.147)" fill="#486b4f"/>
      <path id="Tracé_3478" data-name="Tracé 3478" d="M49.846,174.03a143.808,143.808,0,0,1-13.4-64.788c.9-11.139,2.654-22.6,8.1-32.712A55.186,55.186,0,0,1,68.1,53.179,66.888,66.888,0,0,0,48.463,78.394c-4.278,9.727-5.944,20.457-6.381,31.116-.819,10.7.169,21.544,1.609,32.3a316.483,316.483,0,0,0,6.155,32.217" transform="translate(477.209 697.61)" fill="#486b4f"/>
      <path id="Tracé_3479" data-name="Tracé 3479" d="M62.359,310.618a123.765,123.765,0,0,1-22.335-63.475A122.111,122.111,0,0,1,43.2,212.992,147.625,147.625,0,0,1,55.78,181.1c10.5-20.2,24.678-38.218,38.345-55.851,6.72-8.852,12.96-18.156,15.8-28.787,3.162-10.574,1.864-22.095-.918-32.937,3.628,10.546,6,22.137,3.6,33.559-2.414,11.379-8.584,21.431-14.965,30.707C84.5,146.2,70.675,163.734,60.75,183.725a142.724,142.724,0,0,0-12.593,30.523,137.1,137.1,0,0,0-3.826,32.726,135.74,135.74,0,0,0,18.029,63.644" transform="translate(522.566 833.316)" fill="#486b4f"/>
      <path id="Tracé_3480" data-name="Tracé 3480" d="M143.176,148.539A90.233,90.233,0,0,0,95.7,108.288c-9.643-3.191-21.318-6.946-29.761-14.132C57.211,87.252,50,78.386,46,68.193a81.288,81.288,0,0,0,22.49,22.462c8.88,6.17,18.212,9.177,29.168,12.353a84.1,84.1,0,0,1,28.067,17.817c7.807,7.878,14.259,17.224,17.45,27.714" transform="translate(603.444 894.565)" fill="#486b4f"/>
      <path id="Tracé_3481" data-name="Tracé 3481" d="M296.52,350.809a431.688,431.688,0,0,0-22.942-104.657c-11.845-33.728-28.335-65.96-50.176-94.168-21.756-28.194-49.554-51.856-81.475-67.428C110.147,68.533,74.584,61.332,39.218,59.624l.254-5.633c36,2.2,72.186,10.038,104.347,26.782,32.33,16.306,60.228,40.731,81.814,69.489,21.7,28.8,37.836,61.428,49.272,95.424A431.391,431.391,0,0,1,296.52,350.809" transform="translate(514.464 708.262)" fill="#486b4f"/>
      <path id="Tracé_3482" data-name="Tracé 3482" d="M63.208,186.68a307.991,307.991,0,0,1-14.669-65,134.485,134.485,0,0,1,.466-33.672c1.737-11.04,5.817-22.956,15.629-30.622L68.008,61.9C59.622,67.82,55.231,78.3,53.156,88.785a131.975,131.975,0,0,0-1.807,32.669A307.4,307.4,0,0,0,63.208,186.68" transform="translate(625.867 752.811)" fill="#486b4f"/>
      <path id="Tracé_3483" data-name="Tracé 3483" d="M187.513,115.731c-4.842-12.932-13.6-24.1-24.029-32.867-10.5-8.8-23.027-14.838-36.086-18.593-13.031-4.108-26.838-4.659-40.392-4.97Q76.8,59.831,66.62,60.713L46.432,63.974,45.4,58.44,66.126,55.8q10.44-.53,20.895-.734c13.892.791,27.968,1.849,41.2,6.508C141.46,65.866,154.054,72.5,164.4,81.806c10.292,9.247,18.706,20.824,23.111,33.926" transform="translate(595.573 722.364)" fill="#486b4f"/>
      <path id="Tracé_3484" data-name="Tracé 3484" d="M83.087,415.476A266.814,266.814,0,0,1,29.24,327.464c-5.9-16.349-10.264-33.4-11.817-50.867-1.355-8.683-.847-17.506-1.129-26.274.9-8.7,1.087-17.7,2.739-26.147,4.885-34.335,14.3-68.233,25.455-100.492,5.577-16.137,10.151-32.33,12.17-48.947,2.1-16.645.819-33.686-1.765-50.684l1.087-.282a142.81,142.81,0,0,1,8.527,51.5c-.424,17.732-4.715,35.041-9.247,51.714-9.869,33.163-21.3,65.042-27.333,98.714-1.92,8.386-2.3,16.659-3.473,25.031.028,8.372-.776,16.829.268,25.215.932,16.857,4.617,33.53,9.84,49.681a263.715,263.715,0,0,0,49.343,89.085Z" transform="translate(213.746 311.821)" fill="#486b4f"/>
      <path id="Tracé_3485" data-name="Tracé 3485" d="M114.732,153.629A274.671,274.671,0,0,0,74.016,91.82C57.78,73.41,38.438,57.725,16.555,48.336l4.73-10.221C44.452,50.2,63.215,68.229,78.378,88.248a277.652,277.652,0,0,1,36.354,65.381" transform="translate(217.17 499.999)" fill="#486b4f"/>
      <path id="Tracé_3486" data-name="Tracé 3486" d="M13.2,281.9a210.463,210.463,0,0,1-2.654-75c3.544-24.961,11.7-49.512,25.017-71.282,13.031-21.925,31.893-40.166,51.87-55.5,19.681-15.276,39.036-31.3,56.938-48.227l7.708,8.231C132.888,56.96,112.954,72.179,92.482,86.918c-20.245,14.4-38.627,30.89-52.166,51.729-13.666,20.556-22.575,44.218-26.98,68.7A209.334,209.334,0,0,0,13.2,281.9" transform="translate(109.914 418.471)" fill="#486b4f"/>
      <path id="Tracé_3487" data-name="Tracé 3487" d="M2.249,91.439c1.892-12,9.177-22.843,18.551-30.566a86.937,86.937,0,0,1,32.57-16.419c5.831-1.864,11.916-2.739,17.916-3.981,6.071-.579,12.142-1.609,18.241-1.821,12.226-.706,24.424-.212,36.622.438l-.522,5.619c-11.958-1.1-23.93-2.061-35.93-1.821-6-.028-11.958.748-17.944,1.073-5.873.988-11.887,1.624-17.648,3.219a84.694,84.694,0,0,0-32.415,14.8C12.216,69.161,4.621,79.523,2.249,91.439" transform="translate(29.503 502.512)" fill="#486b4f"/>
      <path id="Tracé_3488" data-name="Tracé 3488" d="M31.254,316.4a199.287,199.287,0,0,1-8.3-72.694c1.948-24.481,8.4-49.032,20.994-70.59,3.445-5.153,6.48-10.687,10.32-15.558l11.69-14.4c7.624-9.247,14.866-19.074,21.756-29.027,13.765-19.963,26.57-40.773,38.373-61.851l9.784,5.6c-12.9,21.092-26.542,41.451-41.3,61.188-7.412,9.854-15.05,19.455-23.337,28.758l-11.958,13.61c-3.9,4.56-6.96,9.727-10.5,14.57C35.857,196.3,28.6,219.93,25.762,243.959a197.919,197.919,0,0,0,5.492,72.44" transform="translate(294.944 685.791)" fill="#486b4f"/>
      <path id="Tracé_3489" data-name="Tracé 3489" d="M14.677,116.362c-.056-15.248,11.1-28.137,23.492-36.128,12.706-8.259,27.347-12.593,41.917-15.967a278.789,278.789,0,0,1,44.571-5.21c14.965-.875,29.874-.254,44.825.1l-.9,11.238c-14.57-1.271-29.168-2.81-43.794-2.88a270.471,270.471,0,0,0-43.7,2.3c-14.3,2.372-28.744,5.661-41.451,12.833-12.367,6.946-24,18.537-24.961,33.714" transform="translate(192.534 768.859)" fill="#486b4f"/>
      <path id="Tracé_3490" data-name="Tracé 3490" d="M37.241,70.562S32.6,46.759,66.8,35.62c-4.024,29.7-29.563,34.942-29.563,34.942" transform="translate(485.749 467.27)" fill="#c49a3b"/>
      <path id="Tracé_3491" data-name="Tracé 3491" d="M43.758,75.748S31.475,54.3,60.05,33.718c6.057,29.634-16.292,42.03-16.292,42.03" transform="translate(539.587 442.319)" fill="#c49a3b"/>
      <path id="Tracé_3492" data-name="Tracé 3492" d="M42.285,37.73s25.751.071,32.824,33.7C44.3,62.267,42.285,37.73,42.285,37.73" transform="translate(554.698 494.949)" fill="#c49a3b"/>
      <path id="Tracé_3493" data-name="Tracé 3493" d="M43.962,51.135S58.207,31.4,91.639,45.827c-25.031,18.241-47.677,5.308-47.677,5.308" transform="translate(576.697 531.945)" fill="#c49a3b"/>
      <path id="Tracé_3494" data-name="Tracé 3494" d="M46.208,53.771S60.467,34.048,93.9,48.491c-25.045,18.255-47.691,5.28-47.691,5.28" transform="translate(606.16 566.75)" fill="#c49a3b"/>
      <path id="Tracé_3495" data-name="Tracé 3495" d="M47.469,46.66s25.2-4.391,38.782,27.587C54.3,70.534,47.469,46.66,47.469,46.66" transform="translate(622.702 609.425)" fill="#c49a3b"/>
      <path id="Tracé_3496" data-name="Tracé 3496" d="M54.76,52.139S65.6,74.191,35.672,93.053C31.578,63.179,54.76,52.139,54.76,52.139" transform="translate(461.594 683.967)" fill="#c49a3b"/>
      <path id="Tracé_3497" data-name="Tracé 3497" d="M30.377,52.248S53.7,42.578,74.637,70.983c-31.822,3.191-44.26-18.735-44.26-18.735" transform="translate(398.488 664.587)" fill="#c49a3b"/>
      <path id="Tracé_3498" data-name="Tracé 3498" d="M48.825,45.263S60.359,67.047,31.036,86.728C26.024,56.967,48.825,45.263,48.825,45.263" transform="translate(397.688 593.767)" fill="#c49a3b"/>
      <path id="Tracé_3499" data-name="Tracé 3499" d="M29.511,56.709s24.777-6.014,40.646,25.06c-32.1-1.652-40.646-25.06-40.646-25.06" transform="translate(387.127 737.775)" fill="#c49a3b"/>
      <path id="Tracé_3500" data-name="Tracé 3500" d="M67.979,62.793S62.346,86.144,25.893,83.758c16.151-25.6,42.086-20.965,42.086-20.965" transform="translate(339.666 819.436)" fill="#c49a3b"/>
      <path id="Tracé_3501" data-name="Tracé 3501" d="M48.782,63.8s9.473,22.617-21.643,39.757C24.923,73.575,48.782,63.8,48.782,63.8" transform="translate(354.105 837.003)" fill="#c49a3b"/>
      <path id="Tracé_3502" data-name="Tracé 3502" d="M38,59.547s9.473,22.617-21.671,39.771C14.124,69.3,38,59.547,38,59.547" transform="translate(212.288 781.146)" fill="#c49a3b"/>
      <path id="Tracé_3503" data-name="Tracé 3503" d="M35.463,61.682s9.473,22.6-21.643,39.757C11.589,71.423,35.463,61.682,35.463,61.682" transform="translate(179.358 809.153)" fill="#c49a3b"/>
      <path id="Tracé_3504" data-name="Tracé 3504" d="M23.594,62.651s25.314,4.984,24.918,39.079C20.22,86.934,23.594,62.651,23.594,62.651" transform="translate(307.87 821.864)" fill="#c49a3b"/>
      <path id="Tracé_3505" data-name="Tracé 3505" d="M22.761,70.2s25.3,4.956,24.932,39.107C19.387,94.5,22.761,70.2,22.761,70.2" transform="translate(296.943 920.906)" fill="#c49a3b"/>
      <path id="Tracé_3506" data-name="Tracé 3506" d="M18.932,56.357s25.285,5,24.918,39.121C15.529,80.668,18.932,56.357,18.932,56.357" transform="translate(246.672 739.299)" fill="#c49a3b"/>
      <path id="Tracé_3507" data-name="Tracé 3507" d="M13.558,60.247S36.542,49.9,58.369,77.768c-31.709,4.08-44.811-17.52-44.811-17.52" transform="translate(177.855 765.678)" fill="#c49a3b"/>
      <path id="Tracé_3508" data-name="Tracé 3508" d="M44.175,59.1S52.744,81.97,20.95,98.022C19.906,67.993,44.175,59.1,44.175,59.1" transform="translate(274.4 775.269)" fill="#c49a3b"/>
      <path id="Tracé_3509" data-name="Tracé 3509" d="M26.147,52.406S50.91,46.42,66.765,77.494C34.7,75.828,26.147,52.406,26.147,52.406" transform="translate(342.998 681.399)" fill="#c49a3b"/>
      <path id="Tracé_3510" data-name="Tracé 3510" d="M18.4,47.177s24.749-6,40.632,25.088C26.931,70.628,18.4,47.177,18.4,47.177" transform="translate(241.425 612.776)" fill="#c49a3b"/>
      <path id="Tracé_3511" data-name="Tracé 3511" d="M37.341,45.051S50.852,65.833,23.576,87.9C15.769,58.59,37.341,45.051,37.341,45.051" transform="translate(286.937 590.986)" fill="#c49a3b"/>
      <path id="Tracé_3512" data-name="Tracé 3512" d="M25.031,60.854s18.142-16.673,48.086,3.5c-28.448,13.257-48.086-3.5-48.086-3.5" transform="translate(328.358 713.385)" fill="#c49a3b"/>
      <path id="Tracé_3513" data-name="Tracé 3513" d="M26.9,80.84S22.564,57.009,56.914,46.279C52.495,75.941,26.9,80.84,26.9,80.84" transform="translate(350.548 607.095)" fill="#c49a3b"/>
      <path id="Tracé_3514" data-name="Tracé 3514" d="M19.594,77.626s-4.348-23.8,30.029-34.547C45.2,72.741,19.594,77.626,19.594,77.626" transform="translate(254.706 565.117)" fill="#c49a3b"/>
      <path id="Tracé_3515" data-name="Tracé 3515" d="M17.843,75.349S13.494,51.532,47.872,40.8C43.453,70.45,17.843,75.349,17.843,75.349" transform="translate(231.736 535.248)" fill="#c49a3b"/>
      <path id="Tracé_3516" data-name="Tracé 3516" d="M34.124,95.1S11.677,82.8,23.8,50.884C45.715,73.318,34.124,95.1,34.124,95.1" transform="translate(265.108 667.504)" fill="#c49a3b"/>
      <path id="Tracé_3517" data-name="Tracé 3517" d="M17.627,84.01s-4.362-23.817,30-34.533c-4.391,29.634-30,34.533-30,34.533" transform="translate(228.888 649.047)" fill="#c49a3b"/>
      <path id="Tracé_3518" data-name="Tracé 3518" d="M36.649,56.514s25.469,4.094,26.457,38.218C34.22,80.924,36.649,56.514,36.649,56.514" transform="translate(480.101 741.359)" fill="#c49a3b"/>
      <path id="Tracé_3519" data-name="Tracé 3519" d="M37.22,60.611s25.455,4.122,26.429,38.232C34.806,85.035,37.22,60.611,37.22,60.611" transform="translate(487.605 795.104)" fill="#c49a3b"/>
      <path id="Tracé_3520" data-name="Tracé 3520" d="M48.018,59.729S73.5,63.851,74.476,97.989c-28.857-13.822-26.457-38.26-26.457-38.26" transform="translate(629.268 783.533)" fill="#c49a3b"/>
      <path id="Tracé_3521" data-name="Tracé 3521" d="M48.019,63.454S73.488,67.576,74.448,101.7C45.59,87.878,48.019,63.454,48.019,63.454" transform="translate(629.253 832.398)" fill="#c49a3b"/>
      <path id="Tracé_3522" data-name="Tracé 3522" d="M81.91,64.721S81.6,88.764,45.584,93.494C55.65,65.2,81.91,64.721,81.91,64.721" transform="translate(597.974 849.019)" fill="#c49a3b"/>
      <path id="Tracé_3523" data-name="Tracé 3523" d="M53.209,65.567s20.81,14.626,4.814,44.924C38.964,85.9,53.209,65.567,53.209,65.567" transform="translate(630.911 860.117)" fill="#c49a3b"/>
      <path id="Tracé_3524" data-name="Tracé 3524" d="M86.824,59.752S81.36,83.117,44.879,80.943c16.01-25.667,41.945-21.191,41.945-21.191" transform="translate(588.726 779.91)" fill="#c49a3b"/>
      <path id="Tracé_3525" data-name="Tracé 3525" d="M52.864,59.52s12.085,21.5-16.7,41.86c-5.788-29.648,16.7-41.86,16.7-41.86" transform="translate(461.881 780.792)" fill="#c49a3b"/>
      <path id="Tracé_3526" data-name="Tracé 3526" d="M48.419,47.481S72.9,55.5,67.761,89.143c-26.1-18.085-19.342-41.662-19.342-41.662" transform="translate(624.829 622.863)" fill="#c49a3b"/>
      <path id="Tracé_3527" data-name="Tracé 3527" d="M71.363,46.595S77.97,70,44.849,83.627c1.525-29.959,26.514-37.032,26.514-37.032" transform="translate(588.332 611.241)" fill="#c49a3b"/>
      <path id="Tracé_3528" data-name="Tracé 3528" d="M56.79,43.215S72.038,62.938,46.851,87.08C36.531,58.42,56.79,43.215,56.79,43.215" transform="translate(576.165 566.902)" fill="#c49a3b"/>
      <path id="Tracé_3529" data-name="Tracé 3529" d="M54.823,41.482S70.1,61.2,44.884,85.347c-10.32-28.66,9.939-43.865,9.939-43.865" transform="translate(550.362 544.168)" fill="#c49a3b"/>
      <path id="Tracé_3530" data-name="Tracé 3530" d="M42.276,47.548S48.9,70.956,15.819,84.566C17.3,54.593,42.276,47.548,42.276,47.548" transform="translate(207.515 623.742)" fill="#c49a3b"/>
      <path id="Tracé_3531" data-name="Tracé 3531" d="M27.745,44.165S43.007,63.9,17.834,88.016C7.486,59.37,27.745,44.165,27.745,44.165" transform="translate(195.334 579.364)" fill="#c49a3b"/>
      <path id="Tracé_3532" data-name="Tracé 3532" d="M25.784,42.434s15.262,19.723-9.911,43.851c-10.363-28.66,9.911-43.851,9.911-43.851" transform="translate(169.539 556.656)" fill="#c49a3b"/>
      <path id="Tracé_3533" data-name="Tracé 3533" d="M26.8,35.569S42.08,55.292,16.879,79.406C6.544,50.774,26.8,35.569,26.8,35.569" transform="translate(182.892 466.601)" fill="#c49a3b"/>
      <path id="Tracé_3534" data-name="Tracé 3534" d="M49.422,60.284s-25.06,4.984-39.5-26.7c32.048,2.979,39.5,26.7,39.5,26.7" transform="translate(130.131 440.601)" fill="#c49a3b"/>
      <path id="Tracé_3535" data-name="Tracé 3535" d="M54.9,49.676S33.356,62.382,8.367,36.956C39.314,29.544,54.9,49.676,54.9,49.676" transform="translate(109.759 463.294)" fill="#c49a3b"/>
      <path id="Tracé_3536" data-name="Tracé 3536" d="M60.316,45.7S38.772,58.39,13.783,32.949C44.716,25.566,60.316,45.7,60.316,45.7" transform="translate(180.806 410.885)" fill="#c49a3b"/>
      <path id="Tracé_3537" data-name="Tracé 3537" d="M62.018,41.105s-21.544,12.706-46.5-12.72c30.9-7.384,46.5,12.72,46.5,12.72" transform="translate(203.501 350.986)" fill="#c49a3b"/>
      <path id="Tracé_3538" data-name="Tracé 3538" d="M51.557,68.23s-25.723.226-33.22-33.347c30.9,8.824,33.22,33.347,33.22,33.347" transform="translate(240.546 457.602)" fill="#c49a3b"/>
      <path id="Tracé_3539" data-name="Tracé 3539" d="M65.763,43.44S46.7,59.167,17.889,37.581C47.1,25.736,65.763,43.44,65.763,43.44" transform="translate(234.669 439.445)" fill="#c49a3b"/>
      <path id="Tracé_3540" data-name="Tracé 3540" d="M32.123,33.218s19.37,16.278.438,45.037c-16.631-26.062-.438-45.037-.438-45.037" transform="translate(328.664 435.76)" fill="#c49a3b"/>
      <path id="Tracé_3541" data-name="Tracé 3541" d="M30.754,31.444s19.37,16.306.438,45.037c-16.617-26.048-.438-45.037-.438-45.037" transform="translate(310.777 412.489)" fill="#c49a3b"/>
      <path id="Tracé_3542" data-name="Tracé 3542" d="M66.245,35.388S64.437,59.36,28.154,62.071C40.013,34.428,66.245,35.388,66.245,35.388" transform="translate(369.326 464.17)" fill="#c49a3b"/>
      <path id="Tracé_3543" data-name="Tracé 3543" d="M59.312,39.754S57.5,63.74,21.207,66.465c11.831-27.657,38.1-26.711,38.1-26.711" transform="translate(278.195 521.444)" fill="#c49a3b"/>
      <path id="Tracé_3544" data-name="Tracé 3544" d="M65.1,62.905S41.327,71.63,21.689,42.42C53.681,40.542,65.1,62.905,65.1,62.905" transform="translate(284.518 555.004)" fill="#c49a3b"/>
      <path id="Tracé_3545" data-name="Tracé 3545" d="M52.877,41.227S68.139,60.95,42.966,85.078c-10.349-28.646,9.911-43.851,9.911-43.851" transform="translate(525.018 540.823)" fill="#c49a3b"/>
      <path id="Tracé_3546" data-name="Tracé 3546" d="M36.242,40.044S61.287,46.185,59.1,80.182C31.569,64.1,36.242,40.044,36.242,40.044" transform="translate(471.486 525.304)" fill="#c49a3b"/>
      <path id="Tracé_3547" data-name="Tracé 3547" d="M29.088,38.208S54.12,44.349,51.931,78.374c-27.5-16.095-22.843-40.166-22.843-40.166" transform="translate(377.667 501.219)" fill="#c49a3b"/>
      <path id="Tracé_3548" data-name="Tracé 3548" d="M30.978,45.623s22.7-10.829,45.178,16.546c-31.54,4.758-45.178-16.546-45.178-16.546" transform="translate(406.372 570.776)" fill="#c49a3b"/>
      <path id="Tracé_3549" data-name="Tracé 3549" d="M35.015,78.121S32.785,54.078,68.051,46.073C61.021,75.227,35.015,78.121,35.015,78.121" transform="translate(458.962 604.393)" fill="#c49a3b"/>
      <path id="Tracé_3550" data-name="Tracé 3550" d="M36.168,61.057s12.085-21.008,46.773-9.685C60,71.886,36.168,61.057,36.168,61.057" transform="translate(474.454 629.956)" fill="#c49a3b"/>
      <path id="Tracé_3551" data-name="Tracé 3551" d="M41.551,66.4s12.071-20.994,46.773-9.657C65.4,77.219,41.551,66.4,41.551,66.4" transform="translate(545.069 700.366)" fill="#c49a3b"/>
      <path id="Tracé_3552" data-name="Tracé 3552" d="M55.162,96.105s-16.264-19,7.6-44.288c11.831,28.194-7.6,44.288-7.6,44.288" transform="translate(652.619 679.743)" fill="#c49a3b"/>
      <path id="Tracé_3553" data-name="Tracé 3553" d="M50.153,71.888s7.723-22.8,43.907-17.549C75.622,78.509,50.153,71.888,50.153,71.888" transform="translate(657.911 702.521)" fill="#c49a3b"/>
      <path id="Tracé_3554" data-name="Tracé 3554" d="M53.638,73.631s7.708-22.815,43.879-17.549C79.093,80.238,53.638,73.631,53.638,73.631" transform="translate(703.627 725.343)" fill="#c49a3b"/>
      <path id="Tracé_3555" data-name="Tracé 3555" d="M55.4,59.031s25.709-.889,34.137,32.514C58.409,83.484,55.4,59.031,55.4,59.031" transform="translate(726.767 774.349)" fill="#c49a3b"/>
      <path id="Tracé_3556" data-name="Tracé 3556" d="M55.264,72.209s10.419-21.77,45.855-12.749c-21.3,22-45.855,12.749-45.855,12.749" transform="translate(724.957 751.288)" fill="#c49a3b"/>
      <path id="Tracé_3557" data-name="Tracé 3557" d="M56.949,56.315s21.248,14.076,6.141,44.8c-19.765-24.114-6.141-44.8-6.141-44.8" transform="translate(687.031 738.748)" fill="#c49a3b"/>
      <path id="Tracé_3558" data-name="Tracé 3558" d="M54.609,67.466s21.05-13.412,46.943,11.224C70.929,87.076,54.609,67.466,54.609,67.466" transform="translate(716.365 837.224)" fill="#c49a3b"/>
      <path id="Tracé_3559" data-name="Tracé 3559" d="M56.318,68.241s25.751.593,32.006,34.378c-30.58-9.826-32.006-34.378-32.006-34.378" transform="translate(738.784 895.194)" fill="#c49a3b"/>
      <path id="Tracé_3560" data-name="Tracé 3560" d="M57.465,74.078s25.737.607,32.006,34.349c-30.608-9.8-32.006-34.349-32.006-34.349" transform="translate(753.83 971.765)" fill="#c49a3b"/>
      <path id="Tracé_3561" data-name="Tracé 3561" d="M70.486,69.9s13.864,20.584-13.017,43.06C49.168,83.775,70.486,69.9,70.486,69.9" transform="translate(728.71 916.918)" fill="#c49a3b"/>
      <path id="Tracé_3562" data-name="Tracé 3562" d="M64.06,71.208s13.878,20.6-13,43.1c-8.316-29.21,13-43.1,13-43.1" transform="translate(644.526 934.116)" fill="#c49a3b"/>
      <path id="Tracé_3563" data-name="Tracé 3563" d="M65.992,72.736s13.892,20.584-13,43.088c-8.3-29.21,13-43.088,13-43.088" transform="translate(669.927 954.16)" fill="#c49a3b"/>
      <path id="Tracé_3564" data-name="Tracé 3564" d="M52.649,73.146s25.144,5.845,23.45,39.883c-27.756-15.742-23.45-39.883-23.45-39.883" transform="translate(687.49 959.539)" fill="#c49a3b"/>
      <path id="Tracé_3565" data-name="Tracé 3565" d="M50.486,78.728S67.061,60.657,98.6,78.5c-27.121,15.417-48.114.226-48.114.226" transform="translate(662.279 926.525)" fill="#c49a3b"/>
      <path id="Tracé_3566" data-name="Tracé 3566" d="M46.863,85.777s16.6-18.071,48.143-.24c-27.121,15.459-48.143.24-48.143.24" transform="translate(614.752 1018.938)" fill="#c49a3b"/>
      <path id="Tracé_3567" data-name="Tracé 3567" d="M47.579,80.741s24.269-7.426,42.142,22.744c-32.076.183-42.142-22.744-42.142-22.744" transform="translate(624.145 1048.568)" fill="#c49a3b"/>
      <path id="Tracé_3568" data-name="Tracé 3568" d="M48.493,85.406s24.283-7.454,42.157,22.716c-32.076.183-42.157-22.716-42.157-22.716" transform="translate(636.135 1109.665)" fill="#c49a3b"/>
      <path id="Tracé_3569" data-name="Tracé 3569" d="M70.3,82.308s8,23.055-24.2,38.4c-.282-30.029,24.2-38.4,24.2-38.4" transform="translate(604.793 1079.726)" fill="#c49a3b"/>
      <path id="Tracé_3570" data-name="Tracé 3570" d="M69.751,79.628s8.033,23.055-24.17,38.4c-.3-30.029,24.17-38.4,24.17-38.4" transform="translate(597.893 1044.57)" fill="#c49a3b"/>
      <path id="Tracé_3571" data-name="Tracé 3571" d="M42.764,72.817s23.267,10.829,13.567,43.54c-23.478-21.008-13.567-43.54-13.567-43.54" transform="translate(533.733 955.223)" fill="#c49a3b"/>
      <path id="Tracé_3572" data-name="Tracé 3572" d="M44.831,69.8s23.267,10.843,13.6,43.526C34.92,92.333,44.831,69.8,44.831,69.8" transform="translate(560.89 915.659)" fill="#c49a3b"/>
      <path id="Tracé_3573" data-name="Tracé 3573" d="M37.03,65.569s23.252,10.829,13.6,43.512C27.1,88.087,37.03,65.569,37.03,65.569" transform="translate(458.486 860.143)" fill="#c49a3b"/>
      <path id="Tracé_3574" data-name="Tracé 3574" d="M37.742,93.274S38,69.2,74,64.431C63.988,92.752,37.742,93.274,37.742,93.274" transform="translate(495.102 845.215)" fill="#c49a3b"/>
      <path id="Tracé_3575" data-name="Tracé 3575" d="M49.123,113.2s-20.937-14.485-5.2-44.91c19.257,24.467,5.2,44.91,5.2,44.91" transform="translate(499.322 895.798)" fill="#c49a3b"/>
      <path id="Tracé_3576" data-name="Tracé 3576" d="M82.869,80.5s-16.518,18.071-48.114.31c27.107-15.488,48.114-.31,48.114-.31" transform="translate(455.919 968.704)" fill="#c49a3b"/>
      <path id="Tracé_3577" data-name="Tracé 3577" d="M72.015,74.212s-16.546,18.071-48.143.325c27.093-15.5,48.143-.325,48.143-.325" transform="translate(313.155 886.287)" fill="#c49a3b"/>
      <path id="Tracé_3578" data-name="Tracé 3578" d="M66.206,71.78s-16.546,18.071-48.143.282c27.121-15.473,48.143-.282,48.143-.282" transform="translate(236.952 854.143)" fill="#c49a3b"/>
      <path id="Tracé_3579" data-name="Tracé 3579" d="M50.909,70.679s10.814,22.067-19.116,40.886c-4.066-29.86,19.116-40.886,19.116-40.886" transform="translate(410.794 927.176)" fill="#c49a3b"/>
      <path id="Tracé_3580" data-name="Tracé 3580" d="M49.3,68.443s10.8,22.081-19.13,40.914C26.1,79.483,49.3,68.443,49.3,68.443" transform="translate(389.503 897.844)" fill="#c49a3b"/>
      <path id="Tracé_3581" data-name="Tracé 3581" d="M40.545,66.409s10.829,22.067-19.116,40.886c-4.052-29.86,19.116-40.886,19.116-40.886" transform="translate(274.867 871.162)" fill="#c49a3b"/>
      <path id="Tracé_3582" data-name="Tracé 3582" d="M52.7,74.782S63.533,96.849,33.575,115.7C29.523,85.808,52.7,74.782,52.7,74.782" transform="translate(434.199 981)" fill="#c49a3b"/>
      <path id="Tracé_3583" data-name="Tracé 3583" d="M41.073,77.993S61.291,93.339,44.024,123C26,97.758,41.073,77.993,41.073,77.993" transform="translate(461.332 1023.122)" fill="#c49a3b"/>
      <path id="Tracé_3584" data-name="Tracé 3584" d="M59.61,78.249s6.875,23.365-26.048,37.258C34.734,85.548,59.61,78.249,59.61,78.249" transform="translate(440.269 1026.48)" fill="#c49a3b"/>
      <path id="Tracé_3585" data-name="Tracé 3585" d="M40.18,79.065s23.8-8.626,43.314,20.641C51.5,101.5,40.18,79.065,40.18,79.065" transform="translate(527.084 1021.626)" fill="#c49a3b"/>
      <path id="Tracé_3586" data-name="Tracé 3586" d="M42.575,80.1s23.718,9.883,15.572,42.976C33.737,103.03,42.575,80.1,42.575,80.1" transform="translate(538.045 1050.788)" fill="#c49a3b"/>
      <path id="Tracé_3587" data-name="Tracé 3587" d="M54.138,78.147S67.9,98.816,40.924,121.165c-8.16-29.21,13.214-43.018,13.214-43.018" transform="translate(512.477 1025.142)" fill="#c49a3b"/>
      <path id="Tracé_3588" data-name="Tracé 3588" d="M76.529,66.324s8.7,22.843-22.984,39.065C52.331,75.345,76.529,66.324,76.529,66.324" transform="translate(701.828 870.047)" fill="#c49a3b"/>
      <path id="Tracé_3589" data-name="Tracé 3589" d="M48.53,36.411s25.723.085,32.825,33.728C50.535,60.991,48.53,36.411,48.53,36.411" transform="translate(636.62 477.646)" fill="#c49a3b"/>
      <path id="Tracé_3590" data-name="Tracé 3590" d="M44.344,69.1S39.685,45.315,73.878,34.176c-4,29.7-29.535,34.928-29.535,34.928" transform="translate(578.899 448.327)" fill="#c49a3b"/>
      <path id="Tracé_3591" data-name="Tracé 3591" d="M50.133,53.559s6.593-23.154,42.961-19.426C75.87,59.093,50.133,53.559,50.133,53.559" transform="translate(657.648 442.427)" fill="#c49a3b"/>
      <path id="Tracé_3592" data-name="Tracé 3592" d="M53.013,38.075s25.709-.466,33.6,33.036c-31-8.513-33.6-33.036-33.6-33.036" transform="translate(695.428 499.474)" fill="#c49a3b"/>
      <path id="Tracé_3593" data-name="Tracé 3593" d="M46.732,36.682S72.455,36.216,80.347,69.7c-31-8.513-33.615-33.022-33.615-33.022" transform="translate(613.034 481.201)" fill="#c49a3b"/>
      <path id="Tracé_3594" data-name="Tracé 3594" d="M53.71,45.091s16.349-18.226,48.128-.706c-26.951,15.728-48.128.706-48.128.706" transform="translate(704.572 482.449)" fill="#c49a3b"/>
      <path id="Tracé_3595" data-name="Tracé 3595" d="M52.693,43.089s16.349-18.2,48.143-.72c-26.951,15.728-48.143.72-48.143.72" transform="translate(691.231 456.299)" fill="#c49a3b"/>
      <path id="Tracé_3596" data-name="Tracé 3596" d="M50.852,74.29S38.583,52.845,67.158,32.275C73.229,61.866,50.852,74.29,50.852,74.29" transform="translate(632.731 423.39)" fill="#c49a3b"/>
      <path id="Tracé_3597" data-name="Tracé 3597" d="M25.329,46.125S36.652,67.994,7.188,87.449c-4.772-29.8,18.142-41.324,18.142-41.324" transform="translate(85.709 605.075)" fill="#c49a3b"/>
      <path id="Tracé_3598" data-name="Tracé 3598" d="M1.349,40.931s20.994-13.469,46.957,11.1c-30.566,8.485-46.957-11.1-46.957-11.1" transform="translate(17.696 488.613)" fill="#c49a3b"/>
      <path id="Tracé_3599" data-name="Tracé 3599" d="M9.818,47.09s25.356-3.671,37.893,28.688C15.846,71.147,9.818,47.09,9.818,47.09" transform="translate(128.793 616.083)" fill="#c49a3b"/>
      <path id="Tracé_3600" data-name="Tracé 3600" d="M24.917,50.6S36.8,72.21,7.834,92.3c-5.52-29.69,17.083-41.7,17.083-41.7" transform="translate(91.374 663.713)" fill="#c49a3b"/>
      <path id="Tracé_3601" data-name="Tracé 3601" d="M9.594,50.9S34.541,57.5,31.647,91.449C4.455,74.874,9.594,50.9,9.594,50.9" transform="translate(120.786 667.74)" fill="#c49a3b"/>
      <path id="Tracé_3602" data-name="Tracé 3602" d="M11.084,49.241s24.9,6.593,22.024,40.561C5.917,73.213,11.084,49.241,11.084,49.241" transform="translate(140.262 645.951)" fill="#c49a3b"/>
      <path id="Tracé_3603" data-name="Tracé 3603" d="M8.942,54.3S24.288,35.315,56.929,51.31C30.867,68.309,8.942,54.3,8.942,54.3" transform="translate(117.302 589.033)" fill="#c49a3b"/>
      <path id="Tracé_3604" data-name="Tracé 3604" d="M11.417,39.314s20.358,15.177,3.417,45.008c-18.311-25.088-3.417-45.008-3.417-45.008" transform="translate(74.83 515.728)" fill="#c49a3b"/>
      <path id="Tracé_3605" data-name="Tracé 3605" d="M8.04,41.993S28.413,57.17,11.429,87.016C-6.854,61.928,8.04,41.993,8.04,41.993" transform="translate(30.445 550.871)" fill="#c49a3b"/>
      <path id="Tracé_3606" data-name="Tracé 3606" d="M33.954,41.787S35.479,65.858,0,72.974C7.85,44.06,33.954,41.787,33.954,41.787" transform="translate(0 548.169)" fill="#c49a3b"/>
      <path id="Tracé_3607" data-name="Tracé 3607" d="M58.981,85.825s14.909,20.57-7.864,47.239c-10.546-30.3,7.864-47.239,7.864-47.239" transform="translate(627.779 1125.863)" fill="#c49a3b"/>
    </g>
  </g>
</svg>
