<svg xmlns="http://www.w3.org/2000/svg" width="503.18" height="319.406" viewBox="0 0 503.18 319.406">
  <g id="Groupe_5164" data-name="Groupe 5164" transform="translate(0 -3175.791)">
    <path id="Tracé_3608" data-name="Tracé 3608" d="M191.111,226.643a.575.575,0,0,0-.261.329c-.077.242-6.911,23.694-15.844,30.663-3.872,1.094-7.782,2.178-11.76,3.3C112.857,275.057,56.3,290.93,0,318.5c.3.31.6.61.9.91,56.1-27.411,112.46-43.217,162.674-57.28,17.635-4.936,34.293-9.6,49.837-14.47a193.156,193.156,0,0,0,38.532-17.287c.058-.01.1.01.145-.019.358-.184,34.535-18.332,55.944-15.215a.569.569,0,0,0,.561-.319c26.317,17.6,84.246-14.489,84.246-14.489-41.823-29.424-81.478,8.547-84.546,13.647l-.1-.077c-14.567-2.11-34.341,5.12-46.275,10.386,44.107-28.369,81.884-71.392,106.8-104.117,2.139.31,19.648,2.981,30.711,8.721a.615.615,0,0,0,.832-.261.625.625,0,0,0-.271-.832c-10.463-5.44-26.52-8.15-30.431-8.759,1.307-1.7,2.555-3.388,3.785-5.023,14.005-2.042,35.841,2.439,36.064,2.5a.623.623,0,0,0,.252-1.22c-.2-.039-21.061-4.317-35.319-2.633,15.612-21.158,24.981-36.577,26.027-38.3,53.408,9.96,47.146-60.648,47.146-60.648C371.207,27.343,395.085,66.94,399.6,73.425c-.077.048-.155.068-.194.136-.29.513-11.431,19.068-30.3,44.059-1.152-17.2-12.679-47.833-14.054-49.789C395.337,42.065,347.562,0,347.562,0c-29.86,35.8,2.323,64.326,6.533,67.811a.6.6,0,0,0-.058.716c1.016,1.442,13.376,33.983,13.9,50.631-26.24,34.515-66.9,80.645-114.183,108.733,11.421-19.106,12.621-51.879,11.663-53.205,3.649-2.836,39.045-32.066,18.564-81.206,0,0-40.961,37.051-19.116,80.955a.608.608,0,0,0-.319.058.582.582,0,0,0-.184.813c.639,2.033-.707,35.831-12.941,53.96a192.123,192.123,0,0,1-38.377,17.209c-11.237,3.513-23.075,6.94-35.406,10.415,8.266-8.585,14.131-28.659,14.393-29.569a.592.592,0,0,0-.145-.552c3.717-3.242,29.821-28.166,10.724-75.612,0,0-36.5,39.374-11.5,75.486" transform="translate(0 3175.791)" fill="#60831f"/>
    <path id="Tracé_3609" data-name="Tracé 3609" d="M51.85,28.034a56.3,56.3,0,0,0,7.617,8.876c-11.45-.31-18.438,2.362-18.1,3.049,23.365,45.433,90.4,36.093,90.4,36.093C119.554,62.22,107.407,53.092,96.16,47.15c25.475-4.994,48.095-28.166,48.095-28.166C86.636-4.691,50.843,26.6,51.85,28.034" transform="translate(358.925 3263.953)" fill="#60831f"/>
  </g>
</svg>
