<svg xmlns="http://www.w3.org/2000/svg" width="1516.307" height="1390.352" viewBox="0 0 1516.307 1390.352">
  <g id="veg" transform="translate(445.926 1390.352) rotate(-120)">
    <path id="Tracé_3456" data-name="Tracé 3456" d="M477.375,802.671c-2.9-6.233-26.723-51.779-88.917-18.067,0,0,42.229,46.333,88.531,19.163a.8.8,0,0,0,.339.339,80.325,80.325,0,0,0,34.484,7.39q-8.425,7.406-15.907,14.92l-.093.077-.015.031a328.421,328.421,0,0,0-49.928,64.046,318.315,318.315,0,0,0-27.6,59.988,42.189,42.189,0,0,1-22.079-6.835l-.216-.031c1.712-5.338,10.461-40.81-48.8-59.185,0,0-6.4,49.172,47.845,59.741a.756.756,0,0,0,.278.818,43.847,43.847,0,0,0,21.847,7.067c-10.955,14.148-40.146,32.277-40.455,32.447a.936.936,0,0,0-.309.432c-7.591-3.009-59.525-22.171-78.363,9.72,0,0,48.987,28.76,78.842-8.717a.758.758,0,0,0,.679-.046c1.188-.741,27.14-16.864,39.19-30.8-12.636,39.035-17.157,79.073-12.359,114.791-13.7,31.984-36.69,52.258-57.257,64.755-25.566,2.36-37.153-12.1-37.276-12.235a.752.752,0,0,0-.725-.262c-.771-5.832-8.27-44.991-68.983-37.477,0,0,23.236,58.892,68.381,38.526.031.062.015.139.062.2.108.154,11.232,14.056,35.5,13.037-21.847,12.636-40.223,16.54-40.578,16.6a.83.83,0,0,0-.525.4c-37.539-23.3-69.97,12.436-69.97,12.436,49.481,30.195,67.887-5.863,70.341-11.34a.834.834,0,0,0,.463.093c.386-.077,20.52-4.336,43.787-18.391l.093-.016a.8.8,0,0,0,.586-.4c2.885-1.759,5.817-3.687,8.764-5.771-4.088,14.611-12.281,29.469-12.374,29.624a.871.871,0,0,0,.046.849c-4.011,2.932-25.1,20.32-8.764,51.718a692.271,692.271,0,0,1-49.558,60.543c-20.675,10.384-52.875,10.09-53.214,10.075a.865.865,0,0,0-.6.293c-5.184-4.428-44.42-35.363-77.145,12.482,0,0,50.067,24.162,77.268-11.356a.744.744,0,0,0,.463.2c.309,0,29.438.278,50.391-8.609-16,17.28-31.722,32.617-46.271,45.824a807.8,807.8,0,0,1-84.088,66.792c-25.041-3.271-38.294-11.14-38.372-11.186a1.12,1.12,0,0,0-.71-.015c-2.237-5.046-18.437-36.968-66.237-22.7,0,0,26.383,40.1,65.8,23.683a.854.854,0,0,0,.293.4c.17.077,13.022,7.7,37.245,11.171-21.107,14.457-34.545,22.017-34.808,22.156a.8.8,0,0,0-.386.54C52,1396.762,30.368,1472.38,30.368,1472.38c80,2.33,85.939-51.857,86.371-58.846a.827.827,0,0,0,.432-.062c.17-.093,5.184-2.9,13.794-8.331-1.991,13.9-3.487,27.324-3.5,27.464a.822.822,0,0,0,.154.571c-4.814,3.657-35.7,29.531-13.022,75.433,0,0,49.156-38.712,14.195-75.324a.745.745,0,0,0,.262-.494c.015-.154,1.636-14.426,3.718-28.775,5.724-3.626,12.837-8.285,21.076-13.948l.093-.077a809.468,809.468,0,0,0,84.381-67.008c15.383-13.979,32.062-30.287,49.018-48.8l.062-.015a.872.872,0,0,0,.4-.478c1.265-1.389,2.546-2.777,3.811-4.2a185.064,185.064,0,0,0-2.453,29.778v.108a149.059,149.059,0,0,0,4.181,36.767c.031.093.123.139.169.216-4.953,3.5-37.816,30.025,12.667,83.579,0,0,34.638-46.935-11.448-83.5a.807.807,0,0,0,.185-.694,146.527,146.527,0,0,1-4.15-34.314c2.9,2.916,10.276,9.643,23.344,17.234a.781.781,0,0,0,.525.062c1.049,6.5,9.983,53.168,50.252,52.119,0,0,.8-40.1-49.65-52.675a.8.8,0,0,0-.324-.91c-15.336-8.9-22.881-16.771-24.146-18.175a173.755,173.755,0,0,1,2.916-31.907c14.488-16.216,29.068-34.021,43.124-53.322a102.654,102.654,0,0,0,14.411,19.564s20-23.822,8.131-52.69a545.1,545.1,0,0,0,47.583-93.175c8.054,54.171,14.611,114.066,18.9,157.375-3.348,5.894-15.892,17.481-16.015,17.6-.093.077-.108.2-.154.324-40.455-16.956-64.632,34.592-63.829,34.87,50.9,18.175,62.95-27.495,64.369-33.867a.7.7,0,0,0,.694-.139c.494-.448,10.723-9.905,15.182-16.216,3.379,34.329,5.307,57.658,5.338,58.2a.849.849,0,0,0,.247.463c-4.983,4.691-41.18,41.226-14.488,89.473,0,0,45.624-54.7,15.846-90.2-.093-1.157-1.327-16.061-3.518-39.189,3.842,7.776,13.053,24.717,25.52,36.166a.961.961,0,0,0,.417.139c-.879,5.894-4.691,46.3,55.1,54.834,0,0-7.684-50.221-54.218-55.483a.713.713,0,0,0-.216-.679c-16.031-14.735-26.63-38.757-27.047-39.714-4.227-44.281-11.587-114.683-20.937-176.97q3.957-10.3,7.5-20.906c4.721-14.179,9.828-27.818,15.2-41.041,5.539,17.666,13.084,35.641,23.3,49.727,7.082,9.782,15.46,20.922,24.331,32.709,10.43,13.84,21.338,28.343,31.521,42.414.617,13.485-8.609,30.472-8.7,30.642a.849.849,0,0,0-.077.509c-51.425,6.526-35.934,78.225-35.934,78.225,42.136-19.41,37.6-70.8,36.814-77.592a.8.8,0,0,0,.6-.37c.37-.679,8.563-15.738,8.933-29.145,17.99,25.01,33.4,48.509,39.328,64.462.031.077.108.108.139.154-4.521,5.23-27.479,57.149,49.017,111.845,0,0,24.794-79.32-47.675-111.937a.808.808,0,0,0,.031-.633c-5.261-14.164-17.9-34.16-33.157-55.852,7.915,5.23,27.186,16.416,49.419,17.959a.788.788,0,0,0,.54-.185c4.367,5.2,37.631,41.735,91.17,10.785,0,0-56.7-42.661-91.062-11.911-.062-.062-.108-.154-.185-.185a.977.977,0,0,0-.355-.123c-27.556-1.9-50.514-18.885-52.273-20.227-11.618-16.355-24.547-33.527-36.8-49.8-8.871-11.788-17.234-22.9-24.316-32.678-10.461-14.442-18.114-33.018-23.637-51.116a656.946,656.946,0,0,1,35.255-72.747c-3.024,11.618-6.912,34.221,2.114,52.427a.718.718,0,0,0,.71.386c0,6.449,2.006,53.724,62.734,57.766,0,0-21.523-58.491-61.978-58.491a.622.622,0,0,0-.031-.37c-11.186-22.557-1.975-52.2-.031-57.859q7.638-13.214,15.6-25.581a70.312,70.312,0,0,0,21.107,29.593.73.73,0,0,0,.787.077c2.3,5.693,19.965,45.253,65.419,29.546,0,0-27.062-44.219-64.971-30.472a.531.531,0,0,0-.2-.386,68.62,68.62,0,0,1-21.061-30.071c4-6.187,8.039-12.266,12.127-18.16,15.275,3.024,37.847,2.993,56.686-15.491,0,0-16.771-12.328-36.782-11.742,54.711-71.143,113.48-118.787,152.685-150.54,13.222-10.692,24.64-19.95,33.3-27.9a162.42,162.42,0,0,0,11.541-12.019c-20.412,39.174-33.172,83.532-40.933,119.266l-.046.016c-10.677,17.589-31.167,26.183-31.383,26.26a.8.8,0,0,0-.432.463c-34.561-14.457-57.041,46.827-57.041,46.827,48.247,1.234,56.7-39.838,57.674-45.808a.688.688,0,0,0,.432.015c.2-.077,18.546-7.792,29.886-23.529-.772,3.626-1.481,7.159-2.145,10.569-.031.077-.093.124-.093.216v.231c-5.955,30.843-7.838,52.227-7.884,52.721a.8.8,0,0,0,.293.633c-4.181,4.783-31.8,40.408,14.673,97.4,0,0,43.293-50.669-13.578-97.48a.768.768,0,0,0,.216-.432c.046-.447,1.806-20.212,7.206-49.048,1.388,3.9,4.891,10.8,13.7,21.477a.746.746,0,0,0,.694.263c.617,5.647,6.665,42.383,59.633,52.258,0,0-9.582-58.074-58.939-53.076a.772.772,0,0,0-.139-.447c-12.79-15.506-14.117-22.789-14.241-24.177,7.591-39.359,21.8-94.039,47.212-140.157v-.062c8.3-9.982,17.666-22.48,27.726-36.937l.154-.123a.761.761,0,0,0,.247-.463C812.97,543.927,902.8,376.138,922.207,273.6a.81.81,0,0,0-.386-.848l-.247-.093a.8.8,0,0,0-.941.633C901.224,375.752,811.442,543.434,748.277,634.356c-2.176.818-17.527,5.724-36.953-10.523,2.854-2.808,14.719-16.216,3.163-34.206-13.038-20.32-39.992-31.645-50.021-40.563,0,0-.309,48.694,45.608,74.939a.8.8,0,0,0,.155,1.018c15.552,13.053,28.451,13.069,34.807,11.881-16.941,11.556-45.577,13.5-45.885,13.516a.852.852,0,0,0-.586.37c-48.848-35.332-95.721,17.111-95.721,17.111,69.044,35.471,93.191-9.874,96.045-15.984a1.16,1.16,0,0,0,.371.123c1.25-.077,28.744-1.975,46.024-13.392-16.185,22.974-30.456,40.609-41.133,50.422-8.609,7.915-20.012,17.141-33.2,27.834-7.452,6.048-15.645,12.683-24.331,19.9C589.79,755,546.589,781.44,513.9,809.691c-2.021-.987-11.618-6.233-19.734-19.456a.589.589,0,0,0-.247-.231c4.073-6.172,33.435-54.8-31.706-83.671,0,0-20.382,39.452,30.7,83.826a.8.8,0,0,0-.123.926c6.681,10.893,14.241,16.478,18.175,18.854a77.888,77.888,0,0,1-32.894-7.282.84.84,0,0,0-.694.015M358.541,1178.983a65.468,65.468,0,0,0-12.667-18.3c.062-.062.154-.077.2-.155.093-.17,9.119-16.509,13.038-31.907A139.719,139.719,0,0,0,404.751,1073c.062.4.093.818.154,1.219q.787,5.045,1.558,10.152a541.353,541.353,0,0,1-47.922,94.61m55.544-115.856q-3.055,9.188-6.464,18.144c-.37-2.453-.741-4.891-1.111-7.3-5.585-35.687-1.543-76.034,10.816-115.485a375.527,375.527,0,0,0,12.744,61.685c-5.662,13.825-11.047,28.081-15.984,42.954m55.73-123.74a.908.908,0,0,0-.432.463c0,.016-.123.324-.293.833a657.2,657.2,0,0,0-38.048,77.129,372.431,372.431,0,0,1-12.5-63A317.048,317.048,0,0,1,447.258,891.4a325.073,325.073,0,0,1,46.487-60.512c-5.6,12.5-19.764,49.681-8.316,83.023q-7.961,12.336-15.614,25.473m16.74-27.247a82.145,82.145,0,0,1-3.734-21.4,77.384,77.384,0,0,0,14.827,4.814q-5.6,8.1-11.093,16.586m30.58-43.325c-11.4.864-23.684,6.126-34.407,20.32-.895-30.781,13.007-58.954,14.4-61.67,33.481-33.45,80.539-66.159,146.066-87.822-36.845,30.812-82.746,72.624-126.054,129.171" transform="translate(-30.368 -272.638)" fill="#2b3f30"/>
    <path id="Tracé_3457" data-name="Tracé 3457" d="M44.179,88.153c-2.746,14.642-3.965,32.061-.17,49.11a.844.844,0,0,0,.478.525c-2.638,6.187-19.734,53.508,55.436,90.136,0,0,16.108-27.71-7.082-55.158-21.909-25.952-36.829-27.926-47.382-35.24a.739.739,0,0,0,.123-.617c-3.564-16.046-2.638-32.432-.185-46.472,3.749,5.616,16.756,22.465,38.418,24.27a.811.811,0,0,0,.879-.725.834.834,0,0,0-.741-.879c-23.437-1.959-36.489-22.233-38.14-24.979A167.507,167.507,0,0,1,56.831,52.235a.787.787,0,0,0-.309-1.034l-.062-.031a.813.813,0,0,0-1.08.37A168.386,168.386,0,0,0,44.21,87.906l-.031.247" transform="translate(709.37 240.794)" fill="#2b3f30"/>
    <path id="Tracé_3458" data-name="Tracé 3458" d="M62.213,13.644S31.757-25.329,1.639-1.291c0,0,22.789,32.416,60.574,14.935" transform="translate(792.535 356.528)" fill="#2b3f30"/>
  </g>
</svg>
