<svg xmlns="http://www.w3.org/2000/svg" xmlns:xlink="http://www.w3.org/1999/xlink" width="681.927" height="732.491" viewBox="0 0 681.927 732.491">
  <defs>
    <clipPath id="clip-path">
      <rect id="Rectangle_2280" data-name="Rectangle 2280" width="541.679" height="613.188" fill="#60831f"/>
    </clipPath>
    <clipPath id="clip-path-2">
      <path id="Tracé_3712" data-name="Tracé 3712" d="M190.4,445.71c5.571-4.7,11.828-10.247,18.692-16.772a176.135,176.135,0,0,0-9.746,24.693c-1.818,5.914-5.713,18.361-10.148,32.5a357.419,357.419,0,0,0,1.2-40.417M214.77,423.4c5.7-5.61,11.733-11.864,18.006-18.716a256.02,256.02,0,0,0-15.136,48.29c-.225,1.128-.378,2.243-.513,3.387A286.6,286.6,0,0,0,214.77,423.4m50.817-58.123c7.231-9.518,14.58-19.84,21.937-30.9-6.912,34.5-9.08,67.641-9.494,92.472-2.594-36.4-9.119-54.5-12.443-61.573m29.83-51.413s1.179-.753,2.389-1.62c-8.134,12.778-16.315,24.74-24.382,35.894-.1-.248-.678-.272-2.1.1,0,0-23.956,7.006-48.511,8s-65.141,5.106-65.141,5.106-33,4.984-54.437-6.845a191.722,191.722,0,0,0,26.637,1.7s26.881-3.458,39.821-2.807,40.109-2.918,40.109-2.918h.173c3.186,0,49.658-.623,85.438-36.6m-47.17,3.726c29.3-21.5,64.116-43.314,64.116-43.314l13.232-9.932c-3.844,7.361-7.771,14.635-11.852,21.681-4.7,8.114-9.455,15.925-14.225,23.5a11.413,11.413,0,0,0-1.79.367s-21.263,6.632-51.661,9.289c.718-.52,1.431-1.037,2.18-1.589M400.766,0c-2.232.008-1.38,11.718-1.668,14.249q-1.271,11.183-2.922,22.32c-5.508,37.258-13.926,74-24.09,110.179a622.7,622.7,0,0,1-27.354,77.332c-.256-.272-.481-.536-.733-.808l-1.159,1.987a12.348,12.348,0,0,1,.615,1.727q-7.783,17.819-16.465,34.644l-1.108-.67s-12.467-3.2-40.969,14.876a44.516,44.516,0,0,1,5.953-3.623s-33.876,14.947-60.7,47.912c-2.354.071-4.731.122-7.152.134-42.155.2-75.629,19.067-75.629,19.067S79.922,364.214,59.629,326.3a14.6,14.6,0,0,0,1.352,6.036c-1.471,0,9.072,20.467,40.677,37.255,36.876,19.583,86.992,17.924,93.024,16.193s45.093-9.159,74.592-34.01a33.694,33.694,0,0,0,3.257-2.4c-9.19,12.652-18.219,24.244-26.846,34.712-3.9.867-65.3,14.489-85.119,15.321-20.474.844-47.75,10.326-47.75,10.326s-46.469,13.484-81.787,3.533a.5.5,0,0,0-.335.934A135.676,135.676,0,0,0,49.6,420.9c-28.6-6.249-31.656-13.516-31.837-11.513-.17,1.672,12.329,9.175,37.361,18.984,48.164,18.874,70.582,15.329,104.742,10.669C183.946,435.766,215.7,415.7,215.7,415.7s-57.335,14.6-102.731,12.475c-9.9-.473-18.7-1.108-26.661-1.861a153.283,153.283,0,0,0,26.728-1.691c28.892-4.38,41.556-5.5,47.1-5.626a65.143,65.143,0,0,0,15.065-2.082c15.471-4.053,44.58-13.279,66.632-29.732,0,0,1.187-.631,2.4-1.333-22.249,26.81-41.655,46.094-53.936,57.13-.024-.7-.047-1.1-.047-1.1s-.457.8-1.218,2.228a132.093,132.093,0,0,1-10.472,8.607c-11.619,8.118-14.2,12.7-14.206,12.715-4.684,2.192-14.217,6.415-21.444,8.122-.816.193-3.97.9-8.587,2a81.683,81.683,0,0,0,13.993-7.988,252.658,252.658,0,0,1,40.594-23.38l1.34-2.306s-42.191,13.9-75.719,35.417c-3.06,1.96-5.8,3.8-8.41,5.583-1.486.418-2.969.844-4.463,1.285-19.639,5.764-58.608,4.558-71.69,7.7s-31.238,5.571-29.9,6.1c6.151,2.444,15.455,1.924,26.1,1.4,9.332-.457,19.694-.919,29.862.627A84.479,84.479,0,0,0,83.521,500c-8.2,6.916-12.561,11.233-19.008,13.914-11.706,4.861-29.121,9.857-36.73,6.155,0,0,16.843,15.01,50.033-12.747,3.718-3.1,7.2-5.776,10.551-8.193,8.177-1.636,17.368-4.163,29.815-7.255,23.648-5.847,41.331-20.648,47.052-25.919-8.54,8.65-23.869,29.334-23.869,29.334s-26.826,25.265-40.838,47.829S77.872,575.98,77.28,578.011s-4.715,2.515,8.473-2.346,21.389-11.84,46.618-37.909,38.418-74.221,38.418-74.221c.193-2.082-1.277-1.506-3.631.591a.514.514,0,0,1,.055-.063s-1.1.54-2.851,1.364c.043-.024,8.461-5.228,22.2-16.5-5.764,11.5-17.3,36.7-27.54,72.538-14.34,50.112-14.485,71.591-15.779,75.495-1.341,4.073-2.121,5.65-2.579,6.135,2.433,1.814,12.266,3.9,33.493-50.459,14.316-3.418,25.734-20.51,25.734-20.51a63.964,63.964,0,0,0,8.244-14.635c-3.619,17.06-8.4,32.851-14.47,40.117-1.794,2.141-4.964,1.6-7.05,1.049-1.585-.41-2.543-.824-1.814-.071,2.555,2.665,11.674,1.309,11.674,1.309s25.982-14.142,42.459-55.2c14.6-36.383,1.447-92.535-1.747-104.872,7.2-8.071,14.675-16.95,22.327-26.684-1.932,5.808-4.171,12.569-4.333,13.4-15.337,79.844-7.408,146.471-3.257,165.826,4.018,18.775,3.7,60.556,5.374,60.832h.031c.059-.008.118-.067.181-.173.907-1.565,3.47-7.854,5.922-14.044a120.156,120.156,0,0,0,7.318-28.115c5.48-40.921,7.834-74.3,8.291-101.446l0,.11.753-.335a14.61,14.61,0,0,0,5.879.166c1.691-.241,3.734-.481,9.226.41,5.417.883,12.975-.225,21.259-29.4,12.408-43.709-19.4-102.084-24.882-111.677,9.9-15.219,19.8-31.81,29.476-49.946-.426,4.085-1.392,12.025-3.347,26.854-5.591,42.187-3.56,93.686,14.008,139.5,13.93,36.32,11.6,56.444,10.038,63.229-.1.461.363.587.753.323,5.066-3.406,18.148-29.066,17.45-50.672-1.411-43.448,8.678-62.776-7.538-114.33-14.064-44.746-27.508-62.133-30.82-65.946,7.834-14.765,15.515-30.524,22.9-47.3a90.142,90.142,0,0,1,.875,17.4c-.469,17.62.339,42.325,10.018,80.545,3.923,15.522,5.9,25.856,6.7,30.4a2.732,2.732,0,0,0,3.213,2.255c8.3-1.656,31.963-10.594,26.712-58.482,0,0-9.131-37.546-45.5-76.8,1.4-3.257,2.823-6.474,4.211-9.809a759.006,759.006,0,0,0,30.213-87.067c5.626,43.066,41.493,96.415,78.46,127.55,10.018,8.449,68.638,68.3,70.026,67.436s-8.169-10.389-17.577-23.23-13.693-36.013-41.177-88.04c-25.821-48.893-82.8-83.207-89.326-85.143a723.99,723.99,0,0,0,16.082-71.5q2.7-15.737,4.684-31.613c.627-5.086,4.566-20.494-.457-24.078A1.031,1.031,0,0,0,400.778,0Z" transform="translate(0 0)" fill="#60831f"/>
    </clipPath>
  </defs>
  <g id="Groupe_5070" data-name="Groupe 5070" transform="matrix(0.966, 0.259, -0.259, 0.966, 158.705, 0)">
    <g id="Groupe_4428" data-name="Groupe 4428">
      <g id="Groupe_4427" data-name="Groupe 4427" clip-path="url(#clip-path)">
        <path id="Tracé_3705" data-name="Tracé 3705" d="M231.615,84.273,229.79,92.5c-25.9,19.359-63.473,2.239-100.937-29.168S43.418,2.632,52.364,7.612s60.52,20.167,60.52,20.167c129.9,41.359,118.73,56.495,118.73,56.495" transform="translate(150.885 20.764)" fill="#60831f"/>
        <path id="Tracé_3706" data-name="Tracé 3706" d="M197.388,82.429c15.041,7.74,39.947,16.07,39.947,16.07l-1.731,2.985c-24.673,27.165-60.3,18.172-82.73,10.9-22.41-7.27-69.9-38.638-83.187-60.087S41.064,19.8,44.8,20.269s4.463,2.247,4.463,2.247S68.722,40.983,88.112,52.689s40.227,14.9,40.227,14.9,54.007,7.1,69.048,14.844" transform="translate(130.148 59.603)" fill="#60831f"/>
        <path id="Tracé_3707" data-name="Tracé 3707" d="M93.075,46.471l1.155-1.987s48.949,45.668,66.99,85.655c18.061,39.987,33.6,115.6,33.6,115.6s5.89,19.67,9.139,24.76-11.268-15.751-14.773-19.654-34.558-51.3-34.558-51.3-35.039-46.666-49.946-92.811-11.6-60.256-11.6-60.256" transform="translate(272.969 130.903)" fill="#60831f"/>
        <path id="Tracé_3708" data-name="Tracé 3708" d="M156.174,71.306A92.749,92.749,0,0,1,186.1,56.382c24.7-6.967,37.377-2.76,37.377-2.76-29.606,24.177-46.7,26.842-70.909,41.749S116.452,109.361,85,93.952C63.647,83.485,38.37,68.759,44.217,69.46a7.687,7.687,0,0,1,1.853.654c27.891,13.378,68.067,17.34,81.831,15.739,8.493-.99,20.175-8.564,28.273-14.549" transform="translate(127.601 154.09)" fill="#60831f"/>
        <path id="Tracé_3709" data-name="Tracé 3709" d="M100.01,19.164s84.106,30.509,109.962,105.191c0,0,9.679,26.124,37.408,54.8,0,0-29.318-21.882-39.754-29.381S119.065,93.318,100.01,19.164" transform="translate(294.299 56.394)" fill="#60831f"/>
        <path id="Tracé_3710" data-name="Tracé 3710" d="M178.308,35.362C158.9,44.62,128.658,24.95,111.488,17.4,98.918,11.872,81.283,6.309,72.743,3.722a.431.431,0,0,1,.162-.844,530.075,530.075,0,0,0,62.306,2.744c40.074-.39,42.53,24.618,42.53,24.618Z" transform="translate(213.146 8.461)" fill="#60831f"/>
        <path id="Tracé_3711" data-name="Tracé 3711" d="M35.518,152.809a2.817,2.817,0,0,0,.631.615c-.6.654-.631-.615-.631-.615" transform="translate(104.519 449.67)" fill="#60831f"/>
      </g>
    </g>
    <g id="Groupe_4430" data-name="Groupe 4430" transform="translate(0.001)">
      <g id="Groupe_4429" data-name="Groupe 4429" clip-path="url(#clip-path-2)">
        <rect id="Rectangle_2281" data-name="Rectangle 2281" width="793.696" height="809.745" transform="translate(-295.942 221.926) rotate(-36.984)" fill="#60831f"/>
      </g>
    </g>
  </g>
</svg>
