<svg xmlns="http://www.w3.org/2000/svg" xmlns:xlink="http://www.w3.org/1999/xlink" width="798.326" height="722.229" viewBox="0 0 798.326 722.229">
  <defs>
    <clipPath id="clip-path">
      <rect id="Rectangle_2279" data-name="Rectangle 2279" width="566.955" height="674.572" transform="translate(0 0)" fill="#125d0c"/>
    </clipPath>
  </defs>
  <g id="Groupe_5085" data-name="Groupe 5085" transform="matrix(-0.259, 0.966, -0.966, -0.259, 798.326, 174.592)">
    <g id="Groupe_4425" data-name="Groupe 4425" clip-path="url(#clip-path)">
      <path id="Tracé_3697" data-name="Tracé 3697" d="M68.358,70.957c34.789-14.525,44.422-28.491,60.252-47.74S144.467,0,144.467,0C128.1,4.3,73.224,27.936,53.589,41.5S21.231,70.7,15.825,87.575,0,135.125,0,135.125s14.525-14.89,24.692-31.656S68.358,70.957,68.358,70.957" transform="translate(0 199.551)" fill="#125d0c"/>
      <path id="Tracé_3698" data-name="Tracé 3698" d="M0,0C.6,2.494.814,3.1,0,0" transform="translate(195.118 639.26)" fill="#125d0c"/>
      <path id="Tracé_3699" data-name="Tracé 3699" d="M1.305.021C1.2.053.75.269,0,.629c1.2-.47,1.6-.7,1.305-.608" transform="translate(458.044 245.616)" fill="#125d0c"/>
      <path id="Tracé_3700" data-name="Tracé 3700" d="M0,11.249A72.5,72.5,0,0,0,4.021,0S2.409,4.428,0,11.249" transform="translate(215.519 0)" fill="#125d0c"/>
      <path id="Tracé_3701" data-name="Tracé 3701" d="M143.537,88.452c-15.82,32.443-18.985,56.12-17.859,72.141l-1.543-3.635a435.852,435.852,0,0,0-10.8-55.18c-9.537-36.062,6.748-83.063,6.748-83.063C99.8,64.506,109.767,31.587,92.78,89.039c-14.488,49.024,29.6,73.351,29.6,73.351.338,1.052.639,1.871.9,2.5-8.481-.085-31.635.439-50.894,7.709-24.042,9.067-45.785,25.3-56.2,37.87S0,245.965,0,245.965s15.72-28.755,26.039-31.439c10.319-2.663,18.5,1.273,48.067-15.175s51.476-31.09,51.476-31.09l.682-2.156a54.605,54.605,0,0,0,5.231,17.363A453.643,453.643,0,0,0,159.621,250.7c-19.054,7.947-62.3,47.428-72.859,63.8-10.853,16.829-44.723,80.067-49.716,99.934S29.8,478.952,29.8,478.952c1.907,2.832,4.676-15.323,7.551-28.586s27.154-44.295,27.154-44.295c51.4-48.659,56.564-68.585,56.564-68.585s21.77-40.337,30.166-64.014A58.178,58.178,0,0,1,161.9,255.122c5.944,11.334,12.285,22.414,18.927,33.2-7.973,6.055-25.78,20.3-36.068,34.118-13.543,18.177-34.985,50.26-29.7,90.011s13.368,32.691,13.368,32.691l18.985,8.185s-6.869-20.48,6.615-62.339c11.1-34.456,26.779-77.694,30.372-96.912,7.625,12.074,15.614,23.762,23.83,35.048-5.955,6.594-35.936,41.426-46.641,85.282-5.485,22.472-3.7,52.305,10.319,76.083,3.968,6.716,7.413,9.442,10.335,9.9-7.862,40.115-11.82,88.225-3.6,117.582,1.384,4.962,2.251,8.158,2.742,10.034-1.295-5.406-4.354-19.646-2.547-24.406,3.445-9.046,4.032-24.19,18.874-54.646s35.518-52.77,42.725-91.607c5.464-29.51,4.919-66.181,4.343-82.09,10.6,12.359,21.268,23.994,31.709,34.853-8.312,15.762-55.518,112.013-23.666,210.922,3.646,11.3,10.594,26.071,10.05,21.579-4.491-37.162.587-45.172,4.682-61.716,26.567-107.2,21.807-136.007,11.883-167.747,10.14,10.436,20.063,20.126,29.526,28.966-13.611,54.244-12.148,71.708-13.8,99.215-1.686,28.121,11.551,79.232,11.551,79.232s7.508,34.081,18.182,41.748c9.194,6.589-15.762-18.853-1.67-85.53,11.339-53.652-5.046-112.61-11.2-131.806,11.186,10.372,21.69,19.561,31.08,27.429-4.539,9.094-25.014,57.869,6.531,146.147,23.55,65.922,15.572,34.942,15.572,34.942s-3.2-11.307-2.214-37.283c.972-25.431,11.154-82.946-17.273-141.624,11.339,9.411,20.929,16.824,28.01,22-1.976,6.954-1.538,32.459-.053,49.869a159.714,159.714,0,0,0,8.93,40.681c10.319,28.575,29.611,75.544,28.406,70.82-3.736-14.568-2.763-58.82-13.87-102.6-9.157-36.062-15.926-50.4-19.688-56.094,5.707,4.053,9.12,6.14,9.527,6.034-23.8-18.673-45.4-37.473-65.161-56.115.814.592,1.638,1.115,1.638,1.115s37.769,14.457,81.139,14.277,73.52-1.522,106.565-9.231,35.751-11.54,35.751-11.54-57.087,6.589-74.434,3.308-45.642-9.949-62.883-8.333-80.822,11.281-86.857,9.284c-1.976-.655-2.5-.613-2.425-.291q-14.774-14-28.147-27.825c.856.19,1.569.3,1.569.3s62.445,24.279,140.567,7.445,104.515-22.715,104.129-23.91-57.515,1.268-85.477-.624c-13.379-.909-24.644-1.9-34.213-2.79,46.361-7.862,56.295-18.726,56.295-18.726s-68.881,12.856-113.979-9.152C329.7,357.175,261.41,382.49,261.41,382.49l-2.837.671c-10.737-12.465-20.66-24.67-29.748-36.506,3.376,1.7,10.959,4.888,27.27,10.906,39.217,14.483,78.946,6.108,132.726-12.243s69.436-40.168,65.557-38.424-48.4,13.643-54.35,15.064c-5.944,1.437-46.9-1.633-77.509-.148s-94.809,23.038-94.809,23.038a2.723,2.723,0,0,0-.275-.032c-10.182-13.347-19.4-26.245-27.614-38.493,50.768,19.624,101.53.248,128.953-13.173C354.638,280.49,433.125,240.427,444.311,235c-6.246,2.446-34.747,11.582-107.368,17.358-78.762,6.277-130.459,44.078-139.162,50.873-7.487-11.286-14.2-22.023-20.132-32.073,3.154,3.26,15.572,8.042,63.6-13.574,0,0,62.022-31.043,82.7-137.217,0,0-21.178,40.385-56.606,59.053s-82.429,60.886-90.761,89.963q-5.762-9.836-10.562-18.726c3.181-3.2,4.005-3.7-1.051-1.95-20.628-38.3-28.448-62.366-28.448-62.366l-.629-1.5a113.459,113.459,0,0,0,14.874-21.711c-11.868,27.186-2.129,48.015-2.129,48.015,6.182-9.881,35.782-14.5,47.016-32.432s25.653-49.732,33.632-61.684,57.087-67.76,60.432-71.153c3.35-3.376-5.944,1.929-5.944,1.929C266.3,65.938,228.856,84.6,178.965,127.014c-11.091,9.432-18.721,18.821-23.931,27.719,15.7-32.993,24.036-73.81,26.478-88.41C183.937,51.761,195.541,17.764,201.786,0c-10.245,22.361-28.744,27.92-58.25,88.452M337.571,404.434c-11.249,2.779-25.838,6.705-44.966,12.232a9.88,9.88,0,0,0-2.579,1.03q-16.414-17.1-30.747-33.732c5.965,3.017,34.572,16.428,78.291,20.47m-97.007-34.144c-5.87,8.481-26.456,39.064-40.369,69.916,5.326-39.782,11.783-92.1,11.043-106.428l.153-.333c9.516,12.866,19.3,25.151,29.172,36.845M126.021,164.947c-.322-.011-.771-.021-1.347-.042a51.406,51.406,0,0,0-.407-6.79c.565,2.288,1.141,4.565,1.754,6.832" transform="translate(13.733 11.249)" fill="#125d0c"/>
      <path id="Tracé_3702" data-name="Tracé 3702" d="M0,29.981c47.74,24.079,100.848,14.33,100.848,14.33C161.364,36.136,187.7,0,187.7,0S163.4,25.611,89.541,26.092,0,29.981,0,29.981" transform="translate(374.971 461.309)" fill="#125d0c"/>
      <path id="Tracé_3703" data-name="Tracé 3703" d="M7.3,3.988C3.82,1.024,1.157-.556,0,.179c0,0,20.042,63.518,45.69,84.188a344.7,344.7,0,0,0,48.776,32.94S49.922,54.7,42.456,43.95C36.813,35.813,18.118,13.2,7.3,3.988,52.908,32.616,87.739,45.794,113.07,46.82s42.525,5.358,42.525,5.358c-2.32-5.168-20.713-7.123-28.982-12.354s-26.456-8.565-69.985-23.46S7.3,3.988,7.3,3.988" transform="translate(404.09 524.812)" fill="#125d0c"/>
      <path id="Tracé_3704" data-name="Tracé 3704" d="M101.707,20.554c5.057-.639,52.775,10.631,63.385,2.748,0,0-26.663-3.1-43.132-9.284S39.146-7.06,5.7,3.936c-33.452,10.98,90.941,17.247,96,16.618" transform="translate(401.863 513.024)" fill="#125d0c"/>
    </g>
  </g>
</svg>
