<svg xmlns="http://www.w3.org/2000/svg" xmlns:xlink="http://www.w3.org/1999/xlink" width="685.668" height="663.363" viewBox="0 0 685.668 663.363">
  <defs>
    <clipPath id="clip-path">
      <rect id="Rectangle_2250" data-name="Rectangle 2250" width="566.511" height="534.968" fill="none"/>
    </clipPath>
  </defs>
  <g id="Groupe_4363" data-name="Groupe 4363" transform="matrix(0.966, 0.259, -0.259, 0.966, 138.46, 0)">
    <g id="Groupe_4362" data-name="Groupe 4362" transform="translate(0 0)" clip-path="url(#clip-path)">
      <path id="Tracé_3459" data-name="Tracé 3459" d="M27.852,491.967c0,.01-.4-.705-1.047-1.991-.674-1.286-1.68-3.318-2.883-5.993a190.2,190.2,0,0,1-8.959-24.419A255.382,255.382,0,0,1,6.45,418.874c-.581-4.013-.964-8.243-1.327-12.567s-.747-8.783-.85-13.407c-.145-4.614-.249-9.363-.27-14.227.093-4.863.249-9.872.508-14.973a333.105,333.105,0,0,1,10.183-65.627q1.089-4.308,2.271-8.669c.788-2.9,1.732-5.8,2.634-8.71q2.784-8.726,5.91-17.576c2.178-5.859,4.583-11.728,7.061-17.617q1.866-4.417,3.826-8.835c1.317-2.955,2.779-5.838,4.21-8.772q4.355-8.757,9.063-17.472c3.173-5.807,6.688-11.479,10.193-17.182q2.66-4.262,5.413-8.5,1.369-2.131,2.769-4.241c.964-1.389,1.939-2.779,2.914-4.148q5.895-8.275,12.122-16.4c2.084-2.7,4.158-5.4,6.325-8.057q3.313-3.92,6.678-7.8,6.75-7.761,13.812-15.295c2.323-2.54,4.759-4.946,7.227-7.362q3.686-3.593,7.445-7.134c4.988-4.728,10.089-9.353,15.253-13.874q15.8-13.174,32.425-25.062,16.829-11.448,34.2-21.444,17.514-9.566,35.224-17.607c2.945-1.369,5.921-2.6,8.886-3.8s5.931-2.4,8.9-3.526q8.9-3.406,17.742-6.47c2.955-1.016,5.9-1.991,8.824-2.945s5.89-1.763,8.8-2.592q8.8-2.458,17.462-4.573t17.161-3.9c5.672-1.192,11.3-2.012,16.84-2.893q16.643-2.5,32.342-3.837c10.442-.747,20.51-1.006,30.164-1.058Q416,.695,422.919.861c2.292.052,4.573.124,6.813.207,2.24.114,4.438.259,6.616.425,8.7.643,16.923,1.462,24.6,2.406s14.838,2.022,21.412,3.111c6.543,1.244,12.505,2.52,17.877,3.743,21.454,4.967,33.316,8.918,33.337,8.845-.021.062-11.852-3.951-33.264-9.032-5.361-1.255-11.334-2.551-17.866-3.847-6.564-1.13-13.708-2.25-21.392-3.246C453.373,2.5,445.16,1.628,436.461.933,434.283.747,432.074.6,429.835.456,427.6.373,425.314.28,423.012.218Q416.106.016,408.858,0c-9.654.01-19.743.207-30.205.881-10.463.85-21.3,2.063-32.425,3.671-5.558.83-11.2,1.638-16.891,2.8s-11.427,2.416-17.223,3.806q-8.695,2.053-17.534,4.49c-2.934.819-5.9,1.607-8.845,2.53-2.955.954-5.91,1.918-8.866,2.924q-8.9,3-17.845,6.4-4.464,1.7-8.949,3.474c-2.986,1.172-5.983,2.4-8.938,3.754-11.862,5.33-23.725,11.157-35.483,17.493Q188.2,62.158,171.165,73.58,154.429,85.4,138.419,98.6q-7.839,6.813-15.429,13.884-3.8,3.546-7.528,7.144c-2.5,2.426-4.956,4.822-7.321,7.383q-7.155,7.544-14,15.326-3.422,3.888-6.761,7.818c-2.2,2.665-4.3,5.4-6.429,8.1q-6.315,8.15-12.3,16.477c-.985,1.379-1.981,2.779-2.955,4.168-.954,1.421-1.9,2.831-2.831,4.262-1.856,2.831-3.691,5.693-5.5,8.555C53.806,197.45,50.228,203.153,47,209s-6.284,11.728-9.239,17.607c-1.462,2.945-2.966,5.869-4.3,8.835s-2.644,5.962-3.92,8.928c-2.53,5.931-4.988,11.852-7.227,17.773-2.136,5.942-4.158,11.873-6.056,17.752-.923,2.945-1.9,5.879-2.706,8.814s-1.586,5.838-2.343,8.752A338.093,338.093,0,0,0,.591,363.97C.311,369.154.124,374.245,0,379.181c.01,4.946.093,9.757.218,14.465.083,4.718.477,9.26.809,13.656.353,4.417.726,8.71,1.3,12.816a258.421,258.421,0,0,0,8.544,41.56,195.265,195.265,0,0,0,9.125,25.176c1.244,2.81,2.271,4.874,3.007,6.315.736,1.4,1.12,2.126,1.12,2.126q1.866-1.68,3.733-3.329" transform="translate(0 39.678)" fill="#5b761e"/>
      <path id="Tracé_3460" data-name="Tracé 3460" d="M32.27,78.615c.031-.715,54.044-14.071,79.387-31.481-.228-.881-60.152,14.89-79.387,31.481" transform="translate(302.344 -32.021)" fill="#5b761e"/>
      <path id="Tracé_3461" data-name="Tracé 3461" d="M23.494,46.235c-.114-.311,37.734-8.741,59.447,7.176.021-.425-40.274,3.2-59.447-7.176" transform="translate(220.12 27.847)" fill="#5b761e"/>
      <path id="Tracé_3462" data-name="Tracé 3462" d="M13.814,99.314C13.856,98.993,39.779,73.4,44.1,38.457c-.467-.342-31.979,39.009-30.288,60.857" transform="translate(128.814 36.911)" fill="#5b761e"/>
      <path id="Tracé_3463" data-name="Tracé 3463" d="M42.5,44.924c.29.01,29.366,23.134,59.9,28.018.124.135-23.559-21.06-59.9-28.018" transform="translate(398.173 -3.794)" fill="#5b761e"/>
      <path id="Tracé_3464" data-name="Tracé 3464" d="M31.205,44.1c.4-.062,45.023,24.793,85.67,29.314C117.373,73.4,75.8,42,31.205,44.1" transform="translate(292.366 5.326)" fill="#5b761e"/>
      <path id="Tracé_3465" data-name="Tracé 3465" d="M27.523,103.6c.156-.228,32.995-22.9,58.617-57.549C85.559,45.4,35.746,79.211,27.523,103.6" transform="translate(257.869 -46.035)" fill="#5b761e"/>
      <path id="Tracé_3466" data-name="Tracé 3466" d="M8.168,66.779c15.844-5.724,27.157-9.1,35.722-23.258,3.308-5.454,6.273-11.209,9.654-16.466-10.276,3.443-21.5,7.373-28.266,16.124-6.553,8.451-12.422,17.98-20.79,24.7" transform="translate(42.04 186.556)" fill="#5b761e"/>
      <path id="Tracé_3467" data-name="Tracé 3467" d="M53.535,45C39.723,54.665,29.686,60.876,25.113,76.772,23.35,82.911,21.981,89.236,20.094,95.2c9.011-6.014,18.83-12.733,23.082-22.947,4.117-9.871,7.3-20.6,13.615-29.272" transform="translate(188.265 -5.883)" fill="#5b761e"/>
      <path id="Tracé_3468" data-name="Tracé 3468" d="M38.588,20.737C23.718,28.514,12.872,33.46,8.3,47.023c-1.773,5.226-3.1,10.639-5.008,15.72,9.726-4.822,20.3-10.224,24.689-18.872C32.231,35.5,35.425,26.357,42.124,19.13" transform="translate(30.834 273.868)" fill="#5b761e"/>
      <path id="Tracé_3469" data-name="Tracé 3469" d="M10.412,79.946c.207-11.406,6.833-22.055,4.791-33.472-1.452-8.1-6.813-16.56-9.26-24.606C4.854,37.1-1.6,46.443,2.5,62.38A206.82,206.82,0,0,0,9.53,85.431" transform="translate(10.804 222.788)" fill="#5b761e"/>
      <path id="Tracé_3470" data-name="Tracé 3470" d="M43.926,75.011c11.852-.259,23.5.954,34.312-4.4,11.52-5.693,19.453-16.28,30.04-22.916C91.241,49.068,77.491,51.65,63.254,61.843,56.659,66.55,50.77,72.585,42.941,75.032" transform="translate(402.323 -34.66)" fill="#5b761e"/>
      <path id="Tracé_3471" data-name="Tracé 3471" d="M14.368,103.525c4.469-10.981,10.2-21.195,9.581-33.233-.664-12.837-7.227-24.326-9.115-36.676C9.328,49.8,6.248,63.438,9.95,80.557c1.7,7.922,4.915,15.72,4.044,23.88" transform="translate(78.064 81.964)" fill="#5b761e"/>
      <path id="Tracé_3472" data-name="Tracé 3472" d="M107.532,60.85c-13.076,3.235-25.208,6.273-39.413-2.219C61.751,54.826,55.1,50.3,48.987,46.81,62.4,43,74.2,44.913,88.566,51.85" transform="translate(458.969 5.424)" fill="#5b761e"/>
    </g>
  </g>
</svg>
