<svg xmlns="http://www.w3.org/2000/svg" xmlns:xlink="http://www.w3.org/1999/xlink" width="612.707" height="825.042" viewBox="0 0 612.707 825.042">
  <defs>
    <clipPath id="clip-path">
      <rect id="Rectangle_2254" data-name="Rectangle 2254" width="347.84" height="748.644" fill="none"/>
    </clipPath>
  </defs>
  <g id="Groupe_5068" data-name="Groupe 5068" transform="matrix(0.921, 0.391, -0.391, 0.921, 292.518, 0)">
    <g id="Groupe_4370" data-name="Groupe 4370" transform="translate(0 0)" clip-path="url(#clip-path)">
      <path id="Tracé_3636" data-name="Tracé 3636" d="M155.613,66.545a.765.765,0,0,1,.435.556c.254,1.414,5.824,32.469,3.48,51.368,20.627-35.671,47.307-66.086,77.009-87.075l1.136,1.124c-28.868,20.337-54.86,49.7-75.2,84.127a387.256,387.256,0,0,1,56.153-32.868c6.682-13.92,13.92-27.9,21.92-41.991.785-1.39,1.535-2.779,2.308-4.169l1.22,1.208c-.7,1.257-1.378,2.525-2.09,3.782C234.362,56.044,227.438,69.4,221.01,82.652c16.4-7.5,34.245-13.8,51.223-16.083l1.5,1.474c-17.811,2.2-36.686,8.954-53.845,16.965a674.867,674.867,0,0,0-31.442,77.372c6.815-10.356,21.473-28.977,41.689-34.644a.785.785,0,0,1,.8.29c4.93-4.471,42.607-35.611,87.7,8.193,0,0-59.766,23.926-87.739-7.117a.913.913,0,0,1-.3.23c-25.049,7.021-41.435,34.6-44.444,40q-4.839,14.99-8.845,29.653a72.626,72.626,0,0,1,37.314-4.266.787.787,0,0,1,.6.556c5.957-2.187,48.54-15.975,67.91,29.762,0,0-52.648,9.812-68.309-28.771a.8.8,0,0,1-.435.109,70.861,70.861,0,0,0-37.653,4.616c-1.982,7.347-3.843,14.657-5.546,21.871,12.881,9.631,28.469,26.971,27.309,54.219,0,0-21.062-4.35-34.438-20.107-16.772,91.183-12.7,169.232-9.957,221.264.93,17.558,1.74,32.711,1.619,44.842a169.587,169.587,0,0,1-1.257,17.171c15.963-42.752,41.169-83.22,63.234-113.889l-.012-.036c6.114-20.349-1.462-42.027-1.547-42.245a.812.812,0,0,1,.048-.653c-34.994-16.53-3.5-76.151-3.5-76.151,34.305,36.166,8.64,71.052,4.737,75.934a.73.73,0,0,1,.29.314c.085.217,6.863,19.624,2.61,39.212,2.248-3.093,4.483-6.09,6.634-8.966.036-.06.036-.145.1-.205a.8.8,0,0,1,.193-.157c19.551-25.9,34.656-42.136,34.994-42.51a.8.8,0,0,1,.689-.217c.785-6.513,9.026-52.346,84.9-56.092,0,0-8.942,68.261-84.2,56.987a.968.968,0,0,1-.169.471c-.326.338-14.283,15.358-32.662,39.429,3.951-1.619,11.649-3.71,25.956-4.326a.758.758,0,0,1,.665.362c4.773-3.444,37.145-24.2,81.347,9.631,0,0-51.186,32.8-81.492-8.543a.7.7,0,0,1-.435.205c-20.736.906-27.249,4.93-28.409,5.776-24.953,33.061-57.083,81.782-74.919,133.162l-.036.036c-1.921,13.292-5.039,29.122-9.184,46.824l.024.193a.846.846,0,0,1-.181.52c-8.785,37.4-22.113,83.027-38.4,130.383-.544-.073-1.088-.157-1.643-.242,16.349-47.489,29.7-93.25,38.486-130.685-.87-2.235-7.721-17.413-33.629-21.086-.181,4.133-2.272,22.5-24.059,26.077-24.614,4.048-51.948-8.821-65.735-10.332,0,0,37.169-33.919,89.056-16.82a.838.838,0,0,1,.882-.592c20.784,2.912,29.714,12.809,33.194,18.488-2.84-20.989-21.146-44.3-21.352-44.552a.787.787,0,0,1-.121-.713c-60.9-13.038-53.059-85.287-53.059-85.287C142.72,488.41,124.607,538.3,121.9,544.732a1,1,0,0,1,.35.193c.8,1.015,18.367,23.418,21.545,44.565,6.441-28.288,10.1-51.452,10.259-66.424.109-12.072-.689-27.212-1.607-44.734-.508-9.9-1.088-20.76-1.559-32.433C125.573,389.71,116,338.27,115.073,293.645c-2.163-.858-12.833-4.6-28.6-1.692a.648.648,0,0,1-.338-.024C84.211,299.312,67.2,355.489,0,325.437c0,0,16.168-42.909,85.564-34.4a.81.81,0,0,1,.616-.725c12.99-2.393,22.5-.471,27.043.918A80.644,80.644,0,0,0,84.888,271a.856.856,0,0,1-.471-.532c-6.791,2.091-58.207,15.31-75.354-55.73,0,0,64.756.362,75.934,54.679a.739.739,0,0,1,.483.024,82.917,82.917,0,0,1,29.532,21.352q-.145-11.582.447-22.524l-.012-.121.012-.024a338.587,338.587,0,0,1,14.633-82.616,329.867,329.867,0,0,1,26.947-62.666,43.754,43.754,0,0,0-20.506-12.217l-.169-.145c-2.924,5-24.083,36.239-79.172,3.48,0,0,33.3-38.921,78.93-4.6a.792.792,0,0,1,.822-.35,45.532,45.532,0,0,1,20.53,11.89c3.275-18.2-3-53.144-3.069-53.494a.889.889,0,0,1,.121-.532C146.961,63.125,96.331,36.517,107.8,0c0,0,55.947,17.715,47.815,66.545m19.165,135.289a84.249,84.249,0,0,0-19.008,11.914,80.639,80.639,0,0,1,13.957,8.06q2.338-9.915,5.051-19.974M117.1,268.463c-2.513,48.842,4.918,107.581,33.6,172.845-1.837-49.579-1.486-113.719,11.975-186.064-7.238-9.341-11.673-22.415-8.2-40.444-24.252,20.591-36.251,50.751-37.375,53.664M131.688,186a335.673,335.673,0,0,0-14.295,77.5c5.728-12.93,24.469-49.507,57.965-63.778q3.988-14.645,8.761-29.6a.916.916,0,0,1,.048-.64c.012-.024.169-.326.435-.81a681.228,681.228,0,0,1,32.892-82.544,382.611,382.611,0,0,0-57,33.991A327.766,327.766,0,0,0,131.688,186" transform="translate(0 22.944)" fill="#60831f"/>
      <path id="Tracé_3637" data-name="Tracé 3637" d="M30.472,69.119c9.341-12.241,21.871-25.207,37.58-34.076a.806.806,0,0,1,.725,0c2.936-6.32,27.418-52.153,107.508-19.793,0,0-10.126,31.526-47.223,32.71-35.055,1.136-46.9-8.954-59.8-12a.807.807,0,0,1-.4.532c-14.778,8.35-26.7,20.385-35.78,31.985,6.888-1,28.82-2.67,45.193,12.7a.836.836,0,0,1,.036,1.172.85.85,0,0,1-1.184.036C59.424,65.759,34.834,69.771,31.584,70.4a172.747,172.747,0,0,0-19.926,33.278.81.81,0,0,1-1,.471l-.073-.024a.82.82,0,0,1-.447-1.088,173.818,173.818,0,0,1,20.18-33.726l.157-.193" transform="translate(111.583 598.586)" fill="#60831f"/>
      <path id="Tracé_3638" data-name="Tracé 3638" d="M69.1,38.962S18.132,42.539,15.752,2.808c0,0,40.625-4.942,53.349,36.154" transform="translate(174.59 677.911)" fill="#60831f"/>
      <path id="Tracé_3639" data-name="Tracé 3639" d="M20.829,113.971S8.637,64.971,50,57.262c0,0,11.914,38.777-29.17,56.709" transform="translate(212.276 -57.264)" fill="#60831f"/>
      <path id="Tracé_3640" data-name="Tracé 3640" d="M19.978,90.552s15.032-45.99,52.528-31.2c0,0-10.054,37.544-52.528,31.2" transform="translate(221.429 -24.396)" fill="#60831f"/>
      <path id="Tracé_3641" data-name="Tracé 3641" d="M22.343,100.039s3.3-50.389,45.036-45.145c0,0-.447,40.565-45.036,45.145" transform="translate(247.642 -10.103)" fill="#60831f"/>
      <path id="Tracé_3642" data-name="Tracé 3642" d="M22.474,51.984s49.978-7.19,53.482,34.728c0,0-39.779,7.951-53.482-34.728" transform="translate(249.094 38.859)" fill="#60831f"/>
    </g>
  </g>
</svg>
