<svg xmlns="http://www.w3.org/2000/svg" width="300.137" height="33.626" viewBox="0 0 300.137 33.626">
  <g id="Groupe_5177" data-name="Groupe 5177" transform="translate(0.003 0.001)">
    <path id="Tracé_46609" data-name="Tracé 46609" d="M219.8,263.784h26.94l.194,10.632h-1.481q-1.8-9.054-7.452-9.054h-.752v29.394h4.927v1.578H224.385v-1.578h4.9V265.362h-.728q-5.656,0-7.476,9.054H219.6Z" transform="translate(-219.603 -263.323)" fill="#fff"/>
    <path id="Tracé_46610" data-name="Tracé 46610" d="M354.683,321.463v5.364h.1a8.529,8.529,0,0,1,1.918-4.26,4.028,4.028,0,0,1,2.961-1.4,3.273,3.273,0,0,1,2.573,1.129,4.054,4.054,0,0,1,1,2.779,3.327,3.327,0,0,1-.752,2.269,2.333,2.333,0,0,1-1.82.862,2.444,2.444,0,0,1-1.833-.8,2.513,2.513,0,0,1-.764-1.772,2.606,2.606,0,0,1,.425-1.7q.425-.485.425-.631c0-.178-.13-.267-.388-.267q-1.214,0-2.318,2.382t-1.1,7.73v6.685h3.617v1.48H345.945v-1.48h2.524V323.284h-2.524v-1.5h3.228a32.491,32.491,0,0,0,3.786-.158l.874-.158Z" transform="translate(-318.638 -308.307)" fill="#fff"/>
    <path id="Tracé_46611" data-name="Tracé 46611" d="M449.692,330.153v-4.369a5.178,5.178,0,0,0-.437-2.5q-.437-.728-2.233-.728a4.829,4.829,0,0,0-2.233.425q-.8.425-.8.861,0,.292.57.874a2,2,0,0,1,.571,1.457,2.91,2.91,0,0,1-.947,2.172,3.3,3.3,0,0,1-2.379.91,3.239,3.239,0,0,1-2.257-.861,2.733,2.733,0,0,1-.947-2.1q0-2.136,2.536-3.629a13.891,13.891,0,0,1,7.027-1.493,16.742,16.742,0,0,1,5.813.875q2.342.875,2.342,3.938v10.257q0,2.65,1.481,2.65a2.4,2.4,0,0,0,1.141-.461l.655,1.092a6.16,6.16,0,0,1-4.782,2.4,5.59,5.59,0,0,1-4.757-2.937,10.176,10.176,0,0,1-7.064,2.937,5.889,5.889,0,0,1-4.126-1.374,4.439,4.439,0,0,1-1.5-3.418Q437.361,330.64,449.692,330.153Zm0,4.452V331.44a8.873,8.873,0,0,0-4.563,1.035,3.486,3.486,0,0,0-1.286,3.056,3.915,3.915,0,0,0,.8,2.605,2.574,2.574,0,0,0,2.063.95,2.691,2.691,0,0,0,2.209-.95,5.813,5.813,0,0,0,.777-3.536Z" transform="translate(-390.296 -308.307)" fill="#fff"/>
    <path id="Tracé_46612" data-name="Tracé 46612" d="M536.414,323.98H548.55v1.5h-2.769l4.747,10.073,3.307-7.406a3.2,3.2,0,0,1,.291-.691,2.521,2.521,0,0,0,.291-1.1q0-.873-1.575-.873h-1.307v-1.5h7.573v1.5a10.981,10.981,0,0,0-2.076.121q-.5.122-1.565,2.6l-6.939,15.923h-1.145l-8.737-18.642h-2.233Z" transform="translate(-467.94 -310.508)" fill="#fff"/>
    <path id="Tracé_46613" data-name="Tracé 46613" d="M662,330.4H650.057v3.163a13.564,13.564,0,0,0,.667,5.147q.668,1.424,3.071,1.423a6.492,6.492,0,0,0,3.944-1.359,8.436,8.436,0,0,0,2.8-4.223H662a9.471,9.471,0,0,1-3.325,5.534,10.182,10.182,0,0,1-13.241-1.339,10.828,10.828,0,0,1-2.779-7.339,10.318,10.318,0,0,1,2.816-7.108,9.084,9.084,0,0,1,7.039-3.123,9.5,9.5,0,0,1,6.335,2.282Q661.538,325.735,662,330.4Zm-11.942-1.578h5.219v-2.039q0-2.645-.716-3.435a2.808,2.808,0,0,0-3.811-.085q-.691.7-.692,3.568Z" transform="translate(-551.219 -308.307)" fill="#fff"/>
    <path id="Tracé_46614" data-name="Tracé 46614" d="M749.844,261.65v31.531h2.039v1.48h-10.85v-1.48h2.185V263.592h-2.185v-1.481q3.059,0,6.044-.243l1.966-.219Z" transform="translate(-628.334 -261.65)" fill="#fff"/>
    <path id="Tracé_46615" data-name="Tracé 46615" d="M812.173,261.65v31.531h2.039v1.48h-10.85v-1.48h2.185V263.592h-2.185v-1.481q3.059,0,6.044-.243l1.966-.219Z" transform="translate(-677.192 -261.65)" fill="#fff"/>
    <path id="Tracé_46616" data-name="Tracé 46616" d="M884.812,330.4H872.87v3.163a13.558,13.558,0,0,0,.667,5.147q.667,1.424,3.071,1.423a6.492,6.492,0,0,0,3.944-1.359,8.437,8.437,0,0,0,2.8-4.223h1.457a9.473,9.473,0,0,1-3.325,5.534,10.182,10.182,0,0,1-13.241-1.339,10.828,10.828,0,0,1-2.779-7.339,10.319,10.319,0,0,1,2.816-7.108,9.084,9.084,0,0,1,7.039-3.123,9.5,9.5,0,0,1,6.335,2.282Q884.351,325.735,884.812,330.4Zm-11.942-1.578h5.219v-2.039q0-2.645-.716-3.435a2.808,2.808,0,0,0-3.811-.085q-.692.7-.692,3.568Z" transform="translate(-725.874 -308.307)" fill="#fff"/>
    <path id="Tracé_46617" data-name="Tracé 46617" d="M969.888,321.463v5.364h.1a8.53,8.53,0,0,1,1.918-4.26,4.029,4.029,0,0,1,2.961-1.4,3.272,3.272,0,0,1,2.573,1.129,4.054,4.054,0,0,1,1,2.779,3.328,3.328,0,0,1-.752,2.269,2.333,2.333,0,0,1-1.821.862,2.443,2.443,0,0,1-1.833-.8,2.513,2.513,0,0,1-.765-1.772,2.606,2.606,0,0,1,.425-1.7q.425-.485.425-.631c0-.178-.13-.267-.388-.267q-1.214,0-2.318,2.382t-1.1,7.73v6.685h3.617v1.48H961.15v-1.48h2.524V323.284H961.15v-1.5h3.228a32.485,32.485,0,0,0,3.786-.158l.874-.158Z" transform="translate(-800.877 -308.307)" fill="#fff"/>
    <path id="Tracé_46618" data-name="Tracé 46618" d="M1117.619,263.784l6.08,18.836,6.155-18.836h12.789v1.578h-4.175v29.394h4.175v1.578h-16.408v-1.578h4.272V267.109l-9.432,29.224h-1.115l-9.55-29.589v24.682a4.742,4.742,0,0,0,.51,2.685q.51.644,2.816.644h1.141v1.578H1104v-1.578h1.99q1.893,0,2.306-.631a5.241,5.241,0,0,0,.412-2.551V265.362H1104v-1.578Z" transform="translate(-912.853 -263.323)" fill="#fff"/>
    <path id="Tracé_46619" data-name="Tracé 46619" d="M1306.016,330.153v-4.369a5.176,5.176,0,0,0-.437-2.5q-.437-.728-2.233-.728a4.829,4.829,0,0,0-2.233.425q-.8.425-.8.861,0,.292.57.874a2,2,0,0,1,.571,1.457,2.91,2.91,0,0,1-.947,2.172,3.294,3.294,0,0,1-2.379.91,3.239,3.239,0,0,1-2.257-.861,2.733,2.733,0,0,1-.947-2.1q0-2.136,2.537-3.629a13.889,13.889,0,0,1,7.027-1.493,16.745,16.745,0,0,1,5.813.875q2.342.875,2.342,3.938v10.257q0,2.65,1.481,2.65a2.4,2.4,0,0,0,1.141-.461l.656,1.092a6.16,6.16,0,0,1-4.782,2.4,5.59,5.59,0,0,1-4.758-2.937,10.176,10.176,0,0,1-7.063,2.937,5.89,5.89,0,0,1-4.126-1.374,4.438,4.438,0,0,1-1.5-3.418Q1293.685,330.64,1306.016,330.153Zm0,4.452V331.44a8.874,8.874,0,0,0-4.563,1.035,3.487,3.487,0,0,0-1.286,3.056,3.915,3.915,0,0,0,.8,2.6,2.575,2.575,0,0,0,2.063.95,2.692,2.692,0,0,0,2.209-.95,5.816,5.816,0,0,0,.777-3.536Z" transform="translate(-1061.54 -308.307)" fill="#fff"/>
    <path id="Tracé_46620" data-name="Tracé 46620" d="M1425.48,261.65v31.579h2.67v1.432h-3.042q-1.485,0-2.774.073l-2.774.218h-.682v-2.937h-.1a5.085,5.085,0,0,1-4.83,3.253,6.948,6.948,0,0,1-5.571-3.074,12,12,0,0,1-2.391-7.594,10.783,10.783,0,0,1,2.427-7.218,7.216,7.216,0,0,1,5.631-2.867,6.235,6.235,0,0,1,4.83,2.476v-13.4h-3.932V262.11h3.471q1.189,0,3.981-.231T1425.48,261.65Zm-6.6,25.453v-5.225a7.377,7.377,0,0,0-1.129-4.509,3.068,3.068,0,0,0-2.318-1.471,1.574,1.574,0,0,0-1.432,1.045,11.324,11.324,0,0,0-.51,4.229v7.316a14.3,14.3,0,0,0,.376,4.083,1.381,1.381,0,0,0,1.371,1.045,3.54,3.54,0,0,0,2.343-1.361q1.3-1.355,1.3-5.155Z" transform="translate(-1149.571 -261.65)" fill="#fff"/>
    <path id="Tracé_46621" data-name="Tracé 46621" d="M1538.089,330.4h-11.942v3.163a13.557,13.557,0,0,0,.667,5.147q.668,1.424,3.071,1.423a6.493,6.493,0,0,0,3.944-1.359,8.44,8.44,0,0,0,2.8-4.223h1.456a9.471,9.471,0,0,1-3.325,5.534,10.182,10.182,0,0,1-13.241-1.339,10.826,10.826,0,0,1-2.779-7.339,10.32,10.32,0,0,1,2.816-7.108,9.084,9.084,0,0,1,7.039-3.123,9.5,9.5,0,0,1,6.335,2.282Q1537.627,325.735,1538.089,330.4Zm-11.942-1.578h5.219v-2.039q0-2.645-.716-3.435a2.808,2.808,0,0,0-3.811-.085q-.692.7-.692,3.568Z" transform="translate(-1237.955 -308.307)" fill="#fff"/>
  </g>
</svg>
