<svg xmlns="http://www.w3.org/2000/svg" xmlns:xlink="http://www.w3.org/1999/xlink" width="543.927" height="313.433" viewBox="0 0 543.927 313.433">
  <defs>
    <clipPath id="clip-path">
      <rect id="Rectangle_2451" data-name="Rectangle 2451" width="513" height="187.031" fill="none"/>
    </clipPath>
    <clipPath id="clip-path-2">
      <rect id="Rectangle_2450" data-name="Rectangle 2450" width="513" height="187.032" fill="#dd2e20"/>
    </clipPath>
    <clipPath id="clip-path-3">
      <rect id="Rectangle_2446" data-name="Rectangle 2446" width="63.349" height="58.693" fill="none"/>
    </clipPath>
    <clipPath id="clip-path-4">
      <rect id="Rectangle_2447" data-name="Rectangle 2447" width="61.415" height="69.584" fill="none"/>
    </clipPath>
    <clipPath id="clip-path-5">
      <rect id="Rectangle_2448" data-name="Rectangle 2448" width="59.064" height="54.42" fill="none"/>
    </clipPath>
    <clipPath id="clip-path-6">
      <rect id="Rectangle_2449" data-name="Rectangle 2449" width="33.126" height="78.312" fill="none"/>
    </clipPath>
  </defs>
  <g id="veg" transform="matrix(0.966, -0.259, 0.259, 0.966, 0, 132.774)">
    <g id="Groupe_4883" data-name="Groupe 4883" transform="translate(0 0)" clip-path="url(#clip-path)">
      <g id="Groupe_4882" data-name="Groupe 4882" transform="translate(0 0)">
        <g id="Groupe_4881" data-name="Groupe 4881" transform="translate(0)" clip-path="url(#clip-path-2)">
          <path id="Tracé_8198" data-name="Tracé 8198" d="M424.525,1.4S269.4,144.107,0,63.769L1.015,59.7S226.066,147.192,422.654,0" transform="translate(0 98.73)" fill="#4e4c57"/>
          <path id="Tracé_8199" data-name="Tracé 8199" d="M30.492,30.663a48.525,48.525,0,0,1-2.531-5.3c-.693-1.689-1.379-3.43-2.1-5.146a35.305,35.305,0,0,0-5.6-9.715,17.518,17.518,0,0,0-3.466-3.08,15.518,15.518,0,0,0-6.928-2.5A16.407,16.407,0,0,0,.5,6.616C.324,6.122.158,5.611,0,5.1A19.736,19.736,0,0,1,6.683,1.149C7.1,1,7.513.866,7.935.756a20.09,20.09,0,0,1,24.4,12.673c.118.333.221.66.326,1a20.093,20.093,0,0,1-2.169,16.238" transform="translate(397.018 89.494)" fill="#37353f"/>
          <path id="Tracé_8200" data-name="Tracé 8200" d="M93.469,82.5c-4.512-.453-8.538-2.852-12.692-4.7-.309-.158-.621-.29-.933-.422a63.385,63.385,0,0,0-16.49-4.049l0-.012c-8.24-1.12-16.689-1.562-24.67-3.874a52.191,52.191,0,0,1-7.935-3.03A54.324,54.324,0,0,1,7.468,45.266,53.654,53.654,0,0,1,3.5,36.994,55.019,55.019,0,0,1,.022,19.3C0,18.478-.007,17.645.015,16.815a52.409,52.409,0,0,1,.4-5.714A16.65,16.65,0,0,1,3.032,6.035,15.046,15.046,0,0,1,6.288,2.856,14.432,14.432,0,0,1,8.017,1.8a16.3,16.3,0,0,1,16.291.808c4.431,2.972,6.952,7.789,9.068,12.8.724,1.715,1.411,3.457,2.1,5.146a48.311,48.311,0,0,0,2.531,5.3c2.629,4.719,6.2,8.813,11.3,10.039,6.4,1.542,14.041-1.83,19.248,2.171,2.915,2.236,3.958,6.052,5.455,9.4A31.079,31.079,0,0,0,89.921,63.1c1.111.48,2.245.888,3.37,1.3a32.232,32.232,0,0,1,5.995,2.636c2.9,1.77,5.34,4.827,5.1,8.209-.338,4.87-6.067,7.748-10.922,7.247" transform="translate(389.5 94.313)" fill="#dd2e20"/>
          <path id="Tracé_8201" data-name="Tracé 8201" d="M93.727,78.741c-4.287,5.5-10.665,9.284-17.241,11.783-7.724,2.953-15.919,4.426-23.809,6.87a56.209,56.209,0,0,0-14.539,6.525c-.106-.336-.209-.662-.326-1a20.111,20.111,0,0,0-25.651-12.28A19.742,19.742,0,0,0,5.478,94.6,113.87,113.87,0,0,1,.8,46.249a84.8,84.8,0,0,1,2.888-14.3,57.124,57.124,0,0,1,4.838-11.68C12.96,12.324,19.746,5.483,28.2,2.129S46.808-.733,54.3,4.437c10.521,7.254,13.817,21.539,23.214,30.194,4.515,4.162,10.26,6.851,14.53,11.246a25.694,25.694,0,0,1,3.721,29.861,24.089,24.089,0,0,1-2.037,3" transform="translate(391.54 -0.001)" fill="#dd2e20"/>
          <path id="Tracé_8202" data-name="Tracé 8202" d="M50.031,11.387A29.056,29.056,0,0,1,21.765,21.87,29.03,29.03,0,0,1,0,0,51.816,51.816,0,0,0,7.933,3.03C21.4,6.928,36.189,5.52,49.1,10.968c.312.132.624.264.933.42" transform="translate(420.246 160.722)" fill="#a80000"/>
          <path id="Tracé_8203" data-name="Tracé 8203" d="M55.282,79.976c-1.125-.413-2.26-.823-3.373-1.3-.4-.173-.8-.357-1.195-.545A31.156,31.156,0,0,1,36,63.032c-1.494-3.354-2.538-7.168-5.453-9.4-5.208-4-12.855-.631-19.248-2.173C6.2,50.232,2.629,46.135,0,41.419A20.154,20.154,0,0,0,2.931,29.264a20.279,20.279,0,0,0-.763-4.083,56.156,56.156,0,0,1,14.537-6.527c7.892-2.442,16.087-3.917,23.809-6.87C47.092,9.284,53.47,5.5,57.757,0,63.265.091,68.686,2.543,73,6.064a33.989,33.989,0,0,1,6.875,45.082c-7.009,10.605-19.793,17.13-24.591,28.829" transform="translate(427.51 78.741)" fill="#b51410"/>
          <path id="Tracé_8204" data-name="Tracé 8204" d="M14.607,113.866A27.643,27.643,0,0,1,.012,90.6C-.307,79.79,5.767,69.828,7.4,59.124c1.02-6.743.249-13.626-.405-20.419s-1.211-13.726.245-20.393S12.465,5.154,18.5,1.986a18.122,18.122,0,0,1,16.648.079,18.156,18.156,0,0,1,8.792,11.224,84.877,84.877,0,0,0-2.888,14.3c-.046.415-.094.83-.139,1.245a113.819,113.819,0,0,0,4.817,47.1c.156.513.324,1.022.5,1.518A14.758,14.758,0,0,0,44.5,78.512a15.211,15.211,0,0,0-3.255,3.178,16.71,16.71,0,0,0-2.612,5.069,53.545,53.545,0,0,0-.4,8.2c.029.969.089,1.929.173,2.888a54.621,54.621,0,0,0,3.308,14.8,27.659,27.659,0,0,1-27.107,1.216" transform="translate(351.286 18.655)" fill="#b51410"/>
          <g id="Groupe_4871" data-name="Groupe 4871" transform="translate(389.5 108.934)" opacity="0.7" style="mix-blend-mode: soft-light;isolation: isolate">
            <g id="Groupe_4870" data-name="Groupe 4870" transform="translate(0 0)">
              <g id="Groupe_4869" data-name="Groupe 4869" clip-path="url(#clip-path-3)">
                <path id="Tracé_8205" data-name="Tracé 8205" d="M63.349,58.693c-8.24-1.12-16.689-1.564-24.67-3.874a52.192,52.192,0,0,1-7.935-3.03A54.339,54.339,0,0,1,7.468,30.645,53.573,53.573,0,0,1,3.5,22.372,55,55,0,0,1,.022,4.683C0,3.857-.007,3.025.015,2.195A4.512,4.512,0,0,1,3.121.036C5.988-.369,8.216,2.725,8.59,5.6s-.353,5.827.192,8.669a9.842,9.842,0,0,0,13.342,7.3c1.535-.614,2.936-1.614,4.553-1.967s3.653.283,4.095,1.881c.559,2.063-1.758,3.689-2.586,5.661-1.166,2.828,1.115,6.11,3.97,7.185s6.036.59,9.053.168,6.266-.746,8.993.614,4.515,5.057,2.819,7.588c-1.5,2.221-4.99,2.752-5.9,5.273-.792,2.212,1.06,4.618,3.246,5.5s4.618.753,6.952,1.067,4.858,1.3,5.8,3.457a3.778,3.778,0,0,1,.233.691" transform="translate(0 -0.001)" fill="#37353f"/>
              </g>
            </g>
          </g>
          <g id="Groupe_4874" data-name="Groupe 4874" transform="translate(400.152 27.988)" opacity="0.7" style="mix-blend-mode: soft-light;isolation: isolate">
            <g id="Groupe_4873" data-name="Groupe 4873" transform="translate(0)">
              <g id="Groupe_4872" data-name="Groupe 4872" clip-path="url(#clip-path-4)">
                <path id="Tracé_8206" data-name="Tracé 8206" d="M26.379,69.572l-.031.012A20.118,20.118,0,0,0,4.8,62.262a34.311,34.311,0,0,1-4.8-16.547c-.185-5.836,4.26-10.435,10.027-11.354a3.944,3.944,0,0,0,.533-.12c2.814-.823,3.759-4.251,4.4-7.113A82.611,82.611,0,0,1,23.5,4.973C24.843,2.6,26.762.017,29.487,0c3.2-.017,5.239,3.687,5.136,6.892s-1.574,6.2-2.027,9.37c-.5,3.567,1.115,8.274,5.685,7.139a6.679,6.679,0,0,0,2.145-1.027q5.056-3.483,10.121-6.966c2.42-1.674,5.46-3.409,8.135-2.166,2.49,1.166,3.258,4.546,2.389,7.161s-2.927,4.623-4.925,6.534q-5.48,5.232-10.965,10.49c-1.7,1.626-3.517,4.116-2.214,6.062,1.082,1.626,3.469,1.473,5.381,1.1,2.1-.42,4.714-.7,5.788,1.391a3.361,3.361,0,0,1-.684,3.769c-2.224,2.389-5.481,2.2-8.173,3.452-2.068.96-3.817,3.438-2.72,5.419.593,1.055,1.852,1.732,1.454,3.217a2.86,2.86,0,0,1-1.821,1.874q-7.909,2.922-15.813,5.86" transform="translate(0 0)" fill="#37353f"/>
              </g>
            </g>
          </g>
          <g id="Groupe_4877" data-name="Groupe 4877" transform="translate(427.509 102.448)" opacity="0.7" style="mix-blend-mode: soft-light;isolation: isolate">
            <g id="Groupe_4876" data-name="Groupe 4876" transform="translate(0)">
              <g id="Groupe_4875" data-name="Groupe 4875" clip-path="url(#clip-path-5)">
                <path id="Tracé_8207" data-name="Tracé 8207" d="M50.714,54.42A31.156,31.156,0,0,1,36,39.324c-1.494-3.354-2.538-7.168-5.453-9.4-5.208-4-12.855-.631-19.248-2.173C6.2,26.524,2.629,22.427,0,17.711A20.154,20.154,0,0,0,2.931,5.556c4.91,2.718,11.253,2.536,16.816,1.07C26.224,4.937,32.267,1.777,38.8.384a10.157,10.157,0,0,1,5.078-.1,4.287,4.287,0,0,1,3.181,3.605c.139,3.167-4.042,4.783-5.076,7.784-.794,2.31.547,4.908,2.5,6.4s4.373,2.123,6.7,2.876,4.726,1.718,6.285,3.6a7.151,7.151,0,0,1-4.431,11.606c-2.212.345-4.966-.161-6.275,1.643-1.127,1.571-.261,3.817,1.034,5.232,1.312,1.425,3.032,2.5,3.973,4.174a6.544,6.544,0,0,1-1.043,7.221" transform="translate(0 0)" fill="#37353f"/>
              </g>
            </g>
          </g>
          <g id="Groupe_4880" data-name="Groupe 4880" transform="translate(364.391 46.286)" opacity="0.7" style="mix-blend-mode: soft-light;isolation: isolate">
            <g id="Groupe_4879" data-name="Groupe 4879" transform="translate(0 0)">
              <g id="Groupe_4878" data-name="Groupe 4878" clip-path="url(#clip-path-6)">
                <path id="Tracé_8208" data-name="Tracé 8208" d="M13.516,78.241A12.675,12.675,0,0,1,1.637,72.8,10.646,10.646,0,0,1,2.651,60.072c2.277-2.351,5.892-3.759,6.719-6.928.772-2.917-1.293-5.793-3.354-8-2.053-2.226-4.387-4.7-4.27-7.729.11-3.219,2.975-5.618,5.822-7.141s6.04-2.723,7.962-5.3c1.684-2.25,2.094-5.2,2.058-8.015s-.465-5.6-.233-8.406S18.6,2.86,20.847,1.173a5.682,5.682,0,0,1,6.964.036,113.827,113.827,0,0,0,4.817,47.1c.156.513.324,1.022.5,1.516a14.652,14.652,0,0,0-1.732,1.058,15.21,15.21,0,0,0-3.255,3.178,16.7,16.7,0,0,0-2.612,5.066,53.576,53.576,0,0,0-.4,8.2c.029.969.089,1.926.173,2.888-.17.3-.357.6-.542.892a15.838,15.838,0,0,1-11.243,7.129" transform="translate(-0.001 0.001)" fill="#37353f"/>
              </g>
            </g>
          </g>
          <path id="Tracé_8209" data-name="Tracé 8209" d="M4,3.954a1.7,1.7,0,0,0,.535-.688,1.706,1.706,0,0,0,.2-.849,1.725,1.725,0,0,0-.108-.892c-.091-.182-.185-.365-.278-.547A2.289,2.289,0,0,0,3.459.223C3.274.163,3.09.1,2.907.041A2.28,2.28,0,0,0,1.718.13l-.2.07A1.736,1.736,0,0,0,.756.677a1.725,1.725,0,0,0-.537.688,1.73,1.73,0,0,0-.2.849,1.711,1.711,0,0,0,.106.895c.094.18.187.362.278.545a2.286,2.286,0,0,0,.888.753l.554.182A2.256,2.256,0,0,0,3.035,4.5l.2-.07A1.715,1.715,0,0,0,4,3.954" transform="translate(398.157 87.035)" fill="#37353f"/>
          <path id="Tracé_8210" data-name="Tracé 8210" d="M4.021,4.088l.024-.036a1.757,1.757,0,0,0,.3-.3,1.7,1.7,0,0,0,.408-.768,1.686,1.686,0,0,0,.127-.866c-.041-.2-.082-.4-.125-.6A2.265,2.265,0,0,0,4.08.54C3.915.435,3.752.329,3.589.224A2.265,2.265,0,0,0,2.447.005a.679.679,0,0,0-.07,0C2.459,0,1.941.082,1.749.144l-.031.01c-.194.086-.384.187-.571.293L1.118.463,1.092.485C.933.619.777.756.631.9A.442.442,0,0,0,.59.958C.621.91.35,1.3.259,1.471L.242,1.5c-.072.19-.134.384-.19.578l-.01.036A3,3,0,0,0,0,2.774a1.755,1.755,0,0,0,.264.871,1.714,1.714,0,0,0,.537.71,1.742,1.742,0,0,0,.768.408,1.716,1.716,0,0,0,.866.127l.6-.125a2.291,2.291,0,0,0,.981-.676" transform="translate(399.544 77.994)" fill="#37353f"/>
          <path id="Tracé_8211" data-name="Tracé 8211" d="M3.578,4.288A2.266,2.266,0,0,0,4.331,3.4L4.4,3.266a1.706,1.706,0,0,0,.2-.849,1.737,1.737,0,0,0-.108-.895A1.694,1.694,0,0,0,4.012.759,1.7,1.7,0,0,0,3.324.224L2.77.042A2.249,2.249,0,0,0,1.582.131L1.038.409A2.25,2.25,0,0,0,.284,1.3L.22,1.431a1.706,1.706,0,0,0-.2.849,1.712,1.712,0,0,0,.108.895A1.694,1.694,0,0,0,.6,3.938a1.724,1.724,0,0,0,.688.535c.185.06.369.122.552.182a2.256,2.256,0,0,0,1.19-.089l.545-.278" transform="translate(407.288 83.638)" fill="#37353f"/>
          <path id="Tracé_8212" data-name="Tracé 8212" d="M4.444,1.467C3.468-1.3-.833.213.143,2.984s5.277,1.257,4.3-1.516" transform="translate(415.483 79.478)" fill="#37353f"/>
          <path id="Tracé_8213" data-name="Tracé 8213" d="M4.444,1.467C3.468-1.3-.833.213.143,2.984s5.277,1.257,4.3-1.516" transform="translate(417.361 85.76)" fill="#37353f"/>
          <path id="Tracé_8214" data-name="Tracé 8214" d="M3.9,3.954a1.7,1.7,0,0,0,.535-.688,1.706,1.706,0,0,0,.2-.849,1.728,1.728,0,0,0-.108-.892c-.091-.182-.185-.365-.278-.545A2.275,2.275,0,0,0,3.359.223C3.175.163,2.99.1,2.808.041A2.281,2.281,0,0,0,1.618.13l-.1.036A1.715,1.715,0,0,0,.754.643a1.724,1.724,0,0,0-.535.688,1.706,1.706,0,0,0-.2.849,1.728,1.728,0,0,0,.108.892c.094.182.185.365.278.545a2.275,2.275,0,0,0,.888.756c.185.06.369.12.554.182a2.273,2.273,0,0,0,1.187-.089l.1-.036A1.715,1.715,0,0,0,3.9,3.954" transform="translate(426.463 83.478)" fill="#37353f"/>
          <path id="Tracé_8215" data-name="Tracé 8215" d="M4.444,1.468C3.468-1.3-.833.211.143,2.984s5.277,1.255,4.3-1.516" transform="translate(423.903 91.294)" fill="#37353f"/>
          <path id="Tracé_8216" data-name="Tracé 8216" d="M4.444,1.467C3.468-1.3-.833.213.143,2.986s5.277,1.255,4.3-1.518" transform="translate(433.577 92.365)" fill="#37353f"/>
          <path id="Tracé_8217" data-name="Tracé 8217" d="M4.444,1.466C3.468-1.3-.833.212.143,2.982s5.277,1.257,4.3-1.516" transform="translate(428.659 97.796)" fill="#37353f"/>
          <path id="Tracé_8218" data-name="Tracé 8218" d="M3.812,4.189a1.7,1.7,0,0,0,.595-.643,1.73,1.73,0,0,0,.343-.8c.01-.2.022-.393.034-.59a2.27,2.27,0,0,0-.4-1.142l-.4-.439a2.32,2.32,0,0,0-1.044-.5L2.706.046a1.721,1.721,0,0,0-.89.026A1.758,1.758,0,0,0,.972.413a1.757,1.757,0,0,0-.595.643,1.726,1.726,0,0,0-.341.8L0,2.445A2.286,2.286,0,0,0,.4,3.589c.132.146.266.29.4.437a2.272,2.272,0,0,0,1.044.5c.077.012.156.022.233.031a1.7,1.7,0,0,0,.89-.026,1.726,1.726,0,0,0,.844-.341" transform="translate(437.307 102.208)" fill="#37353f"/>
          <path id="Tracé_8219" data-name="Tracé 8219" d="M4,3.954a1.7,1.7,0,0,0,.535-.688,1.706,1.706,0,0,0,.2-.849,1.7,1.7,0,0,0-.108-.892c-.091-.182-.185-.365-.278-.545A2.276,2.276,0,0,0,3.458.223C3.273.163,3.089.1,2.906.041A2.281,2.281,0,0,0,1.716.13l-.2.07A1.715,1.715,0,0,0,.755.677a1.7,1.7,0,0,0-.535.688,1.706,1.706,0,0,0-.2.849,1.712,1.712,0,0,0,.108.895c.091.182.185.362.278.545a2.27,2.27,0,0,0,.888.753c.182.062.367.122.552.182A2.256,2.256,0,0,0,3.033,4.5l.2-.07A1.715,1.715,0,0,0,4,3.954" transform="translate(430.855 105.751)" fill="#37353f"/>
          <path id="Tracé_8220" data-name="Tracé 8220" d="M4.442,1.467C3.468-1.3-.833.213.143,2.984s5.277,1.257,4.3-1.516" transform="translate(436.875 113.158)" fill="#37353f"/>
          <path id="Tracé_8221" data-name="Tracé 8221" d="M4.444,1.467C3.468-1.3-.833.213.143,2.984s5.277,1.257,4.3-1.516" transform="translate(429.964 115.48)" fill="#37353f"/>
          <path id="Tracé_8222" data-name="Tracé 8222" d="M4.444,1.468C3.468-1.3-.833.211.143,2.984s5.277,1.257,4.3-1.516" transform="translate(432.09 120.555)" fill="#37353f"/>
        </g>
      </g>
    </g>
  </g>
</svg>
