<svg xmlns="http://www.w3.org/2000/svg" xmlns:xlink="http://www.w3.org/1999/xlink" width="545.036" height="468.999" viewBox="0 0 545.036 468.999">
  <defs>
    <clipPath id="clip-path">
      <rect id="Rectangle_2341" data-name="Rectangle 2341" width="467.745" height="360.211" transform="translate(0 0)" fill="none"/>
    </clipPath>
    <clipPath id="clip-path-2">
      <rect id="Rectangle_2337" data-name="Rectangle 2337" width="32.34" height="90.083" transform="translate(0 0)" fill="none"/>
    </clipPath>
    <clipPath id="clip-path-3">
      <rect id="Rectangle_2338" data-name="Rectangle 2338" width="77.995" height="61.178" transform="translate(0 0)" fill="none"/>
    </clipPath>
    <clipPath id="clip-path-4">
      <rect id="Rectangle_2339" data-name="Rectangle 2339" width="48.849" height="72.766" transform="translate(0 0)" fill="none"/>
    </clipPath>
    <clipPath id="clip-path-5">
      <rect id="Rectangle_2340" data-name="Rectangle 2340" width="71.725" height="59.069" transform="translate(0 0)" fill="none"/>
    </clipPath>
  </defs>
  <g id="Groupe_4589" data-name="Groupe 4589" transform="matrix(0.966, -0.259, 0.259, 0.966, 0, 121.062)">
    <g id="Groupe_4588" data-name="Groupe 4588" clip-path="url(#clip-path)">
      <path id="Tracé_5617" data-name="Tracé 5617" d="M382.132,0S157.5-3.632,0,251.278l3.69,2.514S120.815,24.627,381.634,2.443" transform="translate(0 106.418)" fill="#4e4c57"/>
      <path id="Tracé_5618" data-name="Tracé 5618" d="M6.823,0A52.165,52.165,0,0,0,8.566,6.011C9.212,7.847,9.9,9.72,10.541,11.6a37.683,37.683,0,0,1,2.426,11.7,18.5,18.5,0,0,1-.577,4.908,16.5,16.5,0,0,1-3.741,6.9A17.451,17.451,0,0,1,0,40.4c.208.517.438,1.043.678,1.559A21,21,0,0,0,8.8,40.368c.438-.175.858-.364,1.273-.572A21.437,21.437,0,0,0,22.032,18.7a21.451,21.451,0,0,0-1.522-6.283c-.143-.351-.291-.683-.447-1.029A21.4,21.4,0,0,0,6.823,0" transform="translate(363.486 88.366)" fill="#37353f"/>
      <path id="Tracé_5619" data-name="Tracé 5619" d="M43.094,3.955c-3.271,3.561-4.774,8.322-6.772,12.741-.134.346-.291.674-.443,1A67.706,67.706,0,0,1,25.624,32.607l0,.014C19.863,39.351,13.451,45.694,8.736,53.19a55.916,55.916,0,0,0-4.17,8.031A57.889,57.889,0,0,0,1.028,94.55a57.049,57.049,0,0,0,2.7,9.4,58.664,58.664,0,0,0,9.77,16.542q.851,1.017,1.758,1.988a55.288,55.288,0,0,0,4.373,4.262,17.817,17.817,0,0,0,5.674,2.182,16.224,16.224,0,0,0,4.844.221,15.241,15.241,0,0,0,2.127-.387,17.361,17.361,0,0,0,12.391-12.188c1.421-5.508.014-11.127-1.85-16.616-.641-1.878-1.329-3.75-1.974-5.586A51.886,51.886,0,0,1,39.1,88.359c-1.25-5.614-1.31-11.408,1.877-15.993,4-5.766,12.478-8.5,13.784-15.375.733-3.847-1.139-7.625-2.325-11.348a33.132,33.132,0,0,1,1.578-23.729c.544-1.172,1.158-2.3,1.762-3.432a34.348,34.348,0,0,0,2.9-6.343c1.047-3.464.83-7.625-1.758-10.153C53.205-1.65,46.6.122,43.094,3.955" transform="translate(331.206 0.002)" fill="#dd2e20"/>
      <path id="Tracé_5620" data-name="Tracé 5620" d="M81.484.493C74.173-.84,66.413.669,59.406,3.335,51.167,6.463,43.6,11.094,35.585,14.743a59.809,59.809,0,0,1-16.2,5.116c.152.337.3.674.447,1.024A21.432,21.432,0,0,1,8.119,48.838,20.982,20.982,0,0,1,0,50.429a121.412,121.412,0,0,0,30.547,41.8,90.341,90.341,0,0,0,12.437,9.337,60.917,60.917,0,0,0,12.132,5.863c9.157,3.188,19.407,3.824,28.513.5s16.842-10.914,19.139-20.339C106,74.357,98.5,60.647,99.844,47.1c.641-6.514,3.312-12.727,3.594-19.25a27.394,27.394,0,0,0-18.2-26.409,26.415,26.415,0,0,0-3.75-.946" transform="translate(364.16 79.897)" fill="#dd2e20"/>
      <path id="Tracé_5621" data-name="Tracé 5621" d="M35.611.478A30.962,30.962,0,0,0,5.682,12.167,30.945,30.945,0,0,0,3.855,45a55.915,55.915,0,0,1,4.17-8.031c7.953-12.644,20.726-22.013,27.143-35.5.152-.328.309-.65.443-1" transform="translate(331.916 16.22)" fill="#a80000"/>
      <path id="Tracé_5622" data-name="Tracé 5622" d="M17.473,0c-.6,1.126-1.218,2.256-1.762,3.427-.194.42-.383.853-.563,1.282a33.19,33.19,0,0,0-1.015,22.442c1.186,3.732,3.063,7.505,2.325,11.353C15.153,45.383,6.674,48.118,2.679,53.88-.513,58.465-.453,64.259.8,69.878a21.468,21.468,0,0,1,10.951,7.6,21.81,21.81,0,0,1,2.288,3.787,59.789,59.789,0,0,0,16.2-5.107c8.013-3.649,15.583-8.285,23.822-11.408,7.007-2.676,14.766-4.184,22.078-2.842,4.318-3.976,6.9-9.77,7.833-15.629A36.225,36.225,0,0,0,57.482,5.522c-13.1-3.478-27.9.392-40.009-5.522" transform="translate(369.512 18.488)" fill="#b51410"/>
      <path id="Tracé_5623" data-name="Tracé 5623" d="M1.822,18.249A29.473,29.473,0,0,0,6.693,47.113C14.106,55.947,26,59.568,34.888,66.935c5.591,4.645,9.858,10.67,14.148,16.538,4.29,5.886,8.765,11.786,14.651,16.062s13.488,6.767,20.542,5.01A18.922,18.922,0,0,0,96.467,77.512,90.065,90.065,0,0,1,84.03,68.176c-.332-.3-.664-.6-1-.89A121.362,121.362,0,0,1,53.483,26.377c-.24-.521-.466-1.043-.678-1.559a15.707,15.707,0,0,1-6.97.161A17.817,17.817,0,0,1,40.16,22.8a57.218,57.218,0,0,1-6.131-6.246c-.664-.793-1.3-1.6-1.91-2.422A58.341,58.341,0,0,1,24.259,0,29.5,29.5,0,0,0,1.822,18.249" transform="translate(310.677 103.949)" fill="#b51410"/>
      <g id="Groupe_4578" data-name="Groupe 4578" transform="translate(331.207 32.619)" opacity="0.7" style="mix-blend-mode: soft-light;isolation: isolate">
        <g id="Groupe_4577" data-name="Groupe 4577" transform="translate(0)">
          <g id="Groupe_4576" data-name="Groupe 4576" clip-path="url(#clip-path-2)">
            <path id="Tracé_5624" data-name="Tracé 5624" d="M25.627,0C19.86,6.735,13.453,13.073,8.734,20.574a55.888,55.888,0,0,0-4.166,8.031A57.891,57.891,0,0,0,1.026,61.934a56.882,56.882,0,0,0,2.708,9.4A58.6,58.6,0,0,0,13.5,87.882c.563.673,1.149,1.338,1.758,1.984a4.826,4.826,0,0,0,4-.484c2.569-1.707,2.145-5.752.406-8.308s-4.415-4.392-6-7.039A10.49,10.49,0,0,1,19.122,58.77c1.661-.6,3.483-.8,5.019-1.661,1.532-.881,2.708-2.819,1.928-4.4C25.05,50.669,22.056,51.015,20,50.033c-2.934-1.425-3.446-5.656-1.933-8.534s4.387-4.747,7.086-6.55,5.517-3.847,6.726-6.86c1.213-3.031.009-7.229-3.137-8.04-2.768-.706-5.923,1.347-8.433-.014-2.2-1.2-2.431-4.428-1.319-6.68s3.141-3.875,4.779-5.78S26.711,3.1,25.931.715a3.968,3.968,0,0,0-.3-.715" transform="translate(0 -0.001)" fill="#37353f"/>
          </g>
        </g>
      </g>
      <g id="Groupe_4581" data-name="Groupe 4581" transform="translate(373.554 100.262)" opacity="0.7" style="mix-blend-mode: soft-light;isolation: isolate">
        <g id="Groupe_4580" data-name="Groupe 4580" transform="translate(0 0)">
          <g id="Groupe_4579" data-name="Groupe 4579" clip-path="url(#clip-path-3)">
            <path id="Tracé_5625" data-name="Tracé 5625" d="M11.994,6.784l-.032.014A21.444,21.444,0,0,1,0,27.9a36.557,36.557,0,0,0,7.911,16.57c3.99,4.774,10.79,5.287,16.03,1.928a4.821,4.821,0,0,1,.507-.281c2.828-1.338,6.006.72,8.548,2.542a88.142,88.142,0,0,0,22.5,11.588c2.749.936,6.108,1.633,8.29-.286,2.556-2.251,1.555-6.647-.8-9.125s-5.646-3.82-8.257-6.02c-2.929-2.486-4.973-7.376-.53-9.715a7.087,7.087,0,0,1,2.431-.7c4.332-.544,8.654-1.084,12.995-1.633,3.114-.383,6.763-1.153,8.008-4.041,1.158-2.689-.627-5.928-3.169-7.39s-5.609-1.605-8.553-1.711q-8.075-.284-16.164-.577c-2.5-.092-5.716-.784-6.061-3.257-.291-2.062,1.721-3.63,3.506-4.691,1.965-1.153,4.249-2.782,3.621-5.213a3.585,3.585,0,0,0-3.22-2.514c-3.46-.323-5.923,2.131-8.949,3.045-2.325.706-5.476-.028-6.006-2.385C32.36,2.77,32.881,1.34,31.511.441a3.056,3.056,0,0,0-2.777-.2q-8.366,3.28-16.741,6.546" transform="translate(0.002 0.003)" fill="#37353f"/>
          </g>
        </g>
      </g>
      <g id="Groupe_4584" data-name="Groupe 4584" transform="translate(369.513 23.195)" opacity="0.7" style="mix-blend-mode: soft-light;isolation: isolate">
        <g id="Groupe_4583" data-name="Groupe 4583" transform="translate(0)">
          <g id="Groupe_4582" data-name="Groupe 4582" clip-path="url(#clip-path-4)">
            <path id="Tracé_5626" data-name="Tracé 5626" d="M15.144,0a33.175,33.175,0,0,0-1.01,22.447c1.186,3.727,3.058,7.505,2.325,11.353C15.149,40.673,6.67,43.408,2.675,49.17-.513,53.76-.453,59.549.8,65.168a21.475,21.475,0,0,1,10.947,7.6c1.984-5.642,7.159-10,12.63-12.773,6.352-3.243,13.4-5.014,19.587-8.529a10.849,10.849,0,0,0,4.11-3.524,4.563,4.563,0,0,0-.023-5.125c-2.136-2.616-6.606-.941-9.558-2.6-2.27-1.278-3.045-4.295-2.546-6.86s1.979-4.788,3.294-7.035S41.78,21.6,41.687,19a7.624,7.624,0,0,0-11.754-6.1c-2,1.3-3.838,3.649-6.158,3.141-2.011-.452-2.915-2.851-2.888-4.9s.646-4.138.208-6.135A6.988,6.988,0,0,0,15.144,0" transform="translate(0.003 -0.002)" fill="#37353f"/>
          </g>
        </g>
      </g>
      <g id="Groupe_4587" data-name="Groupe 4587" transform="translate(321.987 117.154)" opacity="0.7" style="mix-blend-mode: soft-light;isolation: isolate">
        <g id="Groupe_4586" data-name="Groupe 4586" transform="translate(0 0)">
          <g id="Groupe_4585" data-name="Groupe 4585" clip-path="url(#clip-path-5)">
            <path id="Tracé_5627" data-name="Tracé 5627" d="M5.744,2.892a13.506,13.506,0,0,0-5.6,12.755c.78,4.83,4.954,9.028,9.826,9.411,3.478.254,7.353-1.186,10.259.747,2.685,1.776,3.077,5.526,3,8.751-.055,3.225-.161,6.855,2.08,9.18,2.371,2.482,6.352,2.362,9.7,1.555s6.735-2.113,10.093-1.425c2.934.6,5.351,2.652,7.316,4.922s3.6,4.788,5.775,6.85,5.028,3.654,8.008,3.4c2.671-.212,5.259-2.362,5.517-4.964A121.317,121.317,0,0,1,42.173,13.17c-.235-.517-.466-1.043-.678-1.559A15.238,15.238,0,0,1,39.368,12a16.088,16.088,0,0,1-4.844-.226A17.849,17.849,0,0,1,28.85,9.6a57.644,57.644,0,0,1-6.126-6.251c-.669-.789-1.3-1.6-1.914-2.422C20.459.807,20.1.7,19.744.6a16.862,16.862,0,0,0-14,2.293" transform="translate(0 0.002)" fill="#37353f"/>
          </g>
        </g>
      </g>
      <path id="Tracé_5628" data-name="Tracé 5628" d="M2.663.009a1.834,1.834,0,0,1,.913.166A1.83,1.83,0,0,1,4.338.71a1.827,1.827,0,0,1,.549.789c.055.208.111.42.166.632a2.384,2.384,0,0,1-.175,1.227c-.1.18-.2.36-.309.54a2.413,2.413,0,0,1-1.01.77l-.208.088a1.812,1.812,0,0,1-.946.157,1.793,1.793,0,0,1-.913-.166,1.79,1.79,0,0,1-.761-.535,1.824,1.824,0,0,1-.549-.784L.016,2.8A2.451,2.451,0,0,1,.191,1.564c.1-.175.2-.355.309-.535A2.462,2.462,0,0,1,1.51.253L1.718.17A1.815,1.815,0,0,1,2.663.009" transform="translate(368.139 129.546)" fill="#37353f"/>
      <path id="Tracé_5629" data-name="Tracé 5629" d="M2.777.022l.042.018a1.491,1.491,0,0,1,.452.023,1.816,1.816,0,0,1,.867.318,1.88,1.88,0,0,1,.72.6c.106.189.212.378.323.572A2.389,2.389,0,0,1,5.337,2.8l-.166.6a2.455,2.455,0,0,1-.752.983l-.06.042a5.619,5.619,0,0,1-.6.346l-.032.009c-.217.069-.438.125-.66.175l-.037,0L3,4.972c-.221,0-.443,0-.66-.009l-.074-.018a5.23,5.23,0,0,1-.627-.166L1.6,4.755a5.712,5.712,0,0,1-.563-.323l-.032-.023A2.911,2.911,0,0,1,.512,3.92a1.839,1.839,0,0,1-.406-.881,1.78,1.78,0,0,1-.074-.946,1.816,1.816,0,0,1,.318-.867A1.837,1.837,0,0,1,.95.511C1.139.4,1.329.294,1.518.179A2.448,2.448,0,0,1,2.777.022" transform="translate(375.462 135.622)" fill="#37353f"/>
      <path id="Tracé_5630" data-name="Tracé 5630" d="M2.127.018A2.449,2.449,0,0,1,3.358.188L3.5.253a1.78,1.78,0,0,1,.761.53,1.827,1.827,0,0,1,.549.789,1.815,1.815,0,0,1,.161.946,1.843,1.843,0,0,1-.166.913c-.106.18-.208.36-.314.54a2.413,2.413,0,0,1-1.01.77l-.627.166a2.451,2.451,0,0,1-1.232-.175l-.148-.06a1.848,1.848,0,0,1-.761-.535,1.824,1.824,0,0,1-.549-.784,1.819,1.819,0,0,1-.157-.946,1.785,1.785,0,0,1,.166-.913c.106-.18.208-.36.314-.54A2.371,2.371,0,0,1,1.495.184L2.127.018" transform="translate(377.782 125.801)" fill="#37353f"/>
      <path id="Tracé_5631" data-name="Tracé 5631" d="M4.695,1.458C5.88,4.35,1.383,6.2.2,3.3s3.312-4.738,4.5-1.841" transform="translate(387.374 123.494)" fill="#37353f"/>
      <path id="Tracé_5632" data-name="Tracé 5632" d="M4.695,1.458C5.88,4.35,1.383,6.2.2,3.3s3.312-4.738,4.5-1.841" transform="translate(384.417 117.16)" fill="#37353f"/>
      <path id="Tracé_5633" data-name="Tracé 5633" d="M2.559.009A1.806,1.806,0,0,1,3.473.18a1.78,1.78,0,0,1,.761.53,1.866,1.866,0,0,1,.549.789c.055.208.111.42.166.632a2.426,2.426,0,0,1-.175,1.227c-.1.18-.208.36-.309.54a2.413,2.413,0,0,1-1.01.77l-.1.042a1.83,1.83,0,0,1-.946.161A1.86,1.86,0,0,1,1.489,4.7,1.891,1.891,0,0,1,.728,4.17a1.867,1.867,0,0,1-.549-.789c-.051-.208-.106-.42-.161-.627A2.449,2.449,0,0,1,.188,1.522C.294,1.342.4,1.162.5.987A2.423,2.423,0,0,1,1.508.212L1.614.17A1.815,1.815,0,0,1,2.559.009" transform="translate(393.218 112.386)" fill="#37353f"/>
      <path id="Tracé_5634" data-name="Tracé 5634" d="M4.695,1.458C5.88,4.35,1.383,6.2.2,3.3s3.312-4.738,4.5-1.841" transform="translate(385.704 108.119)" fill="#37353f"/>
      <path id="Tracé_5635" data-name="Tracé 5635" d="M4.695,1.458C5.88,4.35,1.383,6.2.2,3.3s3.312-4.738,4.5-1.841" transform="translate(392.646 100.41)" fill="#37353f"/>
      <path id="Tracé_5636" data-name="Tracé 5636" d="M4.695,1.458C5.88,4.35,1.383,6.2.2,3.3s3.312-4.738,4.5-1.841" transform="translate(384.878 99.576)" fill="#37353f"/>
      <path id="Tracé_5637" data-name="Tracé 5637" d="M2.288.024A1.874,1.874,0,0,1,3.22.111a1.868,1.868,0,0,1,.835.4c.148.148.3.3.447.443a2.419,2.419,0,0,1,.489,1.195c0,.212,0,.42,0,.632a2.44,2.44,0,0,1-.48,1.135l-.161.194a1.862,1.862,0,0,1-.729.609,1.884,1.884,0,0,1-.913.328,1.8,1.8,0,0,1-.927-.092,1.807,1.807,0,0,1-.84-.392L.489,4.115A2.479,2.479,0,0,1,0,2.916c0-.208,0-.42,0-.627a2.477,2.477,0,0,1,.48-1.139C.54,1.089.6,1.025.65.96A1.781,1.781,0,0,1,1.375.351,1.839,1.839,0,0,1,2.288.024" transform="translate(388.609 89.648)" fill="#37353f"/>
      <path id="Tracé_5638" data-name="Tracé 5638" d="M2.663.009A1.806,1.806,0,0,1,3.577.18a1.78,1.78,0,0,1,.761.53,1.866,1.866,0,0,1,.549.789c.055.208.111.42.166.632a2.426,2.426,0,0,1-.175,1.227c-.1.18-.2.36-.309.54a2.413,2.413,0,0,1-1.01.77l-.208.088a1.811,1.811,0,0,1-.946.157,1.793,1.793,0,0,1-.913-.166,1.79,1.79,0,0,1-.761-.535,1.824,1.824,0,0,1-.549-.784L.016,2.8A2.451,2.451,0,0,1,.191,1.564c.1-.175.2-.355.309-.535A2.462,2.462,0,0,1,1.51.253L1.718.17A1.815,1.815,0,0,1,2.663.009" transform="translate(380.899 91.471)" fill="#37353f"/>
      <path id="Tracé_5639" data-name="Tracé 5639" d="M4.695,1.458C5.88,4.35,1.383,6.2.2,3.3s3.312-4.738,4.5-1.841" transform="translate(380.533 81.525)" fill="#37353f"/>
      <path id="Tracé_5640" data-name="Tracé 5640" d="M4.695,1.46C5.88,4.352,1.383,6.2.2,3.3s3.312-4.742,4.5-1.841" transform="translate(373.382 84.567)" fill="#37353f"/>
      <path id="Tracé_5641" data-name="Tracé 5641" d="M4.695,1.458C5.88,4.35,1.383,6.2.2,3.3s3.312-4.738,4.5-1.841" transform="translate(371.477 79.025)" fill="#37353f"/>
      <path id="Tracé_5642" data-name="Tracé 5642" d="M21.058,71.622c3.9,5.485,8.054,9.835,12.423,11.938a12.2,12.2,0,0,0,9.821.7,15.713,15.713,0,0,0-.24-3.506c-1.153-6.846-5.439-17.848-6.352-21.391,16.911,1.818,20.177,51.942,45.074,51.509a25.786,25.786,0,0,0,10.093-2.588c.231-4.147-.95-6.523-2.616-9.369a56.493,56.493,0,0,1-3.769-7.076c-.328-.766-.646-1.564-.946-2.459a62.638,62.638,0,0,1-2.8-12.557c13.189,19.619,42.029,24.011,58.71,22.138l.023-.014c6.089-.692,10.508-2.219,12.017-4.147a2.308,2.308,0,0,0,.563-1.236,5.184,5.184,0,0,0-.115-1.329l.018-.014c-1.532-8.894-17.829-49.977-48.127-49-1.412-.793,15.91-8.677,17.686-14.66a12.426,12.426,0,0,0-5.01-5.43c-4.821-2.685-11.311-1.5-18.069.946-8.188,2.934-16.782,7.69-23.3,9.609a10.726,10.726,0,0,1,1.845-2.265c4.106-3.889,10.278-3.99,14.868-14.333-7.155-3.418-15.025-2.016-22.018.54-9.2,3.321-17,8.645-19.905,7.653.369-.42.816-.895,1.31-1.43l.018-.014C57.031,18.688,66.718,8.59,67.783.951,63.1-.895,56.233.1,48.63,2.63,31.055,8.516,9.4,22.664,1.209,29.1c-.447.355-.84.7-1.209,1,.152.332.286.674.438,1,4.9,11.117,12.081,28.536,20.62,40.516" transform="translate(200.463 155.882)" fill="#37353f"/>
      <path id="Tracé_5643" data-name="Tracé 5643" d="M181.946,88.965A196.6,196.6,0,0,0,140.54,60.452c9.212-.231,18.687,1.075,26.511,6.274.249.161.54-.171.3-.351-8.077-6.075-19.052-8.28-29.025-7.076a315.874,315.874,0,0,0-37.854-16.132c15.366-5.3,31.1-9.927,45.623-17.317.263-.134.129-.581-.161-.452C130.594,32.132,114.6,37.216,98.741,42.544c-2.431-.853-4.867-1.7-7.312-2.509q-6.691-2.228-13.47-4.267c13.3-3.8,25.4-12.64,38.053-17.977a.377.377,0,0,0-.249-.71c-13.784,5-26.635,12.432-40.216,17.981-7.362-2.191-14.794-4.235-22.272-6.071A468.041,468.041,0,0,1,93.879.639c.392-.24-.009-.816-.406-.586A393.021,393.021,0,0,0,51.952,28.073a.726.726,0,0,0-.3.54,410.08,410.08,0,0,0-49.65-8.958L0,20.95c16.432,2.436,32.785,5.439,48.958,9.184,3.667,6.246,7.658,12.054,10.739,18.72,3.4,7.344,6.44,14.845,9.512,22.327.161.4.789.18.632-.221C66.51,62.454,63.286,53.9,59.369,45.635c-2.376-5.005-4.894-11.154-9.018-15.181,13.576,3.183,27.032,6.873,40.3,11.251.549.18,1.107.369,1.651.554,9.18,11.74,13.691,26,19.135,39.69.194.484.955.221.77-.272-4.885-13.47-9.48-27.023-17.862-38.731,11.14,3.764,22.405,7.994,33.394,12.9,4.608,9.484,11.643,19.937,20.745,25.51.032.018.065-.032.037-.055-8.6-5.951-13.641-15.836-18.969-24.633q3.937,1.792,7.828,3.7c.032.037.1.042.143.069,15.933,7.87,31.009,17.34,43.925,29.127.369.337.872-.258.5-.6" transform="translate(166.41 160.035)" fill="#4e4c57"/>
      <path id="Tracé_5644" data-name="Tracé 5644" d="M68.608,134.119c6.3-3.224,11.449-6.892,14.3-11.117a12.825,12.825,0,0,0,2.219-10.112,16.633,16.633,0,0,0-3.686-.281c-7.293.161-19.388,2.952-23.213,3.372,4.447-17.322,57.1-13.133,60.412-39.1a27.14,27.14,0,0,0-1.167-10.9c-4.276-.867-6.929,0-10.139,1.305A59.54,59.54,0,0,1,99.4,70.136c-.844.221-1.725.434-2.7.614a65.517,65.517,0,0,1-13.488,1.015c22.41-10.748,31.345-40.092,31.922-57.736l-.014-.018c.208-6.444-.715-11.274-2.491-13.133a2.419,2.419,0,0,0-1.2-.775,5.257,5.257,0,0,0-1.4-.078L110.009,0c-9.484.249-54.7,10.984-58.271,42.661C50.7,44,45.118,24.786,39.163,22.032a13.135,13.135,0,0,0-6.412,4.392C29.226,31.036,29.485,37.97,31,45.369c1.813,8.963,5.462,18.623,6.467,25.7A11.428,11.428,0,0,1,35.394,68.8C31.971,63.945,32.8,57.51,22.731,51.163c-4.641,6.933-4.373,15.329-2.768,23,2.062,10.075,6.421,18.992,4.945,21.866-.378-.447-.8-.987-1.287-1.578l-.014-.023C18.976,88.68,9.939,77.069,2.148,74.8-.481,79.394-.486,86.692,1,94.986c3.46,19.176,14.9,43.856,20.362,53.349.3.517.6.978.863,1.407.364-.106.743-.194,1.107-.3,12.307-3.414,31.516-8.253,45.277-15.32" transform="translate(128.617 20.938)" fill="#37353f"/>
      <path id="Tracé_5645" data-name="Tracé 5645" d="M105.932.1A207.012,207.012,0,0,0,70,38.868c1.158-9.623,3.949-19.282,10.541-26.64.208-.231-.1-.581-.323-.364C72.672,19.355,68.719,30.436,68.46,41A331.781,331.781,0,0,0,45.944,77.941c-3.188-16.791-5.623-33.855-11.108-50.083-.1-.3-.586-.226-.5.092,4.687,16.976,7.551,34.39,10.7,51.7q-1.889,3.605-3.723,7.224-3.328,6.622-6.477,13.368C32.9,85.82,25.532,71.9,21.9,57.925a.4.4,0,0,0-.78.152c3.118,15.1,8.9,29.6,12.621,44.566-3.4,7.335-6.643,14.748-9.687,22.258A491.549,491.549,0,0,1,.7,78.356c-.194-.447-.849-.106-.669.337A411.873,411.873,0,0,0,22.9,126.133a.787.787,0,0,0,.517.4,430.823,430.823,0,0,0-16.837,50.3l1.919-.392c5.024-16.727,9.747-30.612,16.095-46.877,7.053-2.874,13.7-6.14,21.1-8.345,8.151-2.422,16.418-4.452,24.666-6.509.443-.111.309-.793-.134-.692-9.355,2.177-18.747,4.23-27.932,7.058-5.573,1.716-12.349,3.409-17.16,7.081,5.365-13.645,11.242-27.088,17.8-40.225.272-.544.554-1.089.826-1.633,13.6-7.773,29.127-10.31,44.193-13.9a.43.43,0,0,0-.166-.844c-14.752,3.049-29.551,5.775-43,12.727,5.6-11.03,11.708-22.106,18.475-32.8,10.568-3.358,22.507-9.092,29.685-17.723.023-.028-.028-.065-.051-.042-7.492,8.045-18.544,11.8-28.5,16.007q2.463-3.826,5.037-7.584c.042-.032.055-.092.092-.138,10.6-15.389,22.737-29.639,36.955-41.3.406-.332-.138-.941-.544-.609" transform="translate(132.861 26.239)" fill="#4e4c57"/>
    </g>
  </g>
</svg>
