<svg xmlns="http://www.w3.org/2000/svg" width="520.265" height="65.731" viewBox="0 0 520.265 65.731">
  <g id="Groupe_5233" data-name="Groupe 5233" transform="translate(-706.301 -1014.901)">
    <g id="Groupe_5231" data-name="Groupe 5231" transform="translate(1053.289 1038.891)">
      <path id="Tracé_55088" data-name="Tracé 55088" d="M156.4,142.641c0-8.048-4.582-12.125-11.579-12.125-7.185,0-12.571,4.582-12.571,14.081v15.757h-1.177V142.641c0-8.048-4.582-12.125-11.581-12.125-7.245,0-12.571,4.582-12.571,14.081v15.757h-1.238V130.18h1.238v7.991c1.734-6.035,6.751-8.661,12.571-8.661,5.945,0,11.086,2.849,12.386,9.556,1.546-6.649,6.811-9.556,12.942-9.556,6.936,0,12.756,3.912,12.756,13.243v17.6H156.4Z" transform="translate(-105.687 -119.004)" fill="#fff"/>
      <path id="Tracé_55089" data-name="Tracé 55089" d="M163.315,160.656c-9.289,0-16.348-5.756-16.348-15.478s7.059-15.478,16.348-15.478,16.286,5.756,16.286,15.478-7,15.478-16.286,15.478m0-1.005c7.679,0,15.048-4.471,15.048-14.473s-7.368-14.471-15.048-14.471-15.109,4.469-15.109,14.471,7.43,14.473,15.109,14.473" transform="translate(-86.4 -118.914)" fill="#fff"/>
      <path id="Tracé_55090" data-name="Tracé 55090" d="M190.625,160.656c-9.289,0-16.348-5.756-16.348-15.478s7.059-15.478,16.348-15.478,16.286,5.756,16.286,15.478-7,15.478-16.286,15.478m0-1.005c7.679,0,15.048-4.471,15.048-14.473s-7.368-14.471-15.048-14.471-15.11,4.469-15.11,14.471,7.43,14.473,15.11,14.473" transform="translate(-73.64 -118.914)" fill="#fff"/>
      <path id="Tracé_55091" data-name="Tracé 55091" d="M217.871,133.135c7.988,0,13.377,4.246,15.11,9.61v-20.4h1.177V163.7h-1.177v-9.276c-1.733,5.42-7.122,9.668-15.11,9.668-9.6,0-16.286-5.867-16.286-15.478s6.688-15.478,16.286-15.478m0,1.005c-9.166,0-15.048,5.476-15.048,14.473s5.882,14.471,15.048,14.471c8.731,0,15.11-5.756,15.11-14.471s-6.378-14.473-15.11-14.473" transform="translate(-60.881 -122.349)" fill="#fff"/>
    </g>
    <g id="Groupe_5232" data-name="Groupe 5232" transform="translate(706.301 1014.901)">
      <path id="Tracé_55084" data-name="Tracé 55084" d="M0,81.283H33.12q8.632,0,12.659,3a9.306,9.306,0,0,1,4.03,7.813q0,7.694-7.927,14.564t-16.3,6.868a17.442,17.442,0,0,1-3.821-.449,27.813,27.813,0,0,1-4.132-1.3v20.157q0,7.23,7.952,7.458v2.265H0v-2.265q4.71-.046,6.331-1.595t1.621-5.863V91.006q0-4.578-1.777-5.973T0,83.548Zm17.633,5.291v18.869a30.88,30.88,0,0,0,6.356,3.405,15.974,15.974,0,0,0,5.624,1.134q4.917,0,7.379-2.978t2.458-8.938a16.637,16.637,0,0,0-3.165-10.332q-3.167-4.184-9.182-4.185a17.037,17.037,0,0,0-9.469,3.025" transform="translate(0 -77.459)" fill="#fff"/>
      <path id="Tracé_55086" data-name="Tracé 55086" d="M151.192,97.032l13.559-5h2.189v15.563q7.533-9.083,12.4-12.322a16.768,16.768,0,0,1,9.207-3.241q8.841,0,8.843,10.243v24.735q0,4.2,1.909,5.737t6.095,1.629v2.265H187.188v-2.265a2.047,2.047,0,0,0,2.2-2.309V102.926a5.479,5.479,0,0,0-1.413-3.937A4.827,4.827,0,0,0,184.31,97.5q-6.592,0-12.269,8.416a33.714,33.714,0,0,0-5.677,19.306q0,5.515,1.882,7.283t6.7,1.863v2.265H151.192v-2.265q4.21-.095,6.055-1.654t1.844-5.712V102.885q0-4.672-3.43-4.673a15.92,15.92,0,0,0-4.469,1.18Z" transform="translate(70.641 -72.439)" fill="#fff"/>
      <path id="Tracé_55087" data-name="Tracé 55087" d="M233.685,124.743q-11.669,13.216-22.758,13.217a18.686,18.686,0,0,1-13.761-6.112,20.074,20.074,0,0,1-5.964-14.515,25.215,25.215,0,0,1,7.09-17.442q7.087-7.765,16.715-7.766,7.743,0,12.3,4.958a18.258,18.258,0,0,1,4.813,12.083H198.37c-.072,1.23-.1,2.125-.1,2.692a20.358,20.358,0,0,0,4.917,13.949,15.527,15.527,0,0,0,12.137,5.593q9,0,18.365-9.772Zm-10.15-17.938a13.384,13.384,0,0,0-3.925-8.638,11.058,11.058,0,0,0-7.8-3.069,12.276,12.276,0,0,0-8.422,3.329,13.953,13.953,0,0,0-4.55,8.378Z" transform="translate(89.334 -72.394)" fill="#fff"/>
      <path id="Tracé_55092" data-name="Tracé 55092" d="M34.7,97.1l13.761-5.052h2.3v15.341q5.39-8.308,9.626-11.777a13.62,13.62,0,0,1,8.685-3.47,15.007,15.007,0,0,1,4.133.709v14.539H69.488Q69.436,98.842,64,98.842q-5.388,0-9.6,7.954A37.9,37.9,0,0,0,50.183,124.8q0,5.947,2.434,7.743T61.9,134.34v2.265H34.7V134.34q4.289-.095,6.174-1.677t1.884-5.688v-24.5q0-4.153-3.4-4.154A17.739,17.739,0,0,0,34.7,99.361Z" transform="translate(16.211 -72.432)" fill="#fff"/>
      <path id="Tracé_55093" data-name="Tracé 55093" d="M63.9,140.61q4.03-.095,6.017-1.583t1.988-5.782v-25.82q0-2.976-3.768-2.974a8.445,8.445,0,0,0-2.981.615,9.679,9.679,0,0,1-1.256.424v-2.408l13.437-4.768h2.572v34.932q0,4.2,1.937,5.737t6.068,1.629v2.265H63.9ZM75.777,78.677a5.184,5.184,0,0,1,3.689,1.345A4.225,4.225,0,0,1,80.9,83.208a4.121,4.121,0,0,1-1.464,3.163,5.421,5.421,0,0,1-7.065.023,4.225,4.225,0,0,1,.054-6.443,5.084,5.084,0,0,1,3.348-1.275" transform="translate(29.856 -78.677)" fill="#fff"/>
      <path id="Tracé_55094" data-name="Tracé 55094" d="M88.068,122.082q.42,6.138,3.9,9.536a11.519,11.519,0,0,0,8.344,3.4A9.7,9.7,0,0,0,106.9,132.8a7.106,7.106,0,0,0,2.563-5.618,7.213,7.213,0,0,0-1.934-5.1,38.928,38.928,0,0,0-7.8-5.333q-4.131-2.361-7.534-4.415a13.71,13.71,0,0,1-4.708-4.177,7.961,7.961,0,0,1-1.36-4.342q0-4.578,4.683-8.167T103.24,92.06A31.707,31.707,0,0,1,113.5,93.948v12.367h-3.768a11.471,11.471,0,0,0-3.244-8.4,10.117,10.117,0,0,0-7.324-3.163,6.13,6.13,0,0,0-4.578,1.677,5.434,5.434,0,0,0-1.648,3.941,5.932,5.932,0,0,0,1.882,4.391,35.719,35.719,0,0,0,7.377,5q9.523,5.427,11.929,7.646a7.854,7.854,0,0,1,2.406,6q0,5.9-5.781,10.243a21.564,21.564,0,0,1-13.315,4.343,36.531,36.531,0,0,1-12.922-2.833V122.082Z" transform="translate(39.486 -72.424)" fill="#fff"/>
      <path id="Tracé_55095" data-name="Tracé 55095" d="M128.475,82.827v2.455q-3.295.706-3.3,6.7a14.684,14.684,0,0,0,.759,5.665,5.947,5.947,0,0,0,2.67,2.644,10.7,10.7,0,0,0,5.1,1.039h4.343v2.125H125.233v30.306a3.3,3.3,0,0,0,.653,2.217,2.451,2.451,0,0,0,1.963.757q2.562,0,7.637-3.778c.384-.283.679-.487.889-.613v2.738q-8.92,7.223-14.217,7.223a4.251,4.251,0,0,1-3.7-1.724,8.786,8.786,0,0,1-1.232-5.121v-32h-8.005v-2.125q4.6,0,6.541-1.654t1.937-5.8V86.746Z" transform="translate(51.031 -76.738)" fill="#fff"/>
      <path id="Tracé_55096" data-name="Tracé 55096" d="M63.9,140.61q4.03-.095,6.017-1.583t1.988-5.782v-25.82q0-2.976-3.768-2.974a8.445,8.445,0,0,0-2.981.615,9.679,9.679,0,0,1-1.256.424v-2.408l13.437-4.768h2.572v34.932q0,4.2,1.937,5.737t6.068,1.629v2.265H63.9ZM75.777,78.677a5.184,5.184,0,0,1,3.689,1.345A4.225,4.225,0,0,1,80.9,83.208a4.121,4.121,0,0,1-1.464,3.163,5.421,5.421,0,0,1-7.065.023,4.225,4.225,0,0,1,.054-6.443,5.084,5.084,0,0,1,3.348-1.275" transform="translate(29.856 -78.677)" fill="#fff"/>
      <path id="Tracé_55097" data-name="Tracé 55097" d="M63.9,140.61q4.03-.095,6.017-1.583t1.988-5.782v-25.82q0-2.976-3.768-2.974a8.445,8.445,0,0,0-2.981.615,9.679,9.679,0,0,1-1.256.424v-2.408l13.437-4.768h2.572v34.932q0,4.2,1.937,5.737t6.068,1.629v2.265H63.9ZM75.777,78.677a5.184,5.184,0,0,1,3.689,1.345A4.225,4.225,0,0,1,80.9,83.208a4.121,4.121,0,0,1-1.464,3.163,5.421,5.421,0,0,1-7.065.023,4.225,4.225,0,0,1,.054-6.443,5.084,5.084,0,0,1,3.348-1.275" transform="translate(130.409 -78.677)" fill="#fff"/>
    </g>
  </g>
</svg>
