<svg xmlns="http://www.w3.org/2000/svg" xmlns:xlink="http://www.w3.org/1999/xlink" width="165.658" height="132.954" viewBox="0 0 165.658 132.954">
  <defs>
    <clipPath id="clip-path">
      <rect id="Rectangle_2504" data-name="Rectangle 2504" width="165.658" height="132.954" fill="#fff"/>
    </clipPath>
    <clipPath id="clip-path-2">
      <rect id="Rectangle_2503" data-name="Rectangle 2503" width="165.659" height="132.957" fill="#fff"/>
    </clipPath>
  </defs>
  <g id="Groupe_5002" data-name="Groupe 5002" transform="translate(18 -48)" style="isolation: isolate">
    <g id="Groupe_5001" data-name="Groupe 5001" transform="translate(-18 48)" clip-path="url(#clip-path)">
      <g id="Groupe_5000" data-name="Groupe 5000" transform="translate(0 -0.003)">
        <g id="Groupe_4999" data-name="Groupe 4999" clip-path="url(#clip-path-2)">
          <g id="Groupe_4998" data-name="Groupe 4998" transform="translate(0 0.003)" style="mix-blend-mode: multiply;isolation: isolate">
            <g id="Groupe_4997" data-name="Groupe 4997" transform="translate(0 0)">
              <g id="Groupe_4996" data-name="Groupe 4996" clip-path="url(#clip-path)">
                <path id="Tracé_18648" data-name="Tracé 18648" d="M23.481,10.35A6.515,6.515,0,1,1,17.6,3.26a6.511,6.511,0,0,1,5.88,7.09" transform="translate(75.205 23.186)" fill="#fff"/>
                <path id="Tracé_18649" data-name="Tracé 18649" d="M13,12.226a6.43,6.43,0,0,1-7.057,5.839,6.488,6.488,0,1,1,1.2-12.92A6.475,6.475,0,0,1,13,12.226" transform="translate(-0.001 36.651)" fill="#fff"/>
                <path id="Tracé_18650" data-name="Tracé 18650" d="M22.553,13.864a6.513,6.513,0,1,1-5.9-7.09,6.511,6.511,0,0,1,5.9,7.09" transform="translate(68.569 48.407)" fill="#fff"/>
                <path id="Tracé_18651" data-name="Tracé 18651" d="M17.078,7.119A6.454,6.454,0,0,1,10.012,13,6.432,6.432,0,0,1,4.125,5.958,6.5,6.5,0,1,1,17.078,7.119" transform="translate(29.387 -0.005)" fill="#fff"/>
                <path id="Tracé_18652" data-name="Tracé 18652" d="M23.82,14.314a8.872,8.872,0,1,1-8.047-9.641,8.871,8.871,0,0,1,8.047,9.641" transform="translate(43.849 33.344)" fill="#fff"/>
                <path id="Tracé_18653" data-name="Tracé 18653" d="M26.785,8.609a6.519,6.519,0,1,1-5.863-7.082,6.541,6.541,0,0,1,5.863,7.082" transform="translate(98.887 10.78)" fill="#fff"/>
                <path id="Tracé_18654" data-name="Tracé 18654" d="M29.117,21.79a6.513,6.513,0,1,1-5.929-7.1,6.509,6.509,0,0,1,5.929,7.1" transform="translate(115.681 105.247)" fill="#fff"/>
                <path id="Tracé_18655" data-name="Tracé 18655" d="M25.513,14.636a5.945,5.945,0,1,1-5.364-6.477,5.962,5.962,0,0,1,5.364,6.477" transform="translate(97.958 58.397)" fill="#fff"/>
                <path id="Tracé_18656" data-name="Tracé 18656" d="M18.154,15.189a3.905,3.905,0,1,1-3.516-4.26,3.85,3.85,0,0,1,3.516,4.26" transform="translate(74.39 78.312)" fill="#fff"/>
                <path id="Tracé_18657" data-name="Tracé 18657" d="M36.949,19.268a9.531,9.531,0,1,1-8.6-10.361,9.448,9.448,0,0,1,8.6,10.361" transform="translate(128.661 63.577)" fill="#fff"/>
                <path id="Tracé_18658" data-name="Tracé 18658" d="M15.511,14.808a3.46,3.46,0,1,0,6.885.687,3.43,3.43,0,0,0-3.124-3.77,3.368,3.368,0,0,0-3.762,3.083" transform="translate(111.216 83.959)" fill="#fff"/>
                <path id="Tracé_18659" data-name="Tracé 18659" d="M18.375,8.515a2.179,2.179,0,0,1-4.342-.36A2.194,2.194,0,0,1,16.4,6.177a2.151,2.151,0,0,1,1.979,2.339" transform="translate(100.665 44.278)" fill="#fff"/>
                <path id="Tracé_18660" data-name="Tracé 18660" d="M23.434,16.169a2.152,2.152,0,1,1-1.946-2.38,2.216,2.216,0,0,1,1.946,2.38" transform="translate(137.368 98.921)" fill="#fff"/>
                <path id="Tracé_18661" data-name="Tracé 18661" d="M21.941,9.094a3.029,3.029,0,1,1-2.715-3.271,2.938,2.938,0,0,1,2.715,3.271" transform="translate(114.132 41.656)" fill="#fff"/>
                <path id="Tracé_18662" data-name="Tracé 18662" d="M13.566,14.931a3.03,3.03,0,1,1-2.715-3.271,3.016,3.016,0,0,1,2.715,3.271" transform="translate(53.956 83.592)" fill="#fff"/>
              </g>
            </g>
          </g>
        </g>
      </g>
    </g>
  </g>
</svg>
